<svg width="0" height="0" class="hidden">
  <symbol xmlns="http://www.w3.org/2000/svg" viewBox="0 0 226.037 240" id="angular">
    <g transform="translate(-942.754 223.307)">
      <g transform="translate(942.791 -223.307)">
        <path d="M742.076,393.55c-25.756-14.286-47.531-27.046-48-28s-2.467-12.881-4-27c-2.779-25.6-5.142-49.666-10-91-1.411-12-2.848-23.305-3-25-.236-2.626.531-4.085,6-6,3.53-1.236,22.88-7.8,43-15s42.814-15.55,50-18l13-4,32,11c17.522,5.983,43.043,14.257,57,19l25,9v4c-.381,2.2-4.422,34.291-9,71s-8.627,68.212-9,70c-.571,2.74-7.238,6.365-41,25-22.038,12.164-43.764,24.653-48,27l-8,4Zm10-49,7-17,31-1h31l8,17,7,18h12c6.847.2,13,.477,13,0s-15.586-35.394-35-77-36-76.348-36-77-.941-1-2-1-2,.385-2,1c0,1.127-12.876,32.282-48,110-10.507,23.249-20,42.423-20,43s6.763,1,14,1h13Zm17-41c4.475-11.033,18.611-44.612,19-45,.6-.6,23,44.172,23,46,0,.722-8.333,1.256-21,1C776.629,305.278,768.746,304.365,769.076,303.55Z" transform="translate(-677.076 -179.55)" fill="#dd1b16"></path>
      </g>
    </g>
  </symbol>
  <symbol xmlns="http://www.w3.org/2000/svg" viewBox="0 0 184.616 144" id="azure">
    <g transform="translate(-2305 -1672)">
      <path d="M114.617,25.224l-27.306,55,48.075,55.731L46.154,146.078l138.462,1.442Zm-5.388-21.7L46.54,55.98,0,134.5l39.617-4.038Z" transform="translate(2305 1668.48)" fill="#035bda" fill-rule="evenodd"></path>
    </g>
  </symbol>
  <symbol xmlns="http://www.w3.org/2000/svg" viewBox="0 0 257.502 257.786" id="bootstrap">
    <path d="M32.52-539.57c.382.668-1.1,1.289-3.962,1.671a13.919,13.919,0,0,0-3.342.764c-.477.191-2.482,1.193-4.487,2.148A36.583,36.583,0,0,0,4.355-518.567c-2.53,5.251-2.578,5.251-3.2,8.4-.716,3.676-.812,195.288-.1,199.059a29.191,29.191,0,0,0,3.389,8.927,8.653,8.653,0,0,1,1.1,2.244c0,.525,3.723,5.3,5.442,7.017,1.718,1.671,6.492,5.442,6.969,5.442a13.929,13.929,0,0,1,2.721,1.337c2.244,1.337,5.155,2.339,9.834,3.389,3.2.716,193.187.716,196.386,0,4.678-1.05,7.59-2.053,9.834-3.389a13.929,13.929,0,0,1,2.721-1.337c.477,0,5.251-3.771,6.969-5.442,1.718-1.719,5.442-6.492,5.442-7.017a8.566,8.566,0,0,1,1.193-2.291c1.432-2.339,3.1-6.969,3.1-8.688,0-1.814.477-2.816,1.241-2.816.573,0,.668-14.368.668-96.665,0-83.586-.1-96.665-.668-96.665-.764,0-1-.668-1.48-4.01a17.864,17.864,0,0,0-.668-3.1c-4.344-8.974-6.922-12.555-12.029-16.66a38.471,38.471,0,0,0-6.588-4.153c-2-.955-3.962-1.957-4.439-2.148a13.92,13.92,0,0,0-3.342-.764c-2.864-.382-4.344-1-3.962-1.671.191-.239-35.372-.43-96.188-.43S32.329-539.809,32.52-539.57ZM152.289-485.82c11.648,1.766,19.19,5.155,25.634,11.457,7.59,7.447,10.693,17.328,9.5,30.074a27.979,27.979,0,0,1-3.007,11.218,33.5,33.5,0,0,1-14.607,15.037c-1.384.716-2.387,1.528-2.291,1.814.1.334,1.146.811,2.291,1.1,8.879,2.244,17.376,9.977,21.147,19.285.477,1.193,1.146,2.864,1.528,3.723a8.532,8.532,0,0,1,.668,2.864,31.5,31.5,0,0,0,.716,4.153c.907,3.771.907,9.69-.048,15.132a36.01,36.01,0,0,1-4.774,13.748c-4.487,7.59-10.979,12.841-20.717,16.66-1.432.573-3.055,1.241-3.58,1.48-.525.191-2.673.764-4.774,1.193s-5.155,1.1-6.778,1.48c-2.435.525-10.168.668-43.822.668H68.56V-410.3c0-41.578.143-75.757.334-75.9.143-.191,17.9-.334,39.43-.334C140.88-486.536,148.279-486.393,152.289-485.82Z" transform="translate(-0.57 540)" fill="#563d7c"></path>
    <path d="M200.25-379.805c-.334.907-.286,38.523.048,39.43.239.668,2.482.764,20.431.764,19.381-.048,28.88-.43,30.694-1.337.477-.239,1.909-.955,3.2-1.575,2.912-1.432,6.444-4.821,7.638-7.351.477-1.05,1.146-2.339,1.432-2.864a31.4,31.4,0,0,0,.668-6.779c.143-4.583,0-6.444-.668-8.592-1.528-5.06-4.153-8.354-8.02-9.929a21.363,21.363,0,0,1-2.912-1.384c-.668-.334-5.585-.573-15.275-.668-7.876-.048-19.429-.143-25.634-.239C202.733-380.426,200.441-380.283,200.25-379.805Z" transform="translate(-104.812 456.565)" fill="#563d7c"></path>
    <path d="M200.286-253.6c-.143.191-.286,10.693-.286,23.391v23.1l25.921-.191c16.135-.1,26.78-.382,28.355-.716,6.253-1.289,12.125-5.585,14.655-10.6,2.53-5.155,3.341-14.607,1.671-19.572a27.343,27.343,0,0,0-4.105-7.972c-1.671-1.909-5.872-4.917-6.826-4.917a1.908,1.908,0,0,1-1.241-.477c-.621-.621-4.249-1.384-8.783-1.909C245.588-253.935,200.764-254.03,200.286-253.6Z" transform="translate(-104.8 390.459)" fill="#563d7c"></path>
  </symbol>
  <symbol xmlns="http://www.w3.org/2000/svg" viewBox="0 0 180.417 252.845" id="bulma">
    <path d="M0,173.831,16.4,63.211,82.008,0l82.007,79.014-49.2,47.408,65.606,63.211L82.008,252.845Z" fill="#00d1b2"></path>
  </symbol>
  <symbol xmlns="http://www.w3.org/2000/svg" viewBox="0 0 173 173" id="cashmere">
    <g transform="translate(86.934 -92.132)">
      <path d="M87,0c47.9,0,86,39.1,86,87a85.487,85.487,0,0,1-86,86C39.1,173,0,134.9,0,87A87.19,87.19,0,0,1,87,0Z" transform="translate(-86.934 92.132)" fill="#00aeff"></path>
      <path d="M117.455,108.641c-1.6-1.172-4.21-1.858-6-1a5.946,5.946,0,0,0-3,5c-13.1,5.084-25.709,4.437-35,3h-1l-7,9a42.757,42.757,0,0,1-12-5l2-4a53.6,53.6,0,0,1-10-7l3-3a40.721,40.721,0,0,0,9,7c-1.045,2.478.7,5.611,3,7a5.4,5.4,0,0,0,7-1c1.7-2.079.814-5.015-1-7a5.4,5.4,0,0,0-7-1,27.99,27.99,0,0,1-3-2l2-4c6.9,4.922,15.6,6.625,26,5,1.55,2.011,3.707,3.089,6,2a5.3,5.3,0,0,0,3-6c-.579-2.472-2.461-5.042-5-5s-4.5,2.51-5,5c-1.623.348-3.34,0-5,0-18.175,0-31-13.828-31-32s12.823-32,31-32a26.779,26.779,0,0,1,24,16l24-12c-7.335-14.673-21.154-29-48-29-34.181,0-60,22.652-60,57,0,33.6,24.679,57.223,58,58,1.141,2.171,3.609,2.548,6,2a5.125,5.125,0,0,0,0-10,5.02,5.02,0,0,0-6,2c-1.938-.054-4.078.254-6,0l4-5a76.254,76.254,0,0,0,16,1l2,8h2a77.75,77.75,0,0,0,10-2c1.767,1.78,3.863,2.314,6,1s3.791-3.62,3-6a6.147,6.147,0,0,0-6-4,5.935,5.935,0,0,0-5,5,58.178,58.178,0,0,1-6,1l-1-4a65.16,65.16,0,0,0,15-4,5.9,5.9,0,0,0,6,1,5.455,5.455,0,0,0,3-5h0A6.026,6.026,0,0,0,117.455,108.641Zm-55,4a2,2,0,1,1-2,2A2.015,2.015,0,0,1,62.455,112.641Zm26-8a2,2,0,1,1-2,2A2.015,2.015,0,0,1,88.455,104.641Zm-7,22a2,2,0,1,1-2,2A2.015,2.015,0,0,1,81.455,126.641Zm27-4a2,2,0,1,1-2,2A2.015,2.015,0,0,1,108.455,122.641Zm6-8a2,2,0,1,1,2-2A2.015,2.015,0,0,1,114.455,114.641Z" transform="translate(-76.39 105.491)" fill="#fff"></path>
    </g>
  </symbol>
  <symbol xmlns="http://www.w3.org/2000/svg" viewBox="0 0 230.276 254.515" id="csharp">
    <g transform="translate(-5 -3)">
      <path d="M113.49,4.732a13.615,13.615,0,0,1,13.289,0C147.11,16.143,208.291,50.49,228.628,61.9a12.843,12.843,0,0,1,6.648,11.187V187.419a12.86,12.86,0,0,1-6.648,11.193c-20.331,11.411-81.511,45.758-101.848,57.169a13.614,13.614,0,0,1-13.289,0C93.159,244.37,31.979,210.023,11.642,198.612A12.857,12.857,0,0,1,5,187.425V73.093A12.86,12.86,0,0,1,11.648,61.9C31.973,50.49,93.165,16.143,113.49,4.732Z" transform="translate(0 0.003)" fill="#37474f" fill-rule="evenodd"></path>
      <path d="M6.842,193.306C5.23,191.149,5,189.1,5,186.343V72.666A12.77,12.77,0,0,1,11.63,61.54C31.888,50.2,92.862,16.048,113.12,4.7a14.605,14.605,0,0,1,13.762.048c20.258,11.344,81.027,45.2,101.285,56.545a12.681,12.681,0,0,1,4,3.49Z" transform="translate(0 0)" fill="#546e7a" fill-rule="evenodd"></path>
      <path d="M94.838,10A84.838,84.838,0,1,1,10,94.838,84.877,84.877,0,0,1,94.838,10Zm0,42.419A42.419,42.419,0,1,1,52.419,94.838,42.439,42.439,0,0,1,94.838,52.419Z" transform="translate(25.299 35.421)" fill="#fff" fill-rule="evenodd"></path>
      <path d="M138.076,13.2c3.127,2.927,3.066,7.339,3.066,10.811,0,23-.194,88.408.055,111.4a13.163,13.163,0,0,1-1.957,6.829L23.593,78.621Z" transform="translate(94.078 51.638)" fill="#455a64" fill-rule="evenodd"></path>
      <path d="M34,20h6.06V68.479H34Zm18.18,0h6.06V68.479H52.18Z" transform="translate(146.737 86.019)" fill="#fff" fill-rule="evenodd"></path>
      <path d="M32,40.18H80.479v6.06H32ZM32,22H80.479v6.06H32Z" transform="translate(136.617 96.139)" fill="#fff" fill-rule="evenodd"></path>
    </g>
  </symbol>
  <symbol xmlns="http://www.w3.org/2000/svg" viewBox="0 0 218 275" id="css">
    <g transform="translate(-32.842)">
      <path d="M201.87,7.028h-162v262h205v-218Z" transform="translate(-1.028 -1.028)" fill="#e4e4e4"></path>
      <path d="M208.87,29.028h-169v-22h162Z" transform="translate(-1.028 -1.028)" fill="#004a94"></path>
      <g transform="translate(97.38 80.957)">
        <path d="M108.089,124.854a11.728,11.728,0,0,0,7-2,5.958,5.958,0,0,0,3-5v-10c0-3.771.672-7.128,2-9a10.054,10.054,0,0,1,6-4c3-.854,6.709-1,12-1v11a9.281,9.281,0,0,0-4,1,3.956,3.956,0,0,0-2,1,5.433,5.433,0,0,0-1,3v11a10.134,10.134,0,0,1-3,7c-1.533,1.641-3.556,2.512-7,3h0a11.71,11.71,0,0,1,7,4c1.518,1.6,3,3.07,3,6v12a2.455,2.455,0,0,0,1,2,3.781,3.781,0,0,0,2,1,11.426,11.426,0,0,0,4,1v11c-5.344,0-9.017-.133-12-1a10.052,10.052,0,0,1-6-4c-1.316-1.886-2-5.174-2-9v-10a5.92,5.92,0,0,0-3-5,11.9,11.9,0,0,0-7-2v-12Z" transform="translate(-107.627 -93.811)" fill="#004a94"></path>
        <path d="M205.289,136.854a11.965,11.965,0,0,0-7,2,5.92,5.92,0,0,0-3,5v10c0,3.8-.67,7.1-2,9a10.038,10.038,0,0,1-6,4c-2.984.867-7.683,1-13,1v-11c2.931-.109,5.888-.307,7-1s1-1.589,1-3v-12c0-2.93.481-4.4,2-6a14.839,14.839,0,0,1,8-4h0c-3.445-.488-5.469-1.359-7-3a10.138,10.138,0,0,1-3-7v-11a5.228,5.228,0,0,0-1-3,4.227,4.227,0,0,0-2-1,16.026,16.026,0,0,0-5-1v-11c5.317,0,10.016.146,13,1a10.094,10.094,0,0,1,6,4c1.33,1.872,2,5.229,2,9v10a5.985,5.985,0,0,0,3,5,11.7,11.7,0,0,0,7,2Z" transform="translate(-116.827 -93.811)" fill="#004a94"></path>
      </g>
      <path d="M227.489,51.028h43l-43-44Z" transform="translate(-26.647 -1.028)" fill="#d1d3d3"></path>
      <path d="M248.842,45l-44-43a5.33,5.33,0,0,0-4-2h-162a5.7,5.7,0,0,0-6,6V268c0,3.574,2.426,7,6,7h205a7.409,7.409,0,0,0,7-7V50A7.6,7.6,0,0,0,248.842,45Zm-42-23,22,22h-22V22Zm-161-9h148v9h-148Zm192,249h-192V35h148V50a7.409,7.409,0,0,0,7,7h37V262Zm-126-52a16.569,16.569,0,0,1,5,1,32.993,32.993,0,0,1,4,2l4-9a30.284,30.284,0,0,0-13-3c-4.1,0-7.969.253-11,2a18.72,18.72,0,0,0-7,8c-1.615,3.247-2,6.714-2,11,0,6.854,1.668,12.375,5,16s7.75,5,14,5c4.362,0,8.545-.471,12-2v-9c-1.737.718-3.282.49-5,1a16.724,16.724,0,0,1-5,1c-6.061,0-10-4.032-10-12a15.734,15.734,0,0,1,3-9A6.526,6.526,0,0,1,111.842,210Zm30,1a4.589,4.589,0,0,1,3-1,22.677,22.677,0,0,1,10,2l3-8a31.661,31.661,0,0,0-13-3c-4.853,0-8.224.867-11,3s-5,5.186-5,9a11.71,11.71,0,0,0,1,5,11.066,11.066,0,0,0,3,4,35.482,35.482,0,0,0,7,4c2.983,1.341,4.309,1.566,5,2a10.278,10.278,0,0,1,2,2c.312.425,0,.434,0,1a2.137,2.137,0,0,1-1,2,7.352,7.352,0,0,1-4,1,22.7,22.7,0,0,1-6-1c-2.3-.613-4.867-.9-7-2v10a26.767,26.767,0,0,0,6,2c1.869.387,4.244,0,7,0,3.305,0,6.546.1,9-1s3.7-3.007,5-5a12.78,12.78,0,0,0,2-7,11.329,11.329,0,0,0-2-7c-1.387-1.841-3.432-3.395-7-5-3.72-1.7-6.16-2.358-7-3s-1-2.188-1-3C140.842,211.246,141.182,211.51,141.842,211Zm33,0a4.589,4.589,0,0,1,3-1,22.68,22.68,0,0,1,10,2l4-8a31.661,31.661,0,0,0-13-3c-4.853,0-9.224.867-12,3s-4,5.186-4,9a11.711,11.711,0,0,0,1,5,11.057,11.057,0,0,0,3,4,25.021,25.021,0,0,0,6,4c2.983,1.341,5.31,1.566,6,2s.688,1.575,1,2,0,.434,0,1a2.139,2.139,0,0,1-1,2,4.1,4.1,0,0,1-3,1,30.074,30.074,0,0,1-7-1,26.167,26.167,0,0,1-6-2v10a26.767,26.767,0,0,0,6,2c1.869.387,3.244,0,6,0,3.3,0,6.545.1,9-1a14.575,14.575,0,0,0,6-5,12.78,12.78,0,0,0,2-7,11.335,11.335,0,0,0-2-7c-1.387-1.841-4.432-3.395-8-5-3.72-1.7-6.159-2.358-7-3s-1-2.188-1-3C173.841,211.246,174.181,211.51,174.842,211Z" transform="translate(0 0)" fill="#333e48"></path>
    </g>
  </symbol>
  <symbol xmlns="http://www.w3.org/2000/svg" viewBox="0 0 251.535 283.719" id="css3">
    <g transform="translate(-343.118 -255.999)">
      <g transform="translate(343.118 255.999)">
        <g transform="translate(0 0)">
          <path d="M572.044,509.265l22.317-249.987.292-3.279H343.118l.292,3.279L365.7,509.305l.186,2.085,2.008.556,100.038,27.772h1.605l100.31-27.812,2.008-.556Z" transform="translate(-343.118 -255.999)" fill="#1572b6" fill-rule="evenodd"></path>
          <path d="M1130.382,352H1024V599.765l86.4-23.955Z" transform="translate(-898.232 -334.266)" fill="#35a8db" fill-rule="evenodd"></path>
          <g transform="translate(43.86 50.825)">
            <path d="M692.18,564.625l-75.033,31.249,2.489,30.938,72.544-31.017L769.347,562.8l3.2-31.649Z" transform="translate(-610.39 -531.154)" fill="#e9e9e8" fill-rule="evenodd"></path>
            <path d="M662.357,531.162h80.367l-.634,6.264-.634,6.264-.634,6.264-.634,6.266-.634,6.264-.031.326H584.479l-.11-.9-.634-5.126-.633-5.125-.634-5.127-.633-5.125-.633-5.125-.633-5.125h81.789Z" transform="translate(-580.568 -531.161)" fill="#e9e9e8" fill-rule="evenodd"></path>
            <path d="M617.774,881.561H767.132l-2.721,31.29-144.149-.357Z" transform="translate(-610.902 -816.836)" fill="#e9e9e8" fill-rule="evenodd"></path>
            <path d="M643.04,1063.141l32.672.013,2.132,25.585,35.446,8.791,36.39-10.213,2.462-41.839,32.964-.517-5.911,67.96-65.787,19.2-66.261-19.559Z" transform="translate(-631.5 -950.053)" fill="#e9e9e8" fill-rule="evenodd"></path>
          </g>
          <g transform="translate(125.768 50.825)">
            <path d="M1024,595.744l77.049-32.941,3.2-31.649L1024,564.575Z" transform="translate(-1024 -531.154)" fill="#fffffe" fill-rule="evenodd"></path>
            <path d="M1024,531.162h80.249l-.634,6.264-.634,6.264-.634,6.264-.634,6.266-.634,6.264-.031.326H1024Z" transform="translate(-1024 -531.161)" fill="#fffffe" fill-rule="evenodd"></path>
            <path d="M1024,881.561h74.323l-2.721,31.29-71.6-.177Z" transform="translate(-1024 -816.836)" fill="#fffffe" fill-rule="evenodd"></path>
            <path d="M1024,1097.5l36.272-10.18,2.462-41.839,32.964-.517-5.911,67.96-65.787,19.2V1097.5Z" transform="translate(-1024 -950.053)" fill="#fffffe" fill-rule="evenodd"></path>
          </g>
        </g>
      </g>
    </g>
  </symbol>
  <symbol xmlns="http://www.w3.org/2000/svg" viewBox="0 0 262.32 248.474" id="d3">
    <path d="M105.95,95.059l.267-3.454c.08-1.374-82.581-79.8-82.581-79.8H21.669s83.784,88.375,84.291,83.255Z" transform="translate(155.973 84.962)" fill="#f9a03c"></path>
    <path d="M11.154,18.735l-.331.722-.359.752C7.829,25.7,47.353,64.341,50.531,59.648l.435-.633.479-.718c2.542-3.859-39.163-42.06-40.292-39.551Z" transform="translate(74.41 134.077)" fill="#f9a03c"></path>
    <path d="M18.685,25.268a10.677,10.677,0,0,1-1.634,2.3C16.928,27.816,55.634,66.2,55.634,66.2H59.12S22.785,26.891,18.685,25.268Z" transform="translate(122.729 181.879)" fill="#f9a03c"></path>
    <path d="M262.246,175.867a75.744,75.744,0,0,1-75.567,72.213h-5.484l-40.5-39.9a145.174,145.174,0,0,0,9.187-14.643h36.8a21.111,21.111,0,0,0,0-42.222H164.9a145.385,145.385,0,0,0,2.567-27.07,144.793,144.793,0,0,0-2.643-27.48h13.528L262,179.192q.149-1.66.239-3.324ZM22,0H0V54.546H22a69.78,69.78,0,0,1,69.7,69.7,69.294,69.294,0,0,1-6.476,29.292L125.377,193.1a123.5,123.5,0,0,0,20.887-68.849A124.4,124.4,0,0,0,22,0Z" transform="translate(0 0)" fill="#f26d58"></path>
    <path d="M101.009,0H11.9A146.447,146.447,0,0,1,63.968,54.546H101.01a21.11,21.11,0,1,1,0,42.219H92.685l83.645,82.428c.2-2.235.32-4.486.32-6.771A75.272,75.272,0,0,0,159.1,124.037,75.6,75.6,0,0,0,101.009,0Z" transform="translate(85.67 0)" fill="#b84e51"></path>
    <path d="M181.195,113.284H98.209a146.723,146.723,0,0,0,42.482-39.9ZM125.377,58.295,85.236,18.727A69.8,69.8,0,0,1,22,59.137H0v54.54H22A124.231,124.231,0,0,0,125.377,58.283Z" transform="translate(0 134.797)" fill="#f9a03c"></path>
  </symbol>
  <symbol xmlns="http://www.w3.org/2000/svg" viewBox="0 0 130.276 167.855" id="django">
    <g transform="translate(-750 -2183)">
      <path d="M64.331,0H91.807V127.045c-14.079,2.675-24.391,3.743-35.669,3.743-33.508,0-50.973-15.149-50.973-44.2,0-27.985,18.537-46.16,47.23-46.16a43.7,43.7,0,0,1,11.941,1.424Zm0,63.95a27.275,27.275,0,0,0-9.266-1.424c-13.9,0-21.926,8.555-21.926,23.526,0,14.616,7.664,22.634,21.769,22.634a64.448,64.448,0,0,0,9.442-.708Zm71.11-21.567v63.627c0,21.926-1.605,32.438-6.415,41.526-4.459,8.734-10.339,14.257-22.456,20.318L81.083,155.738c12.117-5.7,18-10.69,21.769-18.359,3.921-7.868,5.167-16.932,5.167-40.81V42.383ZM107.994.147h27.447v28.16H107.994Z" transform="translate(744.835 2183)" fill="#092e20"></path>
    </g>
  </symbol>
  <symbol xmlns="http://www.w3.org/2000/svg" viewBox="0 0 286.96 201.932" id="docker">
    <g transform="translate(-1.947 -9)">
      <path d="M249.823,53.084c2.547-11.3-.6-24.623-16.285-39.084-25.5,23.079-18.206,47.076-9.771,58.625,0,0-1.081,6.514-26.056,6.514H2.294S-9.646,183.362,106.517,183.362c101.572,0,130.1-78.187,135.672-98.2a54.21,54.21,0,0,0,7.634.5c13.985-.111,32.114-7.628,39.084-35.722C270.421,43.528,258.546,46.426,249.823,53.084Z" transform="translate(0 27.57)" fill="#03a9f4"></path>
      <path d="M2.165,28c4.788,30.87,24.87,78.167,103.148,78.167,79.372,0,114.144-47.747,128.207-78.167Z" transform="translate(1.204 104.765)" fill="#0288d1"></path>
      <path d="M104.677,78.194C98.684,76.1,71.638,71.093,66.818,33a101.1,101.1,0,0,1-62.4,6.566C18.5,60.6,44.612,78.6,92.874,78.6,96.932,78.6,100.847,78.441,104.677,78.194Z" transform="translate(13.643 132.334)" fill="#81d4fa"></path>
      <path d="M29.028,30A13.028,13.028,0,1,0,42.056,43.028,13.028,13.028,0,0,0,29.028,30Z" transform="translate(77.489 115.793)" fill="#fff"></path>
      <path d="M86.121,75.486c1.459,3.29.13,7.569-3.322,8.585C61.3,90.41,42.764,91.25,28.753,91.25A79.3,79.3,0,0,1,17.966,78.463c16.839,0,43.709-.782,59.563-6.292C80.929,70.985,84.662,72.184,86.121,75.486ZM2,32.514S14.214,33.328,21.542,26c12.214,11,38.693,7.087,45.6,0,6.924,11,45.194,8.957,52.112,0,8.142,9.367,43.155,11.4,52.112,0,3.12,9.517,44.419,12.207,52.111,0,6.911,7.087,32.98,12.624,47.623,0,3.674,7.739,17.516,6.514,17.516,6.514v6.514H2M99.709,65.084a6.514,6.514,0,1,0,6.514-6.514A6.516,6.516,0,0,0,99.709,65.084Z" transform="translate(0.294 93.737)" fill="#37474f"></path>
      <path d="M38.57,79.139H6V46.57H38.57Zm65.139-32.57H71.139v32.57h32.57Zm65.139,0h-32.57v32.57h32.57ZM71.139,14H38.57V46.57h32.57Zm65.139,0h-32.57V46.57h32.57Z" transform="translate(22.35 27.57)" fill="#01579b"></path>
      <path d="M43.57,106.709H11V74.139H43.57Zm65.139-32.57H76.139v32.57h32.57Zm0-65.139H76.139V41.57h32.57ZM76.139,41.57H43.57v32.57h32.57Z" transform="translate(49.919)" fill="#0288d1"></path>
    </g>
  </symbol>
  <symbol xmlns="http://www.w3.org/2000/svg" viewBox="0 0 208.902 209.177" id="dot">
    <g transform="translate(-4.131 -4)">
      <path d="M34.948,116.222c-18.276-10.306-28.107-36.139-18-53,9.224-16,35.889-24.756,60-10,12.98,7.981,29.254,15,48,15,17.315,0,32.854-10.534,42-26a87.915,87.915,0,0,0,8-17c-.486,16.4-5.87,32.993-15,48C136.867,113.055,73.413,138.243,34.948,116.222Z" transform="translate(38.084 88.778)" fill="#283593"></path>
      <path d="M44.033,13.11c18.161-9.48,46.4-6.475,55,12,7.652,16.584,7.126,40.432-24,57-13.382,7.109-28.392,15.876-37,32-8.122,15.163-9.089,32.881,0,49,3.343,5.683,7.662,11.683,11,15a98.784,98.784,0,0,1-34-37C-6.571,102.17,4.362,33.977,44.033,13.11Z" transform="translate(0 16.89)" fill="#283593"></path>
      <path d="M161.714,87c0,20.057-17.593,42-38,42-18.981,0-38-10.539-38-46,0-14.923-1.509-32.061-11-47-9.01-14.448-26.478-23.47-45-23-5.1.005-10.5-.227-15,1,3.134-1.442,6.038-2.261,11-4a114.754,114.754,0,0,1,35-6C107.227,4,161.233,43.631,161.714,87Z" transform="translate(46.319)" fill="#283593"></path>
    </g>
  </symbol>
  <symbol xmlns="http://www.w3.org/2000/svg" viewBox="0 0 208.544 226.063" id="electron">
    <g transform="translate(-2.479)">
      <path d="M70.853,15.175c-29.54-5.38-52.9.247-62.21,16.375C1.7,43.581,3.681,59.536,13.458,76.586a3.03,3.03,0,0,0,5.256-3.017c-8.806-15.365-10.519-29.13-4.825-39C21.66,21.18,42.457,16.157,69.769,21.13a3.028,3.028,0,0,0,1.084-5.959ZM28.82,97.278c11.946,13.126,27.463,25.439,45.163,35.658,42.888,24.743,88.507,31.384,110.961,16.054a3.03,3.03,0,0,0-3.416-5.005c-20.123,13.719-63.46,7.439-104.554-16.266-17.167-9.911-32.2-21.836-43.711-34.489a3.031,3.031,0,1,0-4.482,4.08ZM177.8,93.629c19.342-22.853,26.1-45.834,16.806-61.92-6.835-11.84-21.285-18.092-40.493-18.339a3.029,3.029,0,0,0-.081,6.058c17.308.226,29.724,5.609,35.322,15.312,7.718,13.366,1.7,33.86-16.185,54.983a3.03,3.03,0,1,0,4.624,3.917ZM128.089,16.178C110.6,19.922,91.983,27.252,74.106,37.573,29.869,63.111,1.01,100.81,5.012,128.079a3.029,3.029,0,0,0,5.994-.88C7.45,102.954,34.8,67.258,77.13,42.779c17.308-10.014,35.368-17.107,52.224-20.72a3.029,3.029,0,0,0-1.268-5.924Z" transform="translate(5.169 33.414)" fill="#47848f" fill-rule="evenodd"></path>
      <path d="M19.342,170.431C29.454,198.672,46,216.061,64.607,216.061c13.571,0,26.124-9.254,35.912-25.538a3.029,3.029,0,1,0-5.192-3.122C86.5,202.034,75.723,210,64.607,210c-15.453,0-30.211-15.542-39.561-41.61a3.03,3.03,0,0,0-5.7,2.045Zm92.378-5.524c5.235-16.732,8.046-36.029,8.046-56.145,0-50.186-17.566-93.449-42.584-104.554a3.03,3.03,0,1,0-2.458,5.539c22.317,9.9,38.982,50.966,38.982,99.019,0,19.512-2.72,38.2-7.771,54.336a3.03,3.03,0,1,0,5.782,1.812Zm57.052-2.967a14.517,14.517,0,1,1-.035,0Zm-6.058,0a8.438,8.438,0,1,1-8.438-8.438,8.442,8.442,0,0,1,8.438,8.438Z" transform="translate(42.252 10.002)" fill="#47848f" fill-rule="evenodd"></path>
      <path d="M16.978,186.441a14.5,14.5,0,1,0-14.5-14.5,14.5,14.5,0,0,0,14.5,14.5Zm0-6.058a8.438,8.438,0,1,1,8.438-8.438,8.442,8.442,0,0,1-8.438,8.438ZM106.859,28.964A14.482,14.482,0,1,0,92.359,14.5,14.5,14.5,0,0,0,106.859,28.964Zm0-6.058a8.438,8.438,0,1,1,8.438-8.438,8.442,8.442,0,0,1-8.438,8.438Zm2.211,106.108a10.491,10.491,0,1,1,8.04-12.469,10.49,10.49,0,0,1-8.04,12.469Z" fill="#47848f" fill-rule="evenodd"></path>
    </g>
  </symbol>
  <symbol xmlns="http://www.w3.org/2000/svg" viewBox="0 0 200 116.043" id="express">
    <g transform="translate(-2188.986 -1671.707)">
      <path d="M199.986,120.171c-7.275,1.85-11.963.062-16-6l-29-40-4-6-33,46c-3.831,5.456-7.85,7.931-15,6l43-58-40-52c6.875-1.337,11.782-1.156,16,5l29,41,30-40c3.843-5.456,8.1-8.012,15-6l-15,21-21,27c-2.5,3.125-2.3,4.981,0,8Zm-200-59,4-17c9.562-34.185,47.977-49.124,75-28,15.793,12.424,19.781,30.314,19,50h-89c-1.337,35.435,24.483,56.912,57,46,11.405-3.831,17.638-12.826,21-24,1.706-5.6,4.738-6.6,10-5-2.687,13.974-8.188,25.694-21,33-19.142,10.937-46.626,7.2-61-8-8.562-8.818-12.413-20.051-14-32-.25-1.975-.625-3.106-1-5C.02,67.937-.014,64.4-.014,61.171Zm9-2h81c-.525-25.623-16.2-43.844-38-44C28.05,14.983,10.024,32.772,8.986,59.171Z" transform="translate(2189 1665.289)"></path>
    </g>
  </symbol>
  <symbol xmlns="http://www.w3.org/2000/svg" viewBox="0 0 156 217.254" id="firebase">
    <g transform="translate(-0.407 -0.117)">
      <path d="M269.346,173.7l-22,20-20-40,10-24c2.641-4.689,7.359-4.7,10,0Z" transform="translate(-165.939 -95.333)" fill="#ffa000"></path>
      <path d="M206.329,211.785l-81,76,61-116Z" transform="translate(-124.922 -113.415)" fill="#f57f17"></path>
      <path d="M251.327,152.322c3.882-3.732,7.977-2.287,9,3l21,123-70,42c-2.452,1.354-9,2-9,2s-5.741-.746-8-2l-69-41Z" transform="translate(-124.92 -104.951)" fill="#ffca28"></path>
      <path d="M186.329,132.836l-61,116,27-170c1-5.291,3.313-5.671,6-1Z" transform="translate(-124.922 -74.466)" fill="#ffa000"></path>
    </g>
  </symbol>
  <symbol xmlns="http://www.w3.org/2000/svg" viewBox="0 0 219.744 219.744" id="gatsby">
    <path d="M179.514,93.185H124.578v15.691h37.665c-5.494,23.543-22.764,43.159-45.518,51.011L26.473,69.642c9.418-27.468,36.1-47.087,66.713-47.087,23.543,0,44.738,11.777,58.074,29.823l11.777-10.2A86.539,86.539,0,0,0,93.185,6.857c-40.811,0-75.341,29.037-83.973,67.492L112.8,177.938c37.665-9.418,66.713-43.949,66.713-84.759Zm-172.657.79c0,21.974,8.632,43.159,25.113,59.64a85.185,85.185,0,0,0,59.64,25.113Z" transform="translate(16.687 16.686)" fill="#fff"></path>
    <path d="M109.872,0C49.442,0,0,49.442,0,109.872S49.442,219.744,109.872,219.744,219.744,170.3,219.744,109.872,170.3,0,109.872,0ZM48.653,171.091a85.185,85.185,0,0,1-25.113-59.64L109.082,196.2c-21.974-.79-43.949-8.632-60.43-25.113ZM128.7,193.855,25.9,91.036c8.632-38.455,43.163-67.492,83.973-67.492A86.55,86.55,0,0,1,179.72,58.86l-11.777,10.2c-13.332-18.046-34.527-29.813-58.071-29.813-30.606,0-56.505,19.619-66.713,47.087l90.256,90.253c22.764-7.849,40.024-27.468,45.518-51.011H141.268v-15.7H196.2c0,40.811-29.037,75.341-67.492,83.973Z" fill="#639"></path>
  </symbol>
  <symbol xmlns="http://www.w3.org/2000/svg" viewBox="0 0 278.629 278.631" id="git">
    <g transform="translate(-460.465)">
      <path d="M782.18,446.612a18.447,18.447,0,0,1-6.731-2.778c-.894-.586-12.948-12.56-63-62.585-34.043-34.023-62.287-62.342-62.765-62.931a17.622,17.622,0,0,1-3.537-7.554,14.156,14.156,0,0,1-.252-4.054,13.849,13.849,0,0,1,.463-3.981,21.074,21.074,0,0,1,2.61-5.638c.611-.9,9.634-10.011,43.023-43.421,23.238-23.252,42.317-42.277,42.4-42.277s7.172,7.023,15.756,15.608l15.607,15.608-.4,1.145a21.961,21.961,0,0,0-.06,14,25.18,25.18,0,0,0,3.142,5.987,23.316,23.316,0,0,0,7.712,6.461l1.216.607v76.35l-1.6.831a20.409,20.409,0,0,0-5.566,4.234,21.391,21.391,0,0,0-3.949,24.145,20.5,20.5,0,0,0,4.666,6.432,21.839,21.839,0,0,0,10.724,5.612,30.711,30.711,0,0,0,8.4-.01,21.773,21.773,0,0,0,17.024-17.047,26.8,26.8,0,0,0,.162-7.411,21.682,21.682,0,0,0-10.588-15.545l-1.143-.66V310.236c0-20.63.05-37.509.111-37.509s6.443,6.332,14.182,14.072l14.071,14.072-.4,1.153a22.636,22.636,0,0,0-.852,10.492,21.651,21.651,0,0,0,42.649.421,24.507,24.507,0,0,0,.066-7.626,21.788,21.788,0,0,0-17.56-17.642,26.773,26.773,0,0,0-7.519,0c-.73.142-1.744.381-2.253.532l-.926.274-15.357-15.3-15.357-15.3.392-1.607a20.192,20.192,0,0,0,.648-6.4,21,21,0,0,0-2.956-10.078,21.808,21.808,0,0,0-15.645-10.41,24.974,24.974,0,0,0-8.99.659l-.734.227-15.926-15.927-15.926-15.927,13.122-13.1c9.229-9.214,13.45-13.33,14.228-13.871a18.935,18.935,0,0,1,7.646-3.108,22.37,22.37,0,0,1,7.129.357,17.531,17.531,0,0,1,6.53,3.272c.654.512,28.717,28.478,63.039,62.821,48.935,48.965,62.005,62.12,62.556,62.962a18.438,18.438,0,0,1,2.827,6.952,23.465,23.465,0,0,1,0,6.229,18.794,18.794,0,0,1-3.031,7.207C920.157,319.725,797.385,442.5,795.8,443.6a18.793,18.793,0,0,1-7.207,3.031,24.919,24.919,0,0,1-6.408-.019Z" transform="translate(-185.405 -168.197)" fill="#f05033"></path>
    </g>
  </symbol>
  <symbol xmlns="http://www.w3.org/2000/svg" viewBox="0 0 219.247 246.347" id="graphql">
    <g transform="translate(-1.65 0)">
      <path d="M12.013,180.685,2.98,175.462,103.721.98,112.754,6.2Z" transform="translate(9.591 7.064)" fill="#e10098"></path>
      <path d="M2.727,20.53h201.5V30.975H2.727Z" transform="translate(7.766 148.053)" fill="#e10098"></path>
      <path d="M104,220.56,3.213,162.372l5.223-9.033,100.782,58.188ZM191.548,68.89,90.758,10.71l5.223-9.033L196.763,59.865Z" transform="translate(11.271 12.09)" fill="#e10098"></path>
      <path d="M8.439,68.907,3.216,59.875,104.089,1.67l5.223,9.033Z" transform="translate(11.293 12.04)" fill="#e10098"></path>
      <path d="M186.18,180.7,85.423,6.2,94.456.978l100.758,174.5ZM3.7,57.934H14.145V174.311H3.7Zm175.139,0h10.445V174.311H178.839Z" transform="translate(14.783 7.049)" fill="#e10098"></path>
      <path d="M19.272,79.176l-4.557-7.9,87.66-50.609,4.557,7.9Z" transform="translate(94.22 149.048)" fill="#e10098"></path>
      <path d="M217.9,184.76a16.083,16.083,0,1,0-.008,0M42.642,83.542a59.925,59.925,0,1,1,0-.008m-38,101.226a16.083,16.083,0,1,1,0,.008M179.909,83.55a21.968,21.968,0,1,1,30.006,8.056,22.007,22.007,0,0,1-30.006-8.056m-68.633,162.8a21.958,21.958,0,1,1,21.958-21.95,21.958,21.958,0,0,1-21.958,21.95m0-202.435a9.094,9.094,0,1,0,0-.008" transform="translate(0)" fill="#e10098"></path>
    </g>
  </symbol>
  <symbol xmlns="http://www.w3.org/2000/svg" viewBox="0 0 114.552 257.445" id="gulp">
    <g transform="translate(-165.82 300)">
      <path d="M258.364-284.034c-8.266,8.759-15.267,16.394-15.524,16.91-.253.6-1.772,6.181-3.286,12.362l-2.789,11.419h-8.607c-13.587,0-38.887,1.634-47.664,3.176-4.391.686-9.537,2.062-11.387,3.005l-3.286,1.721,1.938,1.634c4.635,3.862,19.736,5.841,48.258,6.531,35.182.778,64.026-2.748,64.026-7.815,0-2.407-11.308-5.5-22.948-6.269-3.963-.258-7.765-.778-8.354-1.114-.842-.6-.764-1.8.087-6.181,2.7-12.791,3.208-13.647,13.163-24.467,18.64-20.265,18.986-20.771,18.134-22.5-.93-1.634-4.557-4.382-5.91-4.382C273.81-300.009,266.718-292.792,258.364-284.034Z" transform="translate(0 0)" fill="#da4648"></path>
      <path d="M170.28-141.048c.589,8.331,4.3,43.867,5.233,50.4l.589,3.783,2.113-5.067c5.307-12.878,14.931-22.663,22.267-22.663,4.98,0,10.963,6.78,9.118,10.3-1.261,2.407-1.694,2.228-5.146-1.8-2.7-3.176-3.286-3.526-5.486-3.005C191.8-107.21,181-87.81,180.912-76.732c0,12.027,14.337.515,19.736-15.8.589-1.97,3.627-1.892,4.3.17.511,1.8-8.441,31.684-10.121,33.484-1.349,1.464-2.955.515-2.955-1.8a34,34,0,0,1,1.349-6.439c.764-2.577,1.1-4.9.842-5.238-.253-.258-1.606.515-2.867,1.721-4.05,3.783-6.416,4.975-9.79,4.975h-3.286l.511,7.9c.331,4.382,1.183,13.476,1.938,20.178l1.436,12.192,3.374,1.372c9.537,3.862,16.542,4.9,36.024,5.325,14.848.35,20.666.17,26.575-.944,10.544-1.8,18.811-4.547,19.828-6.531,1.017-1.892,1.938-8.331,4.216-28.936,2.278-20.265,2.444-18.972-2.531-14.94-4.722,3.783-8.938,5.067-11.727,3.6-3.042-1.721-2.278-4.211,3.885-12.275,3.885-4.975,4.216-6.867,1.017-6.094-4.722,1.284-10.034,9.707-15.943,25.153C243.6-51.4,241.832-49,239.631-49.862c-2.025-.778-1.436-3.691,2.867-12.961,1.859-4.119,3.286-7.553,3.121-7.645-.166-.17-1.514.6-3.042,1.8-3.963,2.918-7.424,3.526-9.362,1.721-1.514-1.372-1.859-1.372-5.565.087-3.8,1.464-3.963,1.464-5.067-.087A6.15,6.15,0,0,1,221.4-70.21c0-1.464-.331-1.284-2.867.944-4.893,4.29-10.544,4.382-11.893.17-.589-1.97,2.191-11.764,4.893-17.172,1.261-2.49,2.61-3.954,3.8-4.119,2.531-.428,2.444,1.8-.331,7.981a29.909,29.909,0,0,0-2.366,7.553c-.087,2.407.166,2.748,2.025,2.577,2.789-.341,6.163-4.469,9.7-12.1,2.789-5.841,4.98-7.723,5.91-5.067.253.6-.677,4.211-2.113,8.151a62.927,62.927,0,0,0-2.531,8.331c0,1.372,3.042,1.721,4.893.6.589-.428,4.05-8.409,7.765-17.688,3.719-9.357,7.171-17.766,7.677-18.636.842-1.721,3.719-2.228,4.557-.778.253.428-1.349,5.4-3.627,10.9-5.818,14.084-9.449,24.039-9.449,25.581,0,2.062,1.694,1.542,6.494-2.228a19.1,19.1,0,0,0,7.093-9.1c1.859-4.119,2.789-5.5,3.885-5.238a2.613,2.613,0,0,1,1.772,2.228l.253,1.97,2.61-2.228c4.216-3.6,8.441-3.954,10.466-.856,1.017,1.542.842,2.32-.93,6.011a39.526,39.526,0,0,1-4.722,7.465c-3.374,4.032-2.61,5.067,1.514,2.149,8.519-6.011,8.519-6.011,9.868-17.338,1.183-9.279,3.963-35.375,5.146-47.65.253-2.577.677-6.181.93-7.9l.511-3.176-4.216,1.206c-9.615,2.918-21.6,4.032-47.83,4.469-23.036.341-27.758.258-39.651-1.372-7.424-.944-15.188-2.32-17.214-3.1L169.7-148.96Z" transform="translate(-2.094 -81.523)" fill="#da4648"></path>
      <path d="M203.22,129.723a40.273,40.273,0,0,0,3.286,6.269l3.286,5.666,1.349,19.322c.764,10.65,1.349,19.92,1.349,20.693,0,2.228,6.075,4.975,14.429,6.439,6.075,1.036,11.051,1.284,21.011.944,13.242-.428,19.483-1.634,24.3-4.469,2.867-1.721,2.444,1.206,4.3-30.22.764-12.878.842-13.219,3.885-18.8,1.694-3.1,2.955-5.753,2.789-5.924-.166-.258-2.191.17-4.469.944-19.57,6.011-57.532,5.4-74.24-1.036C203.8,129.295,203.22,129.295,203.22,129.723Z" transform="translate(-20.186 -231.753)" fill="#da4648"></path>
    </g>
  </symbol>
  <symbol xmlns="http://www.w3.org/2000/svg" viewBox="0 0 232.933 264.438" id="html5">
    <g transform="translate(-30)">
      <path d="M51.176,237.581,30,0H262.933L241.757,237.581l-95.549,26.857" fill="#e34f26"></path>
      <path d="M256,261.669l76.956-21.176L351.033,37H256" transform="translate(-109.275 -17.89)" fill="#ef652a"></path>
      <path d="M187.34,152.879H148.6l-2.582-29.956H187.34V94H114l.516,7.747,7.231,80.571H187.34Zm0,75.923h-.516l-32.538-8.78L152.22,196.78H123.3l3.615,45.967,59.912,16.527h.516Z" transform="translate(-40.616 -45.451)" fill="#ebebeb"></path>
      <path d="M255,152.879v29.439h36.154l-3.615,37.7L255,228.8v30.472l59.912-16.527.516-5.165,6.714-76.956,1.033-7.747H255ZM255,94v28.923h70.758l.516-6.2,1.549-14.978L328.34,94Z" transform="translate(-108.792 -45.451)" fill="#fff"></path>
    </g>
  </symbol>
  <symbol xmlns="http://www.w3.org/2000/svg" viewBox="0 0 260 260" id="javascript">
    <g transform="translate(-6 -6)">
      <path d="M6,266V6H266V266Z" fill="#ffd600"></path>
      <path d="M117.881,101.364c5,8.123,10.487,16,22,16,9.67,0,15-5.351,15-12,0-7.957-5.362-10.367-16-15l-6-3c-16.832-7.141-28-16.1-28-35,0-17.418,13.164-30,34-30,14.838,0,25.31,4.543,33,18l-18,12c-4-7.141-8.3-10-15-10-6.837,0-11,4.363-11,10,0,6.967,3.99,9.685,14,14l6,2c19.839,8.449,31,17.6,31,37,0,20.9-15.841,32-38,32-21.674,0-34.149-10.536-41-24Zm-84,0c3.657,6.548,10.007,12,18,12,7.646,0,12-3.256,12-15v-76h24v80c0,24.334-14.388,35-35,35-18.625,0-32.522-12.277-38-24Z" transform="translate(58.119 99.636)" fill="#000001"></path>
    </g>
  </symbol>
  <symbol xmlns="http://www.w3.org/2000/svg" viewBox="0 0 160.072 144" id="lodash">
    <g transform="translate(0 -3.213)">
      <path d="M0,3.213H14.922V102.24H73.933v12.206H0ZM120.459,30.075c-15.262-.2-30.521,9.5-35.271,24.211-6.783,16.958-3.662,38.255,9.629,51.208,12.888,10.717,32.285,11.505,46.8,3.934,9.97-5.29,16.277-15.807,17.633-26.862,1.763-11.505.883-24.146-4.747-34.591a37.352,37.352,0,0,0-32.557-17.838l-1.493-.2Zm1.356,11.805a23.8,23.8,0,0,1,23.06,19.509c3.392,12.413,1.356,27.6-8.816,36.356-9.5,7.733-24.756,6.648-32.557-2.916C94,84.655,94,69.055,98.89,56.847A23.549,23.549,0,0,1,120.8,41.925h1.221Z" transform="translate(0 0)"></path>
      <path d="M0,54.007H160.072V70.965H0Z" transform="translate(0 76.248)" fill="#3492ff"></path>
    </g>
  </symbol>
  <symbol xmlns="http://www.w3.org/2000/svg" viewBox="0 0 215.103 215.103" id="moment">
    <path d="M107.552,215.1A107.552,107.552,0,1,0,0,107.552,107.552,107.552,0,0,0,107.552,215.1Zm0-16.133a91.419,91.419,0,1,1,91.419-91.419A91.418,91.418,0,0,1,107.552,198.971Z" fill="#376660" fill-rule="evenodd"></path>
    <path d="M111.641,197.683A86.041,86.041,0,1,0,25.6,111.641,86.041,86.041,0,0,0,111.641,197.683Zm0-166.705a5.393,5.393,0,0,0-5.378,5.415v69.872H68.6a5.378,5.378,0,0,0-.009,10.755h48.423V36.36a5.367,5.367,0,0,0-5.378-5.383Z" transform="translate(-4.09 -4.09)" fill="#529990" fill-rule="evenodd"></path>
  </symbol>
  <symbol xmlns="http://www.w3.org/2000/svg" viewBox="0 0 184.067 201.277" id="mssql">
    <g transform="translate(-198.833 -102.498)">
      <path d="M315,196.4l-40.3,13.2-35.1,15.5-9.8,2.6c-2.5,2.4-5.1,4.8-8,7.2-3.1,2.7-6,5.1-8.2,6.9a66.458,66.458,0,0,0-8,7.9,34.972,34.972,0,0,0-5.9,10,16.558,16.558,0,0,0,2.4,15.1c4.1,6.1,12.4,12.3,22,16.5a142.082,142.082,0,0,0,19.4,6.5,255.221,255.221,0,0,0,41.3,5.9,42.724,42.724,0,0,0,5.3,0,70.316,70.316,0,0,0,3.9-7.5,190.88,190.88,0,0,0,14.3-37.8,186.534,186.534,0,0,0,3.7-26.2c.2-3,.3-12.9.1-16.2a134.132,134.132,0,0,0-1.5-14.3c-.1-.6-.2-1.2-.1-1.2.1-.1.5-.2,5.5-1.6l-1-2.5Zm-9.2,5.4c.4,0,1.3,9.4,1.6,15.3a12.027,12.027,0,0,1,0,2.1c-.2,0-5.1-2.9-8.7-5.1-3-1.9-8.8-5.8-9.7-6.5-.3-.2-.3-.2,2.2-1.1C295.4,205,305.4,201.8,305.8,201.8Zm-20.6,6.8a10.5,10.5,0,0,1,2.7,1.4,197.908,197.908,0,0,0,18.5,10.3c1.1.5,1.2.3-1.3,2.1a128.017,128.017,0,0,1-20.9,11.2,28.7,28.7,0,0,1-2.8,1.2,4.639,4.639,0,0,1,.4-1.7,94.716,94.716,0,0,0,3.3-21.4c-.2-3.1-.2-3.1.1-3.1Zm-4.2,1.6a56.116,56.116,0,0,1-.2,8.9,75.3,75.3,0,0,1-2.8,13.3,8.915,8.915,0,0,1-.7,2.1c-.1.2-4.3-3.9-5.7-5.5a39.883,39.883,0,0,1-5.6-8.2,30.064,30.064,0,0,1-1.7-4.1C264.8,216.3,280.9,210.1,281,210.2ZM261.1,218h0a1.873,1.873,0,0,1,.5,1.1,38.485,38.485,0,0,0,5.1,9,57.848,57.848,0,0,0,7,7.6c.7.6,1.4,1.2,1.5,1.3.2.2.2.2-4.7,2-5.8,2.2-12,4.4-19.2,6.7-1.7.6-3.4,1.1-5.1,1.7-.3.1-.2-.1.6-1.3a161.836,161.836,0,0,0,12-24.3c.5-1.3,1-2.7,1.1-3a1.12,1.12,0,0,1,.7-.8C260.8,218.1,261,218,261.1,218Zm-6.1,2.5c.1.1-1.5,3.3-3,6.3-3,5.8-6.2,11.4-10.5,18.3-.7,1.2-1.4,2.3-1.5,2.4-.2.2-.2.2-.7-.8a26.871,26.871,0,0,1-2.3-7.1,25.41,25.41,0,0,1,.2-9.1c.4-1.9.4-1.9,1.3-2.3C242.2,226.3,254.8,220.4,255,220.5Zm52.5,2.2V224a160.6,160.6,0,0,1-1.8,22.9,12.048,12.048,0,0,1-.4,2.2s-.9-.2-1.9-.5a73.8,73.8,0,0,1-14-6c-3-1.6-7.3-4.3-7.1-4.4,0,0,1.3-.7,2.8-1.5a184.134,184.134,0,0,0,16.7-9.8c1.9-1.2,4.7-3.3,5.3-3.8Zm-75.5,9c.1,0,.1.2-.1,1.3a31.06,31.06,0,0,0-.3,3.3,22.822,22.822,0,0,0,2.7,12.2c.6,1.2,1.1,2.3,1.1,2.3-.2.2-20.4,6.1-26.7,7.8-1.9.5-3.5,1-3.7,1-.2.1-.2,0-.2-.5.7-4.5,4.1-10.3,8.9-15.3a40.912,40.912,0,0,1,10-7.7c3.1-1.6,7.8-4.3,8.3-4.4Zm47.5,8.5s.8.4,1.6.9a91.119,91.119,0,0,0,23.3,9.1l.7.2-1,.5c-4.1,2.3-17.4,7.8-31,12.9-2,.7-3.9,1.5-4.3,1.6a1.727,1.727,0,0,1-.7.2s.5-1.1,1.2-2.4a156.846,156.846,0,0,0,9.6-21.8,10.717,10.717,0,0,0,.6-1.2Zm-4.8,1.6a13.359,13.359,0,0,1-.5,1.4,199.316,199.316,0,0,1-10.6,21.3c-1.1,2-2.1,3.6-2.1,3.6s-.9-.5-2-1.2c-6.5-4-12.2-8.8-15.9-13.6l-.5-.7,2.8-.8a200.054,200.054,0,0,0,26.8-9.2A18.833,18.833,0,0,1,274.7,241.8Zm30.1,10.5h0c0,.7-1.5,7-2.8,11.5-1.1,3.8-2,6.8-3.7,12.1-.7,2.3-1.4,4.2-1.4,4.2a1,1,0,0,1-.4-.1,121.61,121.61,0,0,1-24.8-7c-2.1-.9-5.2-2.2-5.4-2.4a29.042,29.042,0,0,1,4.1-1.9c13.9-6.1,28.2-12.9,33.2-15.9A5.939,5.939,0,0,1,304.8,252.3Zm-69.5,2.4c.1.1-3.8,5.6-9.2,13.2-1.9,2.7-4.1,5.8-4.9,6.9-.8,1.2-2.1,3-2.8,4.1l-1.3,2-1.4-1.2a52.039,52.039,0,0,1-5.7-5.8,25.708,25.708,0,0,1-5.1-9.8c-.3-1.5-.3-2.2,0-2.3.5-.1,8.6-2,16.2-3.8,4.2-1,9.1-2.1,10.9-2.6C233.8,255,235.2,254.7,235.3,254.7Zm3.9,1.5,1,1.1A58.743,58.743,0,0,0,254.5,269c1,.5,1.7,1,1.6,1.1-.2.2-18.8,6.8-27.5,9.7-4.8,1.7-8.8,3.1-8.9,3.1l-.6-.4-.5-.4.9-1.3c2.9-4.1,6.5-8.7,14.3-18.1l5.4-6.5Zm24.3,17.4s1.4.5,3,1.1a105.794,105.794,0,0,0,11.3,3.5,134.2,134.2,0,0,0,17.1,3c.7.1,1,.1.9.2-.2.1-4.7,1.6-8,2.7-5.2,1.6-21.2,6.4-34.3,10.1-2.4.7-4.5,1.3-4.6,1.3a2.269,2.269,0,0,1-1.3-.3,13.456,13.456,0,0,1,1.6-2,193.427,193.427,0,0,0,12.4-16.6A28.871,28.871,0,0,1,263.5,273.6Zm-5.4.1s-2.1,3.5-5.9,9.5c-1.6,2.5-3.4,5.4-4.1,6.4-.6,1-1.5,2.5-2,3.4l-.9,1.6-.5-.1c-1.1-.3-8.8-3-10.8-3.8a67.745,67.745,0,0,1-7.1-3.3c-2.4-1.3-5.5-3.3-5.2-3.3.1,0,4.2-1.2,9.3-2.5,13.3-3.6,20.7-5.7,25.6-7.3A8.831,8.831,0,0,1,258.1,273.7Zm37.9,8.9h0c.2.3-4.8,14-6.6,18.3-.4,1-.5,1.2-.8,1.2-.5,0-7.7-1-12-1.7-7.6-1.2-20.3-3.4-23.5-4.1l-.7-.2,4.5-1c9.8-2.2,14.4-3.4,19.2-4.8a131.621,131.621,0,0,0,17.9-6.9A18.831,18.831,0,0,1,296,282.6Z" fill="rgba(147,159,171,0.39)"></path>
      <path d="M273.4,102.5c-.7-.1-11.5,3.8-18.5,6.6-9.4,3.8-16.7,7.5-21.2,10.7-1.7,1.2-3.8,3.3-4.1,4.1a3.553,3.553,0,0,0-.2,1l4.1,3.9,9.7,3.1,23.1,4.1,26.4,4.5.3-2.3h-.2l-3.5-.5-.7-1.2c-3.6-6.3-7.6-14.2-9.9-19.5a92.834,92.834,0,0,1-4.4-12.3c-.5-2.1-.6-2.2-.9-2.2Zm-.5,1.5h0a6.773,6.773,0,0,1,.3,1.9,60.752,60.752,0,0,0,3,12.8c1.1,3.4,1.1,3.2-.2,2.8-3.1-.9-17-3.3-27.1-4.7a15.9,15.9,0,0,1-3-.5c-.1-.1,7.3-4,10.5-5.5C260.6,108.9,272.1,104.2,272.9,104Zm-29.4,13.7,1.2.4c6.5,2.2,22.7,5.3,31.7,6,1,.1,1.9.2,1.9.2a18.108,18.108,0,0,1-1.9,1c-4.3,2.2-9.1,4.8-12.4,6.9a16.53,16.53,0,0,1-2,1.1c-.1,0-.8-.1-1.4-.2l-1.2-.2-3-3c-5.4-5.2-9.6-9.2-11.2-10.8Zm-1.2.9,4.3,5.4c2.3,3,4.7,5.8,5.2,6.5.5.6.9,1.2.9,1.2-.1.1-6.2-1.1-9.4-1.8a65.417,65.417,0,0,1-6.7-1.8l-1.7-.5v-.4c0-2,2.6-5.1,7-8.2Zm36.5,7.3c.1,0,.3.3.6,1.1,1,2.3,4.3,8.4,5.1,9.6.2.4.7.4-3.6-.3-10.3-1.7-13.6-2.2-13.6-2.3,0,0,.3-.2.7-.5a64.069,64.069,0,0,0,9.3-6.4,14.583,14.583,0,0,1,1.5-1.2Z" fill="rgba(147,159,171,0.39)"></path>
      <path d="M229.8,123.4a2.978,2.978,0,0,0,0,2.7,11.919,11.919,0,0,0,2.9,3.4s13.6,13.2,15.2,15.1c7.5,8.7,10.8,17.2,11.1,28.9a46.052,46.052,0,0,1-4.8,21.9q-9.45,20.7-40.3,46l3-1c1.9-1.5,4.6-3,10.8-6.4,14.4-7.9,30.5-15.1,50.3-22.5,28.5-10.7,75.4-23.3,102.1-27.4l2.8-.4-.4-.7a86.364,86.364,0,0,0-6.1-8.6,71.886,71.886,0,0,0-21.6-18c-11.9-6.7-27.4-11.9-47-15.8-3.7-.7-11.8-2.1-18.4-3.1-14-2.2-23-3.7-32.9-5.4-3.6-.6-8.9-1.5-12.4-2.3a73.414,73.414,0,0,1-8.1-2.2C233.6,126.9,230.5,126,229.8,123.4Zm7.9,7.7s.5.2,1.2.4c1.2.4,2.7.9,4.4,1.3,1.3.4,2.7.7,4,1.1,1.8.5,3.4.9,3.4.9.2.2,3.3,10.1,4.3,13.8.4,1.4.7,2.7.7,2.7a10.329,10.329,0,0,1-.8-1.2,65.163,65.163,0,0,0-15.7-17.8C238.3,131.6,237.7,131.1,237.7,131.1Zm15,4.1a9.435,9.435,0,0,1,1.6.3c5.2,1.2,14.5,2.9,20.4,3.9a7.966,7.966,0,0,1,1.8.4c0,.1-.4.3-.8.5-1,.5-5.1,2.9-6.4,3.8a60.067,60.067,0,0,0-8.6,6.9l-1.6,1.6a5.753,5.753,0,0,1-.3-1.2,96.878,96.878,0,0,0-5.5-14.9c-.4-.6-.7-1.3-.6-1.3Zm26.3,5c.2.1.5,1.1,1.1,3.4a54.639,54.639,0,0,1,1.5,14,21.733,21.733,0,0,1-.2,2.6l-.1.3-1.6-.5c-3.3-1-8.6-2.6-13.1-3.9a40.038,40.038,0,0,1-4.7-1.4,66.188,66.188,0,0,1,5.4-5.4C270.4,146.6,278.8,140.1,279,140.2Zm2.1.3c.1-.1,12.6,2.1,18.3,3.2,4.2.8,10.4,2.1,10.8,2.3.2.1-.5.4-2.5,1.3a141.649,141.649,0,0,0-20,10.8c-1.6,1-2.9,1.9-2.9,1.9s-.1-.9-.1-1.9a43.5,43.5,0,0,0-3.3-16.6C281.3,141,281.1,140.6,281.1,140.5Zm32.4,6.4a19.228,19.228,0,0,1-.7,4c-1.1,4.5-4.1,11.3-7.7,17.6a17.821,17.821,0,0,1-1.3,2.1,9.073,9.073,0,0,1-1.8-1,94.206,94.206,0,0,0-11.9-5.8,16.14,16.14,0,0,1-2.3-1c-.2-.2,9.6-6.7,14.8-9.8C306.7,150.5,313.4,146.8,313.5,146.9Zm2.3.4c.3,0,5.8,1.5,8.7,2.4a157.014,157.014,0,0,1,20.7,7.6l2.2,1-1.6.4a223.09,223.09,0,0,0-35.1,10.9c-.9.4-1.7.7-1.7.7a5.162,5.162,0,0,1,.6-1.6,60.056,60.056,0,0,0,5.9-20.3,10.223,10.223,0,0,0,.3-1.1ZM260.6,160a55.456,55.456,0,0,1,6.6,1.6c3.5,1,10.8,3.4,10.8,3.6,0,0-.8.7-1.8,1.6-4,3.3-7.8,6.8-12.4,11.3-1.4,1.3-2.5,2.4-2.6,2.4s-.1-.2-.1-.4a72.127,72.127,0,0,0-.4-18.4A13.3,13.3,0,0,0,260.6,160Zm89,.1c.1.1-2,3.2-3.2,5-1.8,2.6-4.5,6.1-10.6,13.7-3.2,4-6.8,8.6-8,10.1s-2.2,2.8-2.3,2.8c0,0-.4-.5-.9-1.2a63.435,63.435,0,0,0-12.3-13.6,16.668,16.668,0,0,0-2.3-1.8,4.676,4.676,0,0,1-.6-.5c0-.1,5.2-2.3,9.1-3.9,6.9-2.8,16.3-6.2,23.3-8.3A70.872,70.872,0,0,1,349.6,160.1Zm2.4.6a5.384,5.384,0,0,1,1.7.9,101.662,101.662,0,0,1,20.4,15.3c1.6,1.6,5.6,5.7,5.5,5.8,0,0-1.4.1-3,.2a305.252,305.252,0,0,0-45,7.5c-1.1.2-2,.5-2.1.5a25.94,25.94,0,0,1,2.6-2.6c9.3-8.9,13.5-14.6,18.5-24.6a23.425,23.425,0,0,1,1.4-3Zm-67.9,6.9c.4.1,4.4,2,7.4,3.4,2.7,1.4,6.9,3.6,7.1,3.7,0,0-1.4.8-3.2,1.7-5.7,2.9-10.6,5.6-15.8,8.7-1.5.9-2.7,1.6-2.7,1.6-.1,0-.1-.1.7-1.6a67.5,67.5,0,0,0,6.2-16.8C283.9,167.9,284,167.6,284.1,167.6Zm-3.9.8a46.7,46.7,0,0,1-1.6,5.9,75.118,75.118,0,0,1-5.4,12.4c-.5.9-1.2,2.1-1.6,2.8l-.8,1.2-1.7-1.6a23.848,23.848,0,0,0-5.7-4.2,5.789,5.789,0,0,1-1.5-.9c0-.2,5.2-5,9.2-8.4C274,173.1,280.1,168.3,280.2,168.4Zm24.2,9.9,1.5,1a114.155,114.155,0,0,1,10.5,7.8c1.7,1.4,5.1,4.4,5.8,5.2l.4.4-2.5.7c-14,3.9-24.7,7.3-37.3,11.9-1.4.5-2.6.9-2.7.9-.2,0-.3.2,2.8-2.7A137.454,137.454,0,0,0,303.4,180Zm-6.4,1.6c.1.1-4.1,5.9-6.6,9.3-3,4-8.3,10.6-11.9,14.9a40.025,40.025,0,0,1-2.9,3.3c-.1,0-.1-.4-.1-1.1a25.032,25.032,0,0,0-2.6-11c-.7-1.4-.8-1.7-.7-1.9.6-.5,9.4-5.6,15.1-8.6,3.7-2,9.6-5,9.7-4.9Zm-38.5,9.4c.1,0,.8.4,1.6.8a42.769,42.769,0,0,1,5.2,3.5c.1.1-.7.7-1.8,1.5-2.9,2.1-7.3,5.4-9.8,7.4-2.7,2.1-2.8,2.2-2.5,1.7a67.36,67.36,0,0,0,4.1-7c.9-2,1.9-4.3,2.6-6.4A3.75,3.75,0,0,1,259.5,189.3Zm10.3,8.1c.2,0,.3.2,1.2,1.5a22.183,22.183,0,0,1,3.4,8.9l.1.6-4.2,1.6c-7.5,2.9-14.4,5.8-19,7.9-1.3.6-3.6,1.7-5.1,2.4-1.5.8-2.7,1.3-2.7,1.3s.9-.7,2.1-1.6a124.072,124.072,0,0,0,22.9-21.1,7.912,7.912,0,0,1,1.3-1.5Zm-4.7,1.1a79.417,79.417,0,0,1-5.7,6.5,103.761,103.761,0,0,1-18.9,15.3c-.9.6-1.7,1.1-1.8,1.2-.2.1.1-.2,3.2-3.6,2-2.2,3.5-4,5.3-6.2a11.845,11.845,0,0,1,3-2.9C254.6,205.4,264.9,198.4,265.1,198.5Z" fill="#ac0f08"></path>
    </g>
  </symbol>
  <symbol xmlns="http://www.w3.org/2000/svg" viewBox="0 0 207.642 228.66" id="node">
    <g transform="translate(-29.302 4)">
      <path d="M95.9,2.529a19.024,19.024,0,0,1,18.652,0l85.685,48.3A17.619,17.619,0,0,1,209.138,66v96.848a17.817,17.817,0,0,1-9.556,15.5l-85.226,48.08a18.652,18.652,0,0,1-18.932-.524L69.849,211.118c-1.743-1.04-3.7-1.865-4.936-3.551,1.09-1.463,3.027-1.65,4.606-2.3a54.589,54.589,0,0,0,10.087-4.706,2.319,2.319,0,0,1,2.626.158l21.809,12.612c1.557.9,3.135-.287,4.469-1.04l83.684-47.226a2.769,2.769,0,0,0,1.521-2.726V66.427a2.991,2.991,0,0,0-1.793-2.992L106.91,15.564a2.941,2.941,0,0,0-3.336-.007L18.685,63.529a2.962,2.962,0,0,0-1.793,2.977v95.915a2.691,2.691,0,0,0,1.542,2.69l22.684,12.805c4.261,2.3,9.491,3.587,14.183,1.9a10.761,10.761,0,0,0,6.966-10.108l.022-95.341a2.383,2.383,0,0,1,2.6-2.439H75.8a2.554,2.554,0,0,1,2.367,2.905l-.022,95.944c.007,8.523-3.494,17.791-11.378,21.974-9.713,5.022-21.723,3.967-31.321-.861L11.052,178.4a17.558,17.558,0,0,1-9.556-15.5V66.061a17.648,17.648,0,0,1,9.2-15.359Zm24.707,67.133c12.389-.717,25.654-.473,36.8,5.632,8.63,4.677,13.415,14.491,13.573,24.09a2.6,2.6,0,0,1-2.827,1.915c-3.587-.007-7.188.05-10.79-.022-1.528.057-2.41-1.349-2.6-2.7-1.033-4.591-3.537-9.132-7.855-11.349-6.629-3.322-14.319-3.157-21.55-3.085-5.28.287-10.955.739-15.424,3.838-3.443,2.353-4.477,7.174-3.25,10.919,1.148,2.748,4.326,3.63,6.916,4.448,14.936,3.9,30.755,3.587,45.411,8.659,6.062,2.095,11.995,6.17,14.075,12.518,2.712,8.508,1.528,18.681-4.52,25.51-4.907,5.624-12.052,8.609-19.19,10.345-9.491,2.116-19.334,2.167-28.968,1.22-9.061-1.033-18.487-3.415-25.482-9.584-5.983-5.194-8.9-13.286-8.609-21.091a2.422,2.422,0,0,1,2.654-2.131H99.736a2.529,2.529,0,0,1,2.583,2.511c.667,4.3,2.31,8.967,6.127,11.478,7.36,4.749,16.593,4.419,25.015,4.555,6.98-.308,14.814-.4,20.517-5.022,3.013-2.633,3.9-7.03,3.085-10.818-.882-3.2-4.3-4.685-7.174-5.739-14.742-4.663-30.74-2.97-45.339-8.25-5.926-2.095-11.658-6.055-13.932-12.145C87.44,96.759,88.9,86.091,95.589,79.491c6.457-6.564,15.926-9.1,24.893-10Z" transform="translate(27.806 -4.086)" fill="#8cc84b"></path>
    </g>
  </symbol>
  <symbol xmlns="http://www.w3.org/2000/svg" viewBox="0 0 331.235 138.015" id="npm">
    <g transform="translate(0 -15)">
      <path d="M0,15H331.235V132.312H165.617v20.7H89.709v-20.7H0Z" fill="#d50000"></path>
      <path d="M3,93.908H37.5V38.7h20.7V93.908h13.8V18H3ZM92.709,18v96.61h34.5v-20.7h34.5V18Zm55.206,55.206h-20.7V38.7h20.7ZM182.419,18V93.908h34.5V38.7h20.7V93.908h20.7V38.7h20.7V93.908h13.8V18Z" transform="translate(17.702 17.702)" fill="#fff"></path>
    </g>
  </symbol>
  <symbol xmlns="http://www.w3.org/2000/svg" viewBox="0 0 195.395 204.023" id="postgres">
    <g transform="translate(-1.836 -2.984)">
      <path d="M196.975,126.994c-.848-3.843-3.968-8-11-8a22.481,22.481,0,0,0-5,0c-3.282.677-6.539,1.889-9,2,19.157-32.632,32.316-78.263,20-94-16.228-20.733-38.426-24-50-24h-1a66.848,66.848,0,0,0-13,2l-17,3a67.8,67.8,0,0,0-7,0h-1c-7.384,0-14,1.057-20,4l-6-2c-7.973-3.143-19.134-7-31-7-.667,0-1.333-.023-2,0-11.69.422-22.69,5.032-30,13-9.122,9.947-12.941,24.246-12,43,.046.969,11.836,97,44,97h0a19.032,19.032,0,0,0,12-5,22.652,22.652,0,0,0,10,4,51.541,51.541,0,0,0,11,1c5.952,0,11.374-.8,16-3,0,4.079.046,9.4,0,16h0c.45,6.577,1.29,12.351,3,17,4.872,13.252,13.594,21,24,21,.431,0,.555.028,1,0,8.557-.528,18.034-5.486,24-13,6.457-8.135,7.425-16.423,8-23v-1h0v-19h3c.575.028,1.4,0,2,0,6.985,0,15.187-1.3,21-4C186.532,144.417,199.181,137,196.975,126.994Z" transform="translate(0 0)" fill="#fff"></path>
      <path d="M97.51,136.071c0-.95-.028-2.124,0-3-.046-1.163,0-2,0-2h0c.691-12.39,4.343-17.279,8-20-.51-.709-1.448-1.272-2-2-1.544-2.026-2.942-4.779-5-8l-1-1c-.311-.76-1.045-1.276-2-3-5.483-9.919-16.81-30.966-9-44,3.421-5.711,9.734-9.189,19-10-3.787-10.768-17.832-36.467-50-37h0c-28-.454-37.006,24.8-40,40a34.336,34.336,0,0,1,13-3h0c10.615.079,17.877,6.2,20,16a86.052,86.052,0,0,1,2,19c-.046,12.6-1.757,19.15-4,25l-1,2c-.575,1.548-1.425,2.647-2,4-.584,1.381-.625,2.892-1,4a23.506,23.506,0,0,1,5,2h1c.218.093-.2.879,0,1,3.931,2.392,6.476,5.717,7,10,.283,2.308.1,18.271,0,32a48.513,48.513,0,0,0,3,14c1.9,5.164,6.9,15.566,16,15,6.35-.394,11.949-4.9,16-10a32,32,0,0,0,7-18Z" transform="translate(48.465 10.923)" fill="#0277bd"></path>
      <path d="M55.705,115.725c-7.477-7.8-11.367-18.224-10-28,1.321-9.433.4-19.036,0-24a20.325,20.325,0,0,1,0-3c0-.037,0,.037,0,0h0c.561-14,6.135-35.868,21-49-7.24-2.851-18.931-7.4-30-7-17.345.63-34.687,13.274-33,47,.635,12.654,15.449,88.477,35,88,2.8-.07,6.02-2.412,9-6,4.714-5.669,8.741-10.422,12-14A36.612,36.612,0,0,1,55.705,115.725Zm101-66a7.387,7.387,0,0,1,0,2c.144,4.264.468,9,0,13-.343,2.948-.9,5.945-1,9-.1,2.99.555,5.876,1,9,1.043,7.314,1.673,15.368-4,25,1.043,1.372,2.268,2.767,3,4,21.368-34.648,29.218-75.5,21-86a53.286,53.286,0,0,0-43-21c-4.269.07-7.686,1.282-11,2C146.233,18.128,155.963,41.822,156.705,49.725Zm19,72c-12.353,2.549-18.117.775-21-1-.464.334-1.569.736-2,1-1.724,1.043-4.333,2.807-5,13,.385.074.583-.088,1,0h2c6.118.278,14.3-1.817,19-4C179.833,126.025,185.685,119.667,175.705,121.725Zm-88,9a3.664,3.664,0,0,0-2-3l-1-1a12.885,12.885,0,0,0-6-1h0c-.589.046-1.411,0-2,0-.241,0-.759.009-1,0-2.2,1.692-5.268,2.41-13,4-13.813,3.518-5.3,8.356,0,9,5.127,1.284,16.907,2.6,25-4C87.682,132.649,87.761,131.235,87.705,130.725Z" transform="translate(7.27 7.269)" fill="#0277bd"></path>
      <path d="M41.813,27.587a7.008,7.008,0,0,1-6,2c-3.838-.621-7.213-5.262-7-7h0c.2-1.734,4.167-2.621,8-2a10.1,10.1,0,0,1,3,1c-1.483-3.189-3.907-4.55-8-5-7.254-.807-15.452,2.9-17,5,.032.51.94,1.231,1,2a121.18,121.18,0,0,1-1,25c-.964,6.883,2.558,15.317,8,21a18.731,18.731,0,0,0,11,6c.515-2.216,2.054-3.77,3-6,.524-1.228.476-2.586,1-4l1-2c2.053-5.354,3.958-11.093,4-22A71.227,71.227,0,0,0,41.813,27.587Zm65,16c-.482-3.379-.12-7.2,0-11,.107-3.439-.366-5.862,0-9,.287-2.471.87-5.659,1-8-5.975.5-10.118,3.084-12,6a17.246,17.246,0,0,1,3-1c4.135-.538,6.652.7,7,3a5.184,5.184,0,0,1-1,4,8.515,8.515,0,0,1-6,2,6.384,6.384,0,0,1-4-1c.519,9.145,6.681,21,10,27,.709,1.284,1.546,2.119,2,3C108.635,53.4,107.564,48.853,106.813,43.587Z" transform="translate(47.161 47.407)" fill="#0277bd"></path>
    </g>
  </symbol>
  <symbol xmlns="http://www.w3.org/2000/svg" viewBox="0 0 207.854 155.672" id="powershell">
    <g transform="translate(0.018 -6)">
      <path d="M85.971,161.641c-24.366-.009-48.736.1-73.1-.056-12.358-.082-14.6-3.03-11.821-15.258C10.475,104.859,20.21,63.464,29.43,21.948,31.9,10.815,37.234,5.893,49.026,6c48.732.459,97.468.147,146.2.2,12.224.013,14.276,2.658,11.531,15.2Q193.4,82.471,179.768,143.479c-3.415,15.219-7.346,18.124-23.171,18.159Q121.281,161.709,85.971,161.641Z" transform="translate(0 0)" fill="#0277bd"></path>
      <path d="M75.178,70.262c-2.632-2.974-4.822-5.484-6.627-7.5C58.032,50.956,48.4,39.952,37.978,28.7c-4.77-5.147-6.289-10.146-.563-15.228,5.658-5.021,11.22-4.58,16.41,1.2,14.458,16.09,28.9,32.2,43.594,48.065,5.489,5.926,4.207,9.956-1.835,14.349q-34.8,25.29-69.3,50.983c-5.177,3.84-10.116,4.8-14.3-.87-4.614-6.255-.346-9.977,4.441-13.479Q42.1,94.937,67.646,75.954C70.018,74.192,73.178,71.755,75.178,70.262Zm-14.315,56.61c-4.87,0-7.575-4.329-7.575-8.657s2.705-8.657,7.575-8.657h41.122c4.87,0,7.575,4.329,7.575,8.657s-2.705,8.657-7.575,8.657Z" transform="translate(33.345 13.317)" fill="#fafafa"></path>
    </g>
  </symbol>
  <symbol xmlns="http://www.w3.org/2000/svg" viewBox="0 0 234.897 234.893" id="python">
    <g transform="translate(-4.563 -5)">
      <path d="M125,5a132.834,132.834,0,0,0-24.33,2.269C76.887,11.41,72.554,20.108,72.554,36.136v24.5h55.632V73H43.551C27.257,73,13,80.673,8.478,99.074c-5.106,21.122-5.335,34.35,0,56.4,4.049,16.449,12.968,28.78,29.269,28.78H60.2V152.71c0-18.334,16.6-36.445,35.629-36.445h44.728c15.6,0,30.907-11.51,30.907-27.056V36.136c0-15.076-10.873-26.351-26.073-28.879A105.182,105.182,0,0,0,125,5ZM94.2,29.726a9.272,9.272,0,1,1,0,18.544,9.272,9.272,0,1,1,0-18.544Z" transform="translate(0 0)" fill="#0277bd"></path>
      <path d="M62.021,193.259a132.835,132.835,0,0,0,24.33-2.269c23.786-4.142,28.119-12.839,28.119-28.867v-24.5H58.838V125.264h84.641c16.294,0,30.554-7.677,35.073-26.079,5.106-21.122,5.335-34.35,0-56.4C174.5,26.332,165.577,14,149.277,14H126.826V45.55c0,18.334-16.6,36.445-35.629,36.445H46.469c-15.6,0-30.907,11.51-30.907,27.056v53.073c0,15.076,10.873,26.351,26.073,28.879A105.184,105.184,0,0,0,62.021,193.259Zm30.814-24.725a9.272,9.272,0,1,1,0-18.544,9.272,9.272,0,1,1,0,18.544Z" transform="translate(56.992 46.633)" fill="#ffc107"></path>
    </g>
  </symbol>
  <symbol xmlns="http://www.w3.org/2000/svg" viewBox="0 0 267.883 259.823" id="qlik">
    <g transform="translate(-682.327 -2.549)">
      <path d="M883.73,127.3a76.652,76.652,0,1,1-76.643-76.662A76.655,76.655,0,0,1,883.73,127.3M947.5,223.129l-34.92-29.3a124.712,124.712,0,1,0-33.7,35.478L916.1,260.544s5.536,4.648,10.169-.877l22.119-26.356s4.637-5.538-.886-10.182" transform="translate(0 0)" fill="#61a730"></path>
      <path d="M775.434,144.779a49.13,49.13,0,1,1,49.131,49.141,49.119,49.119,0,0,1-49.131-49.141" transform="translate(-17.486 -17.484)" fill="#606163"></path>
    </g>
  </symbol>
  <symbol xmlns="http://www.w3.org/2000/svg" viewBox="0 0 202.045 258" id="raspberrypi">
    <g transform="translate(-7.555 -2.987)">
      <path d="M62.245,2.989a7.292,7.292,0,0,0-4.306,1.781c-3.9-1.505-7.685-2.027-11.07,1.032-5.234-.67-6.929.725-8.213,2.353-1.149-.012-8.582-1.173-12,3.919-8.57-1.02-11.279,5.043-8.207,10.683-1.751,2.709-3.563,5.387.528,10.56-1.45,2.887-.553,6,2.856,9.78-.9,4.048.872,6.9,4.048,9.129-.6,5.529,5.074,8.748,6.77,9.89.651,3.231,2,6.272,8.477,7.955C42.2,74.887,46.1,75.7,49.861,76.724,37.4,83.96,26.714,93.488,26.794,116.869l-1.824,3.25c-14.289,8.686-27.14,36.612-7.04,59.311,1.315,7.1,3.514,12.2,5.473,17.845,2.936,22.76,22.072,33.418,27.115,34.684,7.4,5.627,15.278,10.978,25.936,14.719C86.5,257.046,97.389,261,108.336,260.984c.16,0,.326.006.485,0,10.941.012,21.832-3.944,31.876-14.307,10.658-3.735,18.54-9.086,25.942-14.719,5.043-1.265,24.185-11.924,27.109-34.684,1.96-5.645,4.165-10.744,5.48-17.845,20.094-22.7,7.249-50.625-7.04-59.311l-1.824-3.256c.074-23.374-10.621-32.9-23.073-40.139,3.766-1.02,7.66-1.843,8.729-6.659,6.481-1.671,7.832-4.724,8.484-7.955,1.7-1.143,7.359-4.355,6.776-9.9,3.176-2.218,4.945-5.074,4.036-9.116,3.422-3.778,4.312-6.9,2.863-9.78,4.1-5.172,2.279-7.845.534-10.56,3.065-5.639.362-11.7-8.213-10.683-3.409-5.093-10.849-3.932-12-3.919-1.284-1.628-2.986-3.022-8.213-2.353-3.385-3.059-7.169-2.537-11.07-1.032C154.575,1.109,151.5,4.04,148,5.152c-5.6-1.831-6.892.682-9.645,1.7-6.125-1.3-7.98,1.517-10.916,4.491l-3.416-.068c-9.233,5.443-13.816,16.525-15.444,22.213-1.622-5.7-6.2-16.777-15.431-22.213l-3.416.068c-2.943-2.973-4.8-5.787-10.922-4.491-2.752-1.02-4.036-3.532-9.651-1.7-2.31-.731-4.429-2.236-6.917-2.162Z" transform="translate(0 0)" fill="#37474f"></path>
      <path d="M30.654,21.46C55.146,34.084,69.386,44.3,77.187,53c-3.993,16.015-24.83,16.746-32.454,16.3,1.56-.731,2.869-1.6,3.323-2.943-1.91-1.358-8.692-.141-13.429-2.8,1.818-.381,2.672-.737,3.52-2.082-4.466-1.425-9.282-2.66-12.12-5.019,1.53.018,2.955.338,4.951-1.044-4.005-2.156-8.281-3.864-11.6-7.163,2.07-.055,4.306-.025,4.951-.792A45.015,45.015,0,0,1,15.008,39.9c2.9.356,4.122.055,4.828-.461-2.777-2.832-6.284-5.222-7.949-8.729,2.15.743,4.122,1.032,5.541-.068-.946-2.119-4.976-3.379-7.3-8.336,2.267.221,4.675.5,5.154,0a24.61,24.61,0,0,0-4.626-9.19c4.853-.061,12.194.025,11.862-.387l-3-3.065c4.736-1.272,9.589.209,13.1,1.308,1.579-1.247-.031-2.82-1.953-4.429A47.585,47.585,0,0,1,41.613,9.273c1.757-1.585-1.143-3.17-2.537-4.749A27.922,27.922,0,0,1,50.539,9.008c1.9-1.812.111-3.366-1.167-4.957,4.693,1.738,7.1,3.981,9.645,6.2.866-1.167,2.193-2.015.59-4.816A24.448,24.448,0,0,1,67.3,12.141c2.058-1.315,1.229-3.108,1.235-4.761,3.459,2.82,5.658,5.811,8.342,8.742.541-.393,1.014-1.732,1.431-3.846,8.256,8,19.916,28.172,3,36.176C66.9,36.56,49.71,27.929,30.654,21.46Zm129.968,0C136.136,34.084,121.89,44.3,114.095,53c3.993,16.015,24.836,16.746,32.454,16.3-1.56-.731-2.863-1.6-3.33-2.943,1.917-1.358,8.692-.141,13.429-2.8-1.818-.381-2.666-.737-3.52-2.082,4.478-1.425,9.3-2.66,12.126-5.019-1.53.018-2.955.338-4.951-1.044,4.005-2.156,8.281-3.864,11.6-7.163-2.076-.055-4.306-.025-4.957-.792a44.7,44.7,0,0,0,9.325-7.556c-2.906.356-4.122.055-4.822-.461,2.771-2.832,6.272-5.222,7.943-8.729-2.15.743-4.116,1.032-5.529-.068.934-2.119,4.982-3.379,7.3-8.336-2.267.221-4.669.5-5.148,0a24.522,24.522,0,0,1,4.632-9.19c-4.847-.074-12.194.025-11.868-.387l3-3.065c-4.736-1.272-9.583.209-13.1,1.308-1.585-1.247.031-2.82,1.953-4.429a47.273,47.273,0,0,0-10.947,2.734c-1.757-1.585,1.143-3.17,2.543-4.755a27.946,27.946,0,0,0-11.469,4.491c-1.9-1.812-.111-3.366,1.167-4.957-4.687,1.738-7.1,3.981-9.645,6.192-.86-1.161-2.187-2.009-.584-4.81A24.3,24.3,0,0,0,124,12.141c-2.058-1.321-1.229-3.108-1.241-4.761-3.459,2.82-5.652,5.811-8.342,8.742-.541-.393-1.014-1.732-1.425-3.846-8.262,8-19.922,28.172-3,36.176,14.381-11.9,31.569-20.524,50.625-26.992Z" transform="translate(13.211 5.474)" fill="#64dd17"></path>
      <g transform="translate(15.726 75.48)">
        <path d="M131.67,129.284c.086,14.946-12.98,27.115-29.179,27.2S73.078,144.519,73,129.573v-.289c-.086-14.946,12.974-27.115,29.179-27.2S131.584,114.049,131.67,129ZM85.352,52c12.157,7.961,14.344,26.01,4.9,40.317S63.274,111.764,51.117,103.8h0c-12.157-7.968-14.344-26.016-4.9-40.317S73.2,44.037,85.352,52Zm32.822-1.45c-12.163,7.955-14.356,26.016-4.9,40.317s26.974,19.449,39.125,11.481h0c12.157-7.968,14.356-26.01,4.9-40.323s-26.974-19.437-39.125-11.475ZM24.6,65.028c13.121-3.52,4.429,54.292-6.247,49.55C6.6,105.123,2.82,77.449,24.6,65.028ZM176.281,64.3c-13.134-3.514-4.435,54.3,6.241,49.55C194.273,104.4,198.058,76.73,176.281,64.3Zm-44.6-43.056c22.649-3.833,41.5,9.626,40.741,34.186C171.673,64.856,123.334,22.635,131.682,21.247ZM69.1,20.516C46.448,16.7,27.6,30.16,28.363,54.714,29.106,64.137,77.439,21.922,69.1,20.516ZM101.631,14.8C88.116,14.44,75.136,24.834,75.105,30.848c-.037,7.31,10.695,14.817,26.618,15,16.267.117,26.642-6,26.7-13.545.055-8.557-14.792-17.643-26.8-17.508Zm.829,150.086c11.788-.516,27.6,3.8,27.637,9.516.19,5.559-14.35,18.1-28.418,17.858C87.1,192.889,72.814,180.32,73,175.971,72.783,169.57,90.751,164.594,102.46,164.883Zm-43.536-33.9C67.316,141.1,71.137,158.869,64.14,164.1c-6.628,4.005-22.717,2.359-34.155-14.068-7.709-13.791-6.72-27.809-1.3-31.938,8.1-4.933,20.61,1.72,30.242,12.894Zm85.394-3.194c-9.086,10.634-14.135,30.027-7.513,36.275,6.327,4.859,23.337,4.183,35.888-13.244,9.116-11.709,6.069-31.25.866-36.453-7.746-5.971-18.853,1.677-29.241,13.422Z" transform="translate(-8.885 -14.788)" fill="#ff4081"></path>
      </g>
    </g>
  </symbol>
  <symbol xmlns="http://www.w3.org/2000/svg" viewBox="0 0 258 230" id="react">
    <g transform="translate(-175.7 -78)">
      <path d="M433.7,193c0-17.1-21.176-32.953-54-43,7.575-33.456,3.834-60.478-11-69a23.905,23.905,0,0,0-12-3V90c2.42,0,4.369.106,6,1,7.154,4.1,10.42,19.906,8,40-.579,4.945-.843,9.687-2,15-10.31-2.525-22.164-3.738-34-5a268.3,268.3,0,0,0-22-27c17.149-15.939,33.059-24,44-24V78h0c-14.466,0-32.852,10.115-52,28-19.148-17.78-38.534-28-53-28V90c10.889,0,27.851,8.166,45,24a261.252,261.252,0,0,0-22,27c-11.888,1.262-23.69,2.422-34,5-1.21-5.26-1.369-10.108-2-15-2.472-20.094-.1-35.844,7-40,1.578-.947,3.58-1,6-1V78h0a23.905,23.905,0,0,0-12,3c-14.781,8.522-17.627,35.65-10,69-32.719,10.1-54,25.957-54,43,0,17.1,21.176,32.953,54,43-7.575,33.456-3.834,60.478,11,69a23.767,23.767,0,0,0,12,3c14.466,0,32.852-10.115,52-28,19.148,17.78,38.534,28,53,28a23.905,23.905,0,0,0,12-3c14.781-8.522,17.627-35.65,10-69C412.314,225.953,433.7,210.043,433.7,193Zm-68-35c-1.946,6.786-5.265,14-8,21-2.157-4.208-3.528-8.792-6-13-2.42-4.208-5.422-8-8-12C351.17,155.1,358.809,156.317,365.7,158Zm-25,56c-4.1,7.1-7.634,13.74-12,20-7.838.684-16,1-24,1-7.943,0-16.215-.369-24-1-4.366-6.26-7.9-12.951-12-20-4-6.891-7.686-13.951-11-21,3.261-7.049,7.055-14.109,11-21,4.1-7.1,7.634-13.74,12-20,7.838-.684,16-1,24-1,7.943,0,16.215.369,24,1,4.366,6.26,7.9,12.951,12,20,4,6.891,7.686,13.951,11,21C348.386,200.049,344.645,207.109,340.7,214Zm17-7c2.841,7.049,6,14.162,8,21-6.891,1.683-14.478,2.9-22,4,2.578-4.05,5.58-7.739,8-12C354.12,215.792,355.543,211.208,357.7,207Zm-53,56c-4.892-5.05-9.161-10.845-14-17,4.734.21,9.108,1,14,1,4.945,0,10.213-.737,15-1A211.6,211.6,0,0,1,304.7,263Zm-39-31c-7.47-1.1-15.109-2.317-22-4,1.946-6.786,5.265-14,8-21,2.157,4.208,3.528,8.792,6,13S263.123,228,265.7,232Zm39-109a222.414,222.414,0,0,1,15,17c-4.734-.21-10.108-1-15-1-4.945,0-10.213.737-15,1A211.611,211.611,0,0,1,304.7,123Zm-39,31c-2.578,4.05-5.58,7.739-8,12-2.42,4.208-3.843,8.792-6,13-2.841-7.049-6-14.162-8-21C250.591,156.369,258.178,155.1,265.7,154Zm-48,66c-18.622-7.943-30-18.741-30-27s11.378-19.11,30-27c4.524-1.946,9.9-3.369,15-5a254.047,254.047,0,0,0,12,32,254.044,254.044,0,0,0-12,32C227.492,223.369,222.277,221.946,217.7,220Zm29,75c-7.154-4.1-10.42-19.906-8-40,.579-4.945.843-10.687,2-16a263.5,263.5,0,0,0,34,6,252.448,252.448,0,0,0,22,26c-17.149,15.939-33.059,25-44,25C250.333,295.947,248.278,295.894,246.7,295Zm124-40c2.472,20.094.1,35.844-7,40-1.578.947-3.58,1-6,1-10.889,0-26.851-9.166-44-25a241.466,241.466,0,0,0,21-26,253.273,253.273,0,0,0,34-6C369.91,244.313,370.121,250.108,370.7,255Zm21-35c-4.524,1.946-9.9,3.369-15,5a254.043,254.043,0,0,0-12-32,254.043,254.043,0,0,0,12-32c5.208,1.631,10.371,3.054,15,5,18.622,7.943,30,18.741,30,27C421.647,201.259,410.322,212.11,391.7,220Z" fill="#61dafb"></path>
      <path d="M320.473,78.19Z" transform="translate(-68.773 -0.19)" fill="#61dafb"></path>
      <circle cx="24" cy="24" r="24" transform="translate(280.7 169)" fill="#61dafb"></circle>
      <path d="M520.124,78.047Z" transform="translate(-163.424 -0.047)" fill="#61dafb"></path>
    </g>
  </symbol>
  <symbol xmlns="http://www.w3.org/2000/svg" viewBox="0 0 256 243.034" id="redux">
    <path d="M177.381,169.733a18.3,18.3,0,0,0-1.955-36.488h-.651a18.227,18.227,0,0,0-17.592,18.9,18.714,18.714,0,0,0,5.212,12.054c-11.076,21.828-28.016,37.791-53.426,51.148-17.266,9.122-35.183,12.38-53.1,10.1-14.66-1.955-26.062-8.471-33.229-19.222-10.425-15.963-11.4-33.229-2.606-50.5a76.684,76.684,0,0,1,22.152-26.063c-1.3-4.235-3.258-11.4-4.235-16.614C-9.286,147.254-4.4,193.515,9.935,215.342c10.75,16.289,32.577,26.389,56.684,26.389a80.079,80.079,0,0,0,19.546-2.281C127.864,231.306,159.464,206.546,177.381,169.733Zm57.336-40.4c-24.759-28.995-61.245-44.958-102.944-44.958h-5.212A17.9,17.9,0,0,0,110.6,74.6h-.652a18.25,18.25,0,0,0,.652,36.488h.651a18.352,18.352,0,0,0,15.963-11.077h5.864a124.157,124.157,0,0,1,69.389,21.176c16.289,10.751,28.017,24.76,34.532,41.7,5.538,13.683,5.212,27.04-.652,38.443-9.121,17.266-24.432,26.714-44.63,26.714a83.321,83.321,0,0,1-31.926-6.842c-3.583,3.258-10.1,8.471-14.659,11.729,14.008,6.515,28.342,10.1,42.024,10.1,31.274,0,54.4-17.267,63.2-34.533C259.8,189.6,259.149,157.027,234.717,129.336ZM69.225,175.271a18.3,18.3,0,0,0,18.243,17.592h.652a18.249,18.249,0,0,0-.652-36.487h-.651a5.556,5.556,0,0,0-2.28.325C71.18,134.548,65.642,110.44,67.6,84.378c1.3-19.547,7.819-36.488,19.221-50.5,9.447-12.054,27.69-17.918,40.069-18.244,34.532-.652,49.192,42.352,50.169,59.618,4.235.977,11.4,3.258,16.289,4.887C189.434,27.366,156.857,0,125.583,0,96.264,0,69.225,21.176,58.475,52.451c-14.985,41.7-5.212,81.771,13.031,113.372A14.636,14.636,0,0,0,69.225,175.271Z" fill="#764abc"></path>
  </symbol>
  <symbol xmlns="http://www.w3.org/2000/svg" viewBox="0 0 349.002 239.916" id="sass">
    <g transform="translate(193 -1995)">
      <path d="M348.85,247.386c-1.159-9.27-6.271-16.426-14.177-22.084,1.977,1.363,3.612,2.59-.068,0-4.908-3.476-2.317-1.636,0,0-19.426-13.836-44.781-10.769-65.91-3.067-8.452-13.836-8.861-24.4-3.953-39.464.613-1.908.2-3-1.772-3.817-4.839-2.045-11.792-.954-16.631.341a3.851,3.851,0,0,0-3.272,3c-3.544,16.495-14.314,31.626-23.72,45.6-6.611-12.746-6.134-22.561-1.636-35.784.545-1.636.273-2.454-1.3-3.34-4.976-2.59-12.541-1.3-17.585.2-5.794,1.7-14.518,30.4-17.313,36.056-5.794,11.86-10.974,30.467-20.857,39.873-8.384-10.769,15.336-35.1,7.429-44.917-2.658-3.272-7.566-3.2-10.633-.409.75-5.18,1.091-8.588-.2-13.019-1.431-4.635-5.044-7.293-10.292-7.157-12.269.341-23.038,9.406-30.4,17.994-7.02,8.247-25.492,13.359-35.443,18.335-17.04-14.859-53.982-30.6-54.937-55.959C25.159,151.281,59.1,131.924,81.8,120.337c29.513-15.063,74.976-33.807,108.442-17.313,8.861,4.362,12.473,13.768,10.019,22.7-6.407,23.447-32.171,39.055-54.6,46.212-11.042,3.544-23.174,6.134-34.83,5.453-15.677-.886-27.809-10.36-29.513-10.974-1.363-.273-1.3,1.568-.886,2.522,16.222,42.532,98.423,11.383,119.961-10.5,10.36-10.5,16.631-20.721,19.357-36.738,3.135-18.812-10.633-30.536-21.13-35.443-53.3-24.537-126.709,7.634-166.855,40.419-17.449,14.245-39.26,36.943-29.24,60.662C13.368,213.1,46.63,226.325,68.3,242.07c-17.517,8.724-39.464,17.722-50.779,34.012-6.475,9.338-8.793,19.357-3.953,29.99,8.588,18.812,39.737,10.633,52.892,2.386,12.064-7.566,20.175-17.79,23.651-30.808a48.433,48.433,0,0,0-2.658-33.739l19.494-9.883c-5.248,15.745-7.566,35.443,3.34,49.688,4.362,5.657,15.677,5.93,20.312.2,6-7.429,10.019-16.835,13.973-25.355-.477,6.407-1.3,13.632.954,19.221,2.522,6.407,8.247,7.7,14.177,3.612,18.062-12.405,29.581-46.826,38.51-66.865,2.454,8.724,5.112,16.7,9.542,24.81,1.091,1.977.954,3.272-.545,4.908-6.611,7.293-22.356,19.426-23.924,29.24a4.5,4.5,0,0,0,3.885,5.044c10.633,2.113,22.356-1.7,31.013-7.566,9-6.066,11.86-14.382,9.679-24.2-3.135-14.177,7.5-29.99,17.585-41.577,1.84,8.793,4.635,17.244,9.611,24.946-8.929,7.838-22.22,18.948-20.312,31.967.682,4.7,4.839,7.7,9.883,6.611,10.769-2.249,20.039-6.884,26.855-15.063,6.134-7.429,3.953-15.472,1.3-23.583,16.29-4.635,32.717-5.589,48.939,0,7.838,2.658,14.177,7.157,17.858,14.177,4.567,8.588,1.977,16.563-6.816,22.22-2.249,1.431-3.817,2.59-3.067,3.2s3.34,1.431,9.065-2.181,9.2-8.452,10.088-14.791a23.116,23.116,0,0,0,0-5.316ZM76.961,264.631c-.954,11.383-6.543,20.584-15.813,28.014-5.18,4.226-11.655,7.634-18.062,8.247s-11.451-1.022-11.86-7.634C30,274.514,59.1,256.179,75.257,250.658a36.334,36.334,0,0,1,1.7,13.973Zm70.273-49.416c-2.658,15.2-10.088,42.463-22.016,53.369-1.636,1.431-3.135,1.363-3.953-.545-7.02-16.426,2.522-50.234,22.561-55.414,2.386-.545,3.817.409,3.408,2.59Zm47.984,55.755c5.725-6.134,11.451-12.2,17.244-18.335C213.144,259.451,200.466,273.014,195.218,270.97Zm55-12.064c-1.568.886-5.18,1.7-5.316.545-1.022-8.247,8.043-16.972,13.7-21.061,3,7.77-.613,16.29-8.384,20.516Z" transform="translate(-193.001 1917.391)" fill="#cf649a"></path>
    </g>
  </symbol>
  <symbol xmlns="http://www.w3.org/2000/svg" viewBox="0 0 64 38.4" id="tailwind">
    <path d="M16,25.6q3.2-12.8,16-12.8c12.8,0,14.4,9.6,20.8,11.2q6.4,1.6,11.2-4.8Q60.8,32,48,32c-12.8,0-14.4-9.6-20.8-11.2Q20.8,19.2,16,25.6ZM0,44.8Q3.2,32,16,32c12.8,0,14.4,9.6,20.8,11.2q6.4,1.6,11.2-4.8Q44.8,51.2,32,51.2c-12.8,0-14.4-9.6-20.8-11.2Q4.8,38.4,0,44.8Z" transform="translate(0 -12.8)" fill="#1fcbed" fill-rule="evenodd"></path>
  </symbol>
  <symbol xmlns="http://www.w3.org/2000/svg" viewBox="0 0 155 155" id="typescript">
    <g transform="translate(-722 -2412)">
      <path d="M0,77.5V155H155V0H0Zm124.909-6.176A19.3,19.3,0,0,1,134.6,76.91a25.465,25.465,0,0,1,3.715,4.97c.048.194-6.691,4.723-10.777,7.258-.145.1-.739-.54-1.4-1.526-1.993-2.906-4.083-4.158-7.282-4.379-4.7-.32-7.75,2.141-7.7,6.248a5.683,5.683,0,0,0,.664,2.906c1.034,2.141,2.955,3.42,8.98,6.03,11.1,4.771,15.843,7.919,18.793,12.4,3.294,4.994,4.035,12.966,1.8,18.895-2.461,6.447-8.561,10.825-17.146,12.279a47.554,47.554,0,0,1-11.809-.121c-6.224-1.107-12.128-4.182-15.771-8.217-1.429-1.574-4.207-5.684-4.035-5.982a11.77,11.77,0,0,1,1.429-.911l5.757-3.318,4.456-2.584.935,1.38a20.793,20.793,0,0,0,5.88,5.633c4.945,2.608,11.736,2.238,15.081-.763a6.738,6.738,0,0,0,.862-8.585c-1.206-1.719-3.667-3.173-10.656-6.2-8-3.444-11.441-5.585-14.589-8.98a20.452,20.452,0,0,1-4.258-7.75,31.025,31.025,0,0,1-.271-9.891c1.647-7.75,7.479-13.114,15.894-14.712a39.308,39.308,0,0,1,11.76.344ZM88.522,77.791l.048,6.345H68.4V141.46H54.127V84.136H33.954V77.912l.17-6.394c.073-.1,12.351-.145,27.236-.121l27.088.073Z" transform="translate(722 2412.002)" fill="#007acc"></path>
    </g>
  </symbol>
  <symbol xmlns="http://www.w3.org/2000/svg" viewBox="0 0 219 219" id="yaml">
    <g transform="translate(-4 -4)">
      <circle cx="109.5" cy="109.5" r="109.5" transform="translate(4 4)" fill="#c2bfbc"></circle>
      <path d="M55.546,138.1a6.625,6.625,0,1,1-6.446,6.8C49.1,140.837,51.926,138.1,55.546,138.1Z" transform="translate(-5.274 -15.681)" fill="#333" stroke="#333" stroke-linecap="round" stroke-linejoin="round" stroke-width="3"></path>
      <path d="M77.17,158.3c5.387,0,8.654-3.532,10.6-8.3l1.148-2.826L70.9,108.5h6.623l9.36,21.37c1.5,3.444,3.179,7.506,4.769,11.215h.353l4.15-11.215,8.389-21.37h6.181L93.771,150.269c-2.826,7.594-7.594,13.423-16.337,13.423a16.249,16.249,0,0,1-5.122-.795l1.325-5.122a12.363,12.363,0,0,0,3.532.53Z" transform="translate(-7.823 -12.22)" fill="#333" stroke="#333" stroke-linecap="round" stroke-linejoin="round" stroke-width="3"></path>
      <path d="M124.488,108.383h5.122l.53,5.122h.265c1.943-3.532,4.327-6,8.654-6s6.358,2.208,7.329,6.711c2.3-4.062,4.857-6.711,9.1-6.711s8.389,4.239,8.389,11.921v27.64H157.6v-27.2c0-4.5-1.325-6.8-4.239-6.8s-4.592,1.943-6.623,5.917v27.993h-5.21v-27.11c0-4.5-1.5-6.8-4.415-6.8s-4.415,1.943-6.446,5.917v27.993H124.4Z" transform="translate(-14.079 -12.103)" fill="#333" stroke="#333" stroke-linecap="round" stroke-linejoin="round" stroke-width="3"></path>
      <path d="M171.9,88.1h19.692v44.065c0,5.652,2.914,8.036,7.506,8.036a17.573,17.573,0,0,0,7.329-1.854l1.678,4.945c-3.532,1.236-6.181,2.3-10.42,2.3-8.212,0-12.628-4.769-12.628-13.864V93.487H171.9Z" transform="translate(-19.633 -9.834)" fill="#333" stroke="#333" stroke-linecap="round" stroke-linejoin="round" stroke-width="3"></path>
    </g>
  </symbol>
</svg>