<svg width="0" height="0" class="hidden">
  <symbol xmlns="http://www.w3.org/2000/svg" viewBox="0 0 195.395 204.023" id="postgres">
    <path d="M195.139 124.01c-.848-3.843-3.968-8-11-8a22.481 22.481 0 0 0-5 0c-3.282.677-6.539 1.889-9 2 19.157-32.632 32.316-78.263 20-94-16.228-20.733-38.426-24-50-24h-1a66.848 66.848 0 0 0-13 2l-17 3a67.8 67.8 0 0 0-7 0h-1c-7.384 0-14 1.057-20 4l-6-2c-7.973-3.143-19.134-7-31-7-.667 0-1.333-.023-2 0-11.69.422-22.69 5.032-30 13-9.122 9.947-12.941 24.246-12 43 .046.969 11.836 97 44 97a19.032 19.032 0 0 0 12-5 22.652 22.652 0 0 0 10 4 51.541 51.541 0 0 0 11 1c5.952 0 11.374-.8 16-3 0 4.079.046 9.4 0 16 .45 6.577 1.29 12.351 3 17 4.872 13.252 13.594 21 24 21 .431 0 .555.028 1 0 8.557-.528 18.034-5.486 24-13 6.457-8.135 7.425-16.423 8-23v-20h3c.575.028 1.4 0 2 0 6.985 0 15.187-1.3 21-4 5.557-2.577 18.206-9.994 16-20z"
      fill="#fff"></path>
    <path d="M144.139 144.01c0-.95-.028-2.124 0-3-.046-1.163 0-2 0-2 .691-12.39 4.343-17.279 8-20-.51-.709-1.448-1.272-2-2-1.544-2.026-2.942-4.779-5-8l-1-1c-.311-.76-1.045-1.276-2-3-5.483-9.919-16.81-30.966-9-44 3.421-5.711 9.734-9.189 19-10-3.787-10.768-17.832-36.467-50-37-28-.454-37.006 24.8-40 40a34.336 34.336 0 0 1 13-3c10.615.079 17.877 6.2 20 16a86.052 86.052 0 0 1 2 19c-.046 12.6-1.757 19.15-4 25l-1 2c-.575 1.548-1.425 2.647-2 4-.584 1.381-.625 2.892-1 4a23.506 23.506 0 0 1 5 2h1c.218.093-.2.879 0 1 3.931 2.392 6.476 5.717 7 10 .283 2.308.1 18.271 0 32a48.513 48.513 0 0 0 3 14c1.9 5.164 6.9 15.566 16 15 6.35-.394 11.949-4.9 16-10a32 32 0 0 0 7-18z"
      fill="#0277bd"></path>
    <path d="M61.139 120.01c-7.477-7.8-11.367-18.224-10-28 1.321-9.433.4-19.036 0-24a20.325 20.325 0 0 1 0-3c0-.037 0 .037 0 0 .561-14 6.135-35.868 21-49-7.24-2.851-18.931-7.4-30-7-17.345.63-34.687 13.274-33 47 .635 12.654 15.449 88.477 35 88 2.8-.07 6.02-2.412 9-6 4.714-5.669 8.741-10.422 12-14a36.612 36.612 0 0 1-4-4zm101-66a7.387 7.387 0 0 1 0 2c.144 4.264.468 9 0 13-.343 2.948-.9 5.945-1 9-.1 2.99.555 5.876 1 9 1.043 7.314 1.673 15.368-4 25 1.043 1.372 2.268 2.767 3 4 21.368-34.648 29.218-75.5 21-86a53.286 53.286 0 0 0-43-21c-4.269.07-7.686 1.282-11 2 23.528 11.403 33.258 35.097 34 43zm19 72c-12.353 2.549-18.117.775-21-1-.464.334-1.569.736-2 1-1.724 1.043-4.333 2.807-5 13 .385.074.583-.088 1 0h2c6.118.278 14.3-1.817 19-4 10.128-4.7 15.98-11.058 6-9zm-88 9a3.664 3.664 0 0 0-2-3l-1-1a12.885 12.885 0 0 0-6-1c-.589.046-1.411 0-2 0-.241 0-.759.009-1 0-2.2 1.692-5.268 2.41-13 4-13.813 3.518-5.3 8.356 0 9 5.127 1.284 16.907 2.6 25-4-.023-2.076.056-3.49 0-4z"
      fill="#0277bd"></path>
    <path d="M87.138 72.01a7.008 7.008 0 0 1-6 2c-3.838-.621-7.213-5.262-7-7 .2-1.734 4.167-2.621 8-2a10.1 10.1 0 0 1 3 1c-1.483-3.189-3.907-4.55-8-5-7.254-.807-15.452 2.9-17 5 .032.51.94 1.231 1 2a121.18 121.18 0 0 1-1 25c-.964 6.883 2.558 15.317 8 21a18.731 18.731 0 0 0 11 6c.515-2.216 2.054-3.77 3-6 .524-1.228.476-2.586 1-4l1-2c2.053-5.354 3.958-11.093 4-22a71.227 71.227 0 0 0-1-14zm65 16c-.482-3.379-.12-7.2 0-11 .107-3.439-.366-5.862 0-9 .287-2.471.87-5.659 1-8-5.975.5-10.118 3.084-12 6a17.246 17.246 0 0 1 3-1c4.135-.538 6.652.7 7 3a5.184 5.184 0 0 1-1 4 8.515 8.515 0 0 1-6 2 6.384 6.384 0 0 1-4-1c.519 9.145 6.681 21 10 27 .709 1.284 1.546 2.119 2 3 1.822-5.187.751-9.734 0-15z"
      fill="#0277bd"></path>
  </symbol>
  <symbol xmlns="http://www.w3.org/2000/svg" viewBox="0 0 207.854 155.672" id="powershell">
    <path d="M85.989 155.641c-24.366-.009-48.736.1-73.1-.056-12.358-.082-14.6-3.03-11.821-15.258 9.425-41.468 19.16-82.863 28.38-124.379C31.918 4.815 37.252-.107 49.044 0c48.732.459 97.468.147 146.2.2 12.224.013 14.276 2.658 11.531 15.2q-13.357 61.071-26.989 122.079c-3.415 15.219-7.346 18.124-23.171 18.159q-35.316.071-70.626.003z"
      fill="#0277bd"></path>
    <path d="M108.541 77.579c-2.632-2.974-4.822-5.484-6.627-7.5-10.519-11.806-20.151-22.81-30.573-34.062-4.77-5.147-6.289-10.146-.563-15.228 5.658-5.021 11.22-4.58 16.41 1.2 14.458 16.09 28.9 32.2 43.594 48.065 5.489 5.926 4.207 9.956-1.835 14.349q-34.8 25.29-69.3 50.983c-5.177 3.84-10.116 4.8-14.3-.87-4.614-6.255-.346-9.977 4.441-13.479q25.675-18.783 51.221-37.766c2.372-1.762 5.532-4.199 7.532-5.692zm-14.315 56.61c-4.87 0-7.575-4.329-7.575-8.657s2.705-8.657 7.575-8.657h41.122c4.87 0 7.575 4.329 7.575 8.657s-2.705 8.657-7.575 8.657z"
      fill="#fafafa"></path>
  </symbol>
  <symbol xmlns="http://www.w3.org/2000/svg" viewBox="0 0 234.897 234.893" id="python">
    <path d="M120.437 0a132.834 132.834 0 0 0-24.33 2.269C72.324 6.41 67.991 15.108 67.991 31.136v24.5h55.632V68H38.988C22.694 68 8.437 75.673 3.915 94.074c-5.106 21.122-5.335 34.35 0 56.4 4.049 16.449 12.968 28.78 29.269 28.78h22.453V147.71c0-18.334 16.6-36.445 35.629-36.445h44.728c15.6 0 30.907-11.51 30.907-27.056V31.136c0-15.076-10.873-26.351-26.073-28.879A105.182 105.182 0 0 0 120.437 0zm-30.8 24.726a9.272 9.272 0 1 1 0 18.544 9.272 9.272 0 1 1 0-18.544z"
      fill="#0277bd"></path>
    <path d="M114.45 234.892a132.835 132.835 0 0 0 24.33-2.269c23.786-4.142 28.119-12.839 28.119-28.867v-24.5h-55.632v-12.359h84.641c16.294 0 30.554-7.677 35.073-26.079 5.106-21.122 5.335-34.35 0-56.4-4.052-16.453-12.975-28.785-29.275-28.785h-22.451v31.55c0 18.334-16.6 36.445-35.629 36.445H98.898c-15.6 0-30.907 11.51-30.907 27.056v53.073c0 15.076 10.873 26.351 26.073 28.879a105.184 105.184 0 0 0 20.386 2.256zm30.814-24.725a9.272 9.272 0 1 1 0-18.544 9.272 9.272 0 1 1 0 18.544z"
      fill="#ffc107"></path>
  </symbol>
  <symbol xmlns="http://www.w3.org/2000/svg" viewBox="0 0 267.883 259.823" id="qlik">
    <path d="M201.403 124.751a76.652 76.652 0 1 1-76.643-76.662 76.655 76.655 0 0 1 76.643 76.662m63.77 95.829l-34.92-29.3a124.712 124.712 0 1 0-33.7 35.478l37.22 31.237s5.536 4.648 10.169-.877l22.119-26.356s4.637-5.538-.886-10.182" fill="#61a730"></path>
    <path d="M75.621 124.746a49.13 49.13 0 1 1 49.131 49.141 49.119 49.119 0 0 1-49.131-49.141" fill="#606163"></path>
  </symbol>
  <symbol xmlns="http://www.w3.org/2000/svg" viewBox="0 0 202.045 258" id="raspberrypi">
    <path d="M54.69.002a7.292 7.292 0 0 0-4.306 1.781c-3.9-1.505-7.685-2.027-11.07 1.032-5.234-.67-6.929.725-8.213 2.353-1.149-.012-8.582-1.173-12 3.919-8.57-1.02-11.279 5.043-8.207 10.683-1.751 2.709-3.563 5.387.528 10.56-1.45 2.887-.553 6 2.856 9.78-.9 4.048.872 6.9 4.048 9.129-.6 5.529 5.074 8.748 6.77 9.89.651 3.231 2 6.272 8.477 7.955 1.072 4.816 4.972 5.629 8.733 6.653-12.461 7.236-23.147 16.764-23.067 40.145l-1.824 3.25c-14.289 8.686-27.14 36.612-7.04 59.311 1.315 7.1 3.514 12.2 5.473 17.845 2.936 22.76 22.072 33.418 27.115 34.684 7.4 5.627 15.278 10.978 25.936 14.719 10.046 10.368 20.935 14.322 31.882 14.306.16 0 .326.006.485 0 10.941.012 21.832-3.944 31.876-14.307 10.658-3.735 18.54-9.086 25.942-14.719 5.043-1.265 24.185-11.924 27.109-34.684 1.96-5.645 4.165-10.744 5.48-17.845 20.094-22.7 7.249-50.625-7.04-59.311l-1.824-3.256c.074-23.374-10.621-32.9-23.073-40.139 3.766-1.02 7.66-1.843 8.729-6.659 6.481-1.671 7.832-4.724 8.484-7.955 1.7-1.143 7.359-4.355 6.776-9.9 3.176-2.218 4.945-5.074 4.036-9.116 3.422-3.778 4.312-6.9 2.863-9.78 4.1-5.172 2.279-7.845.534-10.56 3.065-5.639.362-11.7-8.213-10.683-3.409-5.093-10.849-3.932-12-3.919-1.284-1.628-2.986-3.022-8.213-2.353-3.385-3.059-7.169-2.537-11.07-1.032-4.642-3.657-7.717-.726-11.217.386-5.6-1.831-6.892.682-9.645 1.7-6.125-1.3-7.98 1.517-10.916 4.491l-3.416-.068c-9.233 5.443-13.816 16.525-15.444 22.213-1.622-5.7-6.2-16.777-15.431-22.213l-3.416.068c-2.943-2.973-4.8-5.787-10.922-4.491-2.752-1.02-4.036-3.532-9.651-1.7-2.31-.731-4.429-2.236-6.917-2.162z"
      fill="#37474f"></path>
    <path d="M36.31 23.947c24.492 12.624 38.732 22.84 46.533 31.54-3.993 16.015-24.83 16.746-32.454 16.3 1.56-.731 2.869-1.6 3.323-2.943-1.91-1.358-8.692-.141-13.429-2.8 1.818-.381 2.672-.737 3.52-2.082-4.466-1.425-9.282-2.66-12.12-5.019 1.53.018 2.955.338 4.951-1.044-4.005-2.156-8.281-3.864-11.6-7.163 2.07-.055 4.306-.025 4.951-.792a45.015 45.015 0 0 1-9.321-7.557c2.9.356 4.122.055 4.828-.461-2.777-2.832-6.284-5.222-7.949-8.729 2.15.743 4.122 1.032 5.541-.068-.946-2.119-4.976-3.379-7.3-8.336 2.267.221 4.675.5 5.154 0a24.61 24.61 0 0 0-4.626-9.19c4.853-.061 12.194.025 11.862-.387l-3-3.065c4.736-1.272 9.589.209 13.1 1.308 1.579-1.247-.031-2.82-1.953-4.429a47.585 47.585 0 0 1 10.948 2.73c1.757-1.585-1.143-3.17-2.537-4.749a27.922 27.922 0 0 1 11.463 4.484c1.9-1.812.111-3.366-1.167-4.957 4.693 1.738 7.1 3.981 9.645 6.2.866-1.167 2.193-2.015.59-4.816a24.448 24.448 0 0 1 7.693 6.706c2.058-1.315 1.229-3.108 1.235-4.761 3.459 2.82 5.658 5.811 8.342 8.742.541-.393 1.014-1.732 1.431-3.846 8.256 8 19.916 28.172 3 36.176C72.556 39.047 55.366 30.416 36.31 23.947zm129.968 0c-24.486 12.624-38.732 22.84-46.527 31.54 3.993 16.015 24.836 16.746 32.454 16.3-1.56-.731-2.863-1.6-3.33-2.943 1.917-1.358 8.692-.141 13.429-2.8-1.818-.381-2.666-.737-3.52-2.082 4.478-1.425 9.3-2.66 12.126-5.019-1.53.018-2.955.338-4.951-1.044 4.005-2.156 8.281-3.864 11.6-7.163-2.076-.055-4.306-.025-4.957-.792a44.7 44.7 0 0 0 9.325-7.556c-2.906.356-4.122.055-4.822-.461 2.771-2.832 6.272-5.222 7.943-8.729-2.15.743-4.116 1.032-5.529-.068.934-2.119 4.982-3.379 7.3-8.336-2.267.221-4.669.5-5.148 0a24.522 24.522 0 0 1 4.632-9.19c-4.847-.074-12.194.025-11.868-.387l3-3.065c-4.736-1.272-9.583.209-13.1 1.308-1.585-1.247.031-2.82 1.953-4.429a47.273 47.273 0 0 0-10.947 2.734c-1.757-1.585 1.143-3.17 2.543-4.755a27.946 27.946 0 0 0-11.469 4.491c-1.9-1.812-.111-3.366 1.167-4.957-4.687 1.738-7.1 3.981-9.645 6.192-.86-1.161-2.187-2.009-.584-4.81a24.3 24.3 0 0 0-7.697 6.702c-2.058-1.321-1.229-3.108-1.241-4.761-3.459 2.82-5.652 5.811-8.342 8.742-.541-.393-1.014-1.732-1.425-3.846-8.262 8-19.922 28.172-3 36.176 14.381-11.9 31.569-20.524 50.625-26.992z"
      fill="#64dd17"></path>
    <path d="M130.956 186.989c.086 14.946-12.98 27.115-29.179 27.2s-29.413-11.965-29.491-26.911v-.289c-.086-14.946 12.974-27.115 29.179-27.2s29.405 11.965 29.491 26.916zm-46.318-77.284c12.157 7.961 14.344 26.01 4.9 40.317s-26.978 19.447-39.135 11.483c-12.157-7.968-14.344-26.016-4.9-40.317s26.983-19.446 39.135-11.483zm32.822-1.45c-12.163 7.955-14.356 26.016-4.9 40.317s26.974 19.449 39.125 11.481c12.157-7.968 14.356-26.01 4.9-40.323s-26.974-19.437-39.125-11.475zm-93.574 14.478c13.121-3.52 4.429 54.292-6.247 49.55-11.753-9.455-15.533-37.129 6.247-49.55zm151.681-.728c-13.134-3.514-4.435 54.3 6.241 49.55 11.751-9.45 15.536-37.12-6.241-49.55zm-44.6-43.056c22.649-3.833 41.5 9.626 40.741 34.186-.749 9.426-49.088-32.795-40.74-34.183zm-62.581-.728c-22.652-3.816-41.5 9.644-40.737 34.198.743 9.423 49.076-32.792 40.737-34.198zm32.531-5.716c-13.515-.36-26.495 10.034-26.526 16.048-.037 7.31 10.695 14.817 26.618 15 16.267.117 26.642-6 26.7-13.545.055-8.557-14.792-17.643-26.8-17.508zm.829 150.086c11.788-.516 27.6 3.8 27.637 9.516.19 5.559-14.35 18.1-28.418 17.858-14.579.629-28.865-11.94-28.679-16.289-.217-6.401 17.751-11.377 29.46-11.088zm-43.536-33.9c8.392 10.114 12.213 27.883 5.216 33.114-6.628 4.005-22.717 2.359-34.155-14.068-7.709-13.791-6.72-27.809-1.3-31.938 8.1-4.933 20.61 1.72 30.242 12.894zm85.394-3.194c-9.086 10.634-14.135 30.027-7.513 36.275 6.327 4.859 23.337 4.183 35.888-13.244 9.116-11.709 6.069-31.25.866-36.453-7.746-5.971-18.853 1.677-29.241 13.422z"
      fill="#ff4081"></path>
  </symbol>
  <symbol xmlns="http://www.w3.org/2000/svg" viewBox="0 0 258 230" id="react">
    <g transform="translate(-175.7 -78)" fill="#61dafb">
      <path d="M433.7 193c0-17.1-21.176-32.953-54-43 7.575-33.456 3.834-60.478-11-69a23.905 23.905 0 0 0-12-3v12c2.42 0 4.369.106 6 1 7.154 4.1 10.42 19.906 8 40-.579 4.945-.843 9.687-2 15-10.31-2.525-22.164-3.738-34-5a268.3 268.3 0 0 0-22-27c17.149-15.939 33.059-24 44-24V78c-14.466 0-32.852 10.115-52 28-19.148-17.78-38.534-28-53-28v12c10.889 0 27.851 8.166 45 24a261.252 261.252 0 0 0-22 27c-11.888 1.262-23.69 2.422-34 5-1.21-5.26-1.369-10.108-2-15-2.472-20.094-.1-35.844 7-40 1.578-.947 3.58-1 6-1V78a23.905 23.905 0 0 0-12 3c-14.781 8.522-17.627 35.65-10 69-32.719 10.1-54 25.957-54 43 0 17.1 21.176 32.953 54 43-7.575 33.456-3.834 60.478 11 69a23.767 23.767 0 0 0 12 3c14.466 0 32.852-10.115 52-28 19.148 17.78 38.534 28 53 28a23.905 23.905 0 0 0 12-3c14.781-8.522 17.627-35.65 10-69 32.614-10.047 54-25.957 54-43zm-68-35c-1.946 6.786-5.265 14-8 21-2.157-4.208-3.528-8.792-6-13-2.42-4.208-5.422-8-8-12 7.47 1.1 15.109 2.317 22 4zm-25 56c-4.1 7.1-7.634 13.74-12 20-7.838.684-16 1-24 1-7.943 0-16.215-.369-24-1-4.366-6.26-7.9-12.951-12-20-4-6.891-7.686-13.951-11-21 3.261-7.049 7.055-14.109 11-21 4.1-7.1 7.634-13.74 12-20 7.838-.684 16-1 24-1 7.943 0 16.215.369 24 1 4.366 6.26 7.9 12.951 12 20 4 6.891 7.686 13.951 11 21-3.314 7.049-7.055 14.109-11 21zm17-7c2.841 7.049 6 14.162 8 21-6.891 1.683-14.478 2.9-22 4 2.578-4.05 5.58-7.739 8-12 2.42-4.208 3.843-8.792 6-13zm-53 56c-4.892-5.05-9.161-10.845-14-17 4.734.21 9.108 1 14 1 4.945 0 10.213-.737 15-1a211.6 211.6 0 0 1-15 17zm-39-31c-7.47-1.1-15.109-2.317-22-4 1.946-6.786 5.265-14 8-21 2.157 4.208 3.528 8.792 6 13s5.423 8 8 12zm39-109a222.414 222.414 0 0 1 15 17c-4.734-.21-10.108-1-15-1-4.945 0-10.213.737-15 1a211.611 211.611 0 0 1 15-17zm-39 31c-2.578 4.05-5.58 7.739-8 12-2.42 4.208-3.843 8.792-6 13-2.841-7.049-6-14.162-8-21 6.891-1.631 14.478-2.9 22-4zm-48 66c-18.622-7.943-30-18.741-30-27s11.378-19.11 30-27c4.524-1.946 9.9-3.369 15-5a254.047 254.047 0 0 0 12 32 254.044 254.044 0 0 0-12 32c-5.208-1.631-10.423-3.054-15-5zm29 75c-7.154-4.1-10.42-19.906-8-40 .579-4.945.843-10.687 2-16a263.5 263.5 0 0 0 34 6 252.448 252.448 0 0 0 22 26c-17.149 15.939-33.059 25-44 25-2.367-.053-4.422-.106-6-1zm124-40c2.472 20.094.1 35.844-7 40-1.578.947-3.58 1-6 1-10.889 0-26.851-9.166-44-25a241.466 241.466 0 0 0 21-26 253.273 253.273 0 0 0 34-6c1.21 5.313 1.421 11.108 2 16zm21-35c-4.524 1.946-9.9 3.369-15 5a254.043 254.043 0 0 0-12-32 254.043 254.043 0 0 0 12-32c5.208 1.631 10.371 3.054 15 5 18.622 7.943 30 18.741 30 27-.053 8.259-11.378 19.11-30 27z"></path>
      <circle cx="24" cy="24" r="24" transform="translate(280.7 169)"></circle>
    </g>
  </symbol>
  <symbol xmlns="http://www.w3.org/2000/svg" viewBox="0 0 256 243.034" id="redux">
    <path d="M177.381 169.733a18.3 18.3 0 0 0-1.955-36.488h-.651a18.227 18.227 0 0 0-17.592 18.9 18.714 18.714 0 0 0 5.212 12.054c-11.076 21.828-28.016 37.791-53.426 51.148-17.266 9.122-35.183 12.38-53.1 10.1-14.66-1.955-26.062-8.471-33.229-19.222-10.425-15.963-11.4-33.229-2.606-50.5a76.684 76.684 0 0 1 22.152-26.063c-1.3-4.235-3.258-11.4-4.235-16.614C-9.286 147.254-4.4 193.515 9.935 215.342c10.75 16.289 32.577 26.389 56.684 26.389a80.079 80.079 0 0 0 19.546-2.281c41.699-8.144 73.299-32.904 91.216-69.717zm57.336-40.4c-24.759-28.995-61.245-44.958-102.944-44.958h-5.212A17.9 17.9 0 0 0 110.6 74.6h-.652a18.25 18.25 0 0 0 .652 36.488h.651a18.352 18.352 0 0 0 15.963-11.077h5.864a124.157 124.157 0 0 1 69.389 21.176c16.289 10.751 28.017 24.76 34.532 41.7 5.538 13.683 5.212 27.04-.652 38.443-9.121 17.266-24.432 26.714-44.63 26.714a83.321 83.321 0 0 1-31.926-6.842c-3.583 3.258-10.1 8.471-14.659 11.729 14.008 6.515 28.342 10.1 42.024 10.1 31.274 0 54.4-17.267 63.2-34.533 9.444-18.898 8.793-51.471-15.639-79.162zM69.225 175.271a18.3 18.3 0 0 0 18.243 17.592h.652a18.249 18.249 0 0 0-.652-36.487h-.651a5.556 5.556 0 0 0-2.28.325C71.18 134.548 65.642 110.44 67.6 84.378c1.3-19.547 7.819-36.488 19.221-50.5 9.447-12.054 27.69-17.918 40.069-18.244 34.532-.652 49.192 42.352 50.169 59.618 4.235.977 11.4 3.258 16.289 4.887C189.434 27.366 156.857 0 125.583 0 96.264 0 69.225 21.176 58.475 52.451c-14.985 41.7-5.212 81.771 13.031 113.372a14.636 14.636 0 0 0-2.281 9.448z"
      fill="#764abc"></path>
  </symbol>
  <symbol xmlns="http://www.w3.org/2000/svg" viewBox="0 0 349.002 239.916" id="sass">
    <path d="M348.849 169.777c-1.159-9.27-6.271-16.426-14.177-22.084 1.977 1.363 3.612 2.59-.068 0-4.908-3.476-2.317-1.636 0 0-19.426-13.836-44.781-10.769-65.91-3.067-8.452-13.836-8.861-24.4-3.953-39.464.613-1.908.2-3-1.772-3.817-4.839-2.045-11.792-.954-16.631.341a3.851 3.851 0 0 0-3.272 3c-3.544 16.495-14.314 31.626-23.72 45.6-6.611-12.746-6.134-22.561-1.636-35.784.545-1.636.273-2.454-1.3-3.34-4.976-2.59-12.541-1.3-17.585.2-5.794 1.7-14.518 30.4-17.313 36.056-5.794 11.86-10.974 30.467-20.857 39.873-8.384-10.769 15.336-35.1 7.429-44.917-2.658-3.272-7.566-3.2-10.633-.409.75-5.18 1.091-8.588-.2-13.019-1.431-4.635-5.044-7.293-10.292-7.157-12.269.341-23.038 9.406-30.4 17.994-7.02 8.247-25.492 13.359-35.443 18.335-17.04-14.859-53.982-30.6-54.937-55.959-1.021-28.487 32.92-47.844 55.62-59.431 29.513-15.063 74.976-33.807 108.442-17.313 8.861 4.362 12.473 13.768 10.019 22.7-6.407 23.447-32.171 39.055-54.6 46.212-11.042 3.544-23.174 6.134-34.83 5.453-15.677-.886-27.809-10.36-29.513-10.974-1.363-.273-1.3 1.568-.886 2.522 16.222 42.532 98.423 11.383 119.961-10.5 10.36-10.5 16.631-20.721 19.357-36.738 3.135-18.812-10.633-30.536-21.13-35.443-53.3-24.537-126.709 7.634-166.855 40.419-17.449 14.245-39.26 36.943-29.24 60.662 10.843 25.763 44.105 38.988 65.775 54.733-17.517 8.724-39.464 17.722-50.779 34.012-6.475 9.338-8.793 19.357-3.953 29.99 8.588 18.812 39.737 10.633 52.892 2.386 12.064-7.566 20.175-17.79 23.651-30.808a48.433 48.433 0 0 0-2.658-33.739l19.494-9.883c-5.248 15.745-7.566 35.443 3.34 49.688 4.362 5.657 15.677 5.93 20.312.2 6-7.429 10.019-16.835 13.973-25.355-.477 6.407-1.3 13.632.954 19.221 2.522 6.407 8.247 7.7 14.177 3.612 18.062-12.405 29.581-46.826 38.51-66.865 2.454 8.724 5.112 16.7 9.542 24.81 1.091 1.977.954 3.272-.545 4.908-6.611 7.293-22.356 19.426-23.924 29.24a4.5 4.5 0 0 0 3.885 5.044c10.633 2.113 22.356-1.7 31.013-7.566 9-6.066 11.86-14.382 9.679-24.2-3.135-14.177 7.5-29.99 17.585-41.577 1.84 8.793 4.635 17.244 9.611 24.946-8.929 7.838-22.22 18.948-20.312 31.967.682 4.7 4.839 7.7 9.883 6.611 10.769-2.249 20.039-6.884 26.855-15.063 6.134-7.429 3.953-15.472 1.3-23.583 16.29-4.635 32.717-5.589 48.939 0 7.838 2.658 14.177 7.157 17.858 14.177 4.567 8.588 1.977 16.563-6.816 22.22-2.249 1.431-3.817 2.59-3.067 3.2s3.34 1.431 9.065-2.181 9.2-8.452 10.088-14.791a23.116 23.116 0 0 0 0-5.316zM76.96 187.022c-.954 11.383-6.543 20.584-15.813 28.014-5.18 4.226-11.655 7.634-18.062 8.247s-11.451-1.022-11.86-7.634c-1.226-18.744 27.874-37.079 44.031-42.6a36.334 36.334 0 0 1 1.7 13.973zm70.273-49.416c-2.658 15.2-10.088 42.463-22.016 53.369-1.636 1.431-3.135 1.363-3.953-.545-7.02-16.426 2.522-50.234 22.561-55.414 2.386-.545 3.817.409 3.408 2.59zm47.984 55.755c5.725-6.134 11.451-12.2 17.244-18.335.682 6.816-11.996 20.379-17.244 18.335zm55-12.064c-1.568.886-5.18 1.7-5.316.545-1.022-8.247 8.043-16.972 13.7-21.061 3 7.77-.613 16.29-8.384 20.516z"
      fill="#cf649a"></path>
  </symbol>
  <symbol xmlns="http://www.w3.org/2000/svg" viewBox="0 0 155 155" id="typescript">
    <path d="M0 77.502v77.5h155v-155H0zm124.909-6.176a19.3 19.3 0 0 1 9.691 5.586 25.465 25.465 0 0 1 3.715 4.97c.048.194-6.691 4.723-10.777 7.258-.145.1-.739-.54-1.4-1.526-1.993-2.906-4.083-4.158-7.282-4.379-4.7-.32-7.75 2.141-7.7 6.248a5.683 5.683 0 0 0 .664 2.906c1.034 2.141 2.955 3.42 8.98 6.03 11.1 4.771 15.843 7.919 18.793 12.4 3.294 4.994 4.035 12.966 1.8 18.895-2.461 6.447-8.561 10.825-17.146 12.279a47.554 47.554 0 0 1-11.809-.121c-6.224-1.107-12.128-4.182-15.771-8.217-1.429-1.574-4.207-5.684-4.035-5.982a11.77 11.77 0 0 1 1.429-.911l5.757-3.318 4.456-2.584.935 1.38a20.793 20.793 0 0 0 5.88 5.633c4.945 2.608 11.736 2.238 15.081-.763a6.738 6.738 0 0 0 .862-8.585c-1.206-1.719-3.667-3.173-10.656-6.2-8-3.444-11.441-5.585-14.589-8.98a20.452 20.452 0 0 1-4.258-7.75 31.025 31.025 0 0 1-.271-9.891c1.647-7.75 7.479-13.114 15.894-14.712a39.308 39.308 0 0 1 11.76.344zm-36.387 6.467l.048 6.345H68.4v57.324H54.127V84.138H33.954v-6.224l.17-6.394c.073-.1 12.351-.145 27.236-.121l27.088.073z"
      fill="#007acc"></path>
  </symbol>
  <symbol xmlns="http://www.w3.org/2000/svg" viewBox="0 0 219 219" id="yaml">
    <g transform="translate(-4 -4)">
      <circle cx="109.5" cy="109.5" r="109.5" transform="translate(4 4)" fill="#c2bfbc"></circle>
      <path d="M50.272 122.419a6.625 6.625 0 1 1-6.446 6.8c0-4.063 2.826-6.8 6.446-6.8zm19.075 23.661c5.387 0 8.654-3.532 10.6-8.3l1.148-2.826L63.077 96.28H69.7l9.36 21.37c1.5 3.444 3.179 7.506 4.769 11.215h.353l4.15-11.215 8.389-21.37h6.181l-16.954 41.769c-2.826 7.594-7.594 13.423-16.337 13.423a16.249 16.249 0 0 1-5.122-.795l1.325-5.122a12.363 12.363 0 0 0 3.532.53zm41.062-49.8h5.122l.53 5.122h.265c1.943-3.532 4.327-6 8.654-6s6.358 2.208 7.329 6.711c2.3-4.062 4.857-6.711 9.1-6.711s8.389 4.239 8.389 11.921v27.64h-6.277v-27.2c0-4.5-1.325-6.8-4.239-6.8s-4.592 1.943-6.623 5.917v27.993h-5.21v-27.11c0-4.5-1.5-6.8-4.415-6.8s-4.415 1.943-6.446 5.917v27.993h-6.267zm41.858-18.014h19.692v44.065c0 5.652 2.914 8.036 7.506 8.036a17.573 17.573 0 0 0 7.329-1.854l1.678 4.945c-3.532 1.236-6.181 2.3-10.42 2.3-8.212 0-12.628-4.769-12.628-13.864V83.653h-13.157z"
        fill="#333" stroke="#333" stroke-linecap="round" stroke-linejoin="round" stroke-width="3"></path>
    </g>
  </symbol>
  <symbol xmlns="http://www.w3.org/2000/svg" viewBox="0 0 226.037 240" id="angular">
    <path d="M65.037 214c-25.756-14.286-47.531-27.046-48-28s-2.467-12.881-4-27c-2.779-25.6-5.142-49.666-10-91-1.411-12-2.848-23.305-3-25-.236-2.626.531-4.085 6-6 3.53-1.236 22.88-7.8 43-15s42.814-15.55 50-18l13-4 32 11c17.522 5.983 43.043 14.257 57 19l25 9v4c-.381 2.2-4.422 34.291-9 71s-8.627 68.212-9 70c-.571 2.74-7.238 6.365-41 25-22.038 12.164-43.764 24.653-48 27l-8 4zm10-49l7-17 31-1h31l8 17 7 18h12c6.847.2 13 .477 13 0s-15.586-35.394-35-77-36-76.348-36-77-.941-1-2-1-2 .385-2 1c0 1.127-12.876 32.282-48 110-10.507 23.249-20 42.423-20 43s6.763 1 14 1h13zm17-41c4.475-11.033 18.611-44.612 19-45 .6-.6 23 44.172 23 46 0 .722-8.333 1.256-21 1-13.447-.272-21.33-1.185-21-2z"
      fill="#dd1b16"></path>
  </symbol>
  <symbol xmlns="http://www.w3.org/2000/svg" viewBox="0 0 184.616 144" id="azure">
    <path d="M114.617 21.704l-27.306 55 48.075 55.731-89.232 10.123L184.616 144zm-5.388-21.7L46.54 52.46 0 130.98l39.617-4.038z" fill="#035bda" fill-rule="evenodd"></path>
  </symbol>
  <symbol xmlns="http://www.w3.org/2000/svg" viewBox="0 0 257.502 257.786" id="bootstrap">
    <path d="M31.95.43c.382.668-1.1 1.289-3.962 1.671a13.919 13.919 0 0 0-3.342.764c-.477.191-2.482 1.193-4.487 2.148a36.583 36.583 0 0 0-16.374 16.42c-2.53 5.251-2.578 5.251-3.2 8.4-.716 3.676-.812 195.288-.1 199.059a29.191 29.191 0 0 0 3.389 8.927 8.653 8.653 0 0 1 1.1 2.244c0 .525 3.723 5.3 5.442 7.017 1.718 1.671 6.492 5.442 6.969 5.442a13.929 13.929 0 0 1 2.721 1.337c2.244 1.337 5.155 2.339 9.834 3.389 3.2.716 193.187.716 196.386 0 4.678-1.05 7.59-2.053 9.834-3.389a13.929 13.929 0 0 1 2.721-1.337c.477 0 5.251-3.771 6.969-5.442 1.718-1.719 5.442-6.492 5.442-7.017a8.566 8.566 0 0 1 1.193-2.291c1.432-2.339 3.1-6.969 3.1-8.688 0-1.814.477-2.816 1.241-2.816.573 0 .668-14.368.668-96.665 0-83.586-.1-96.665-.668-96.665-.764 0-1-.668-1.48-4.01a17.864 17.864 0 0 0-.668-3.1c-4.344-8.974-6.922-12.555-12.029-16.66a38.471 38.471 0 0 0-6.588-4.153c-2-.955-3.962-1.957-4.439-2.148a13.92 13.92 0 0 0-3.342-.764c-2.864-.382-4.344-1-3.962-1.671.191-.239-35.372-.43-96.188-.43S31.759.191 31.95.43zm119.769 53.75c11.648 1.766 19.19 5.155 25.634 11.457 7.59 7.447 10.693 17.328 9.5 30.074a27.979 27.979 0 0 1-3.007 11.218 33.5 33.5 0 0 1-14.607 15.037c-1.384.716-2.387 1.528-2.291 1.814.1.334 1.146.811 2.291 1.1 8.879 2.244 17.376 9.977 21.147 19.285.477 1.193 1.146 2.864 1.528 3.723a8.532 8.532 0 0 1 .668 2.864 31.5 31.5 0 0 0 .716 4.153c.907 3.771.907 9.69-.048 15.132a36.01 36.01 0 0 1-4.774 13.748c-4.487 7.59-10.979 12.841-20.717 16.66-1.432.573-3.055 1.241-3.58 1.48-.525.191-2.673.764-4.774 1.193s-5.155 1.1-6.778 1.48c-2.435.525-10.168.668-43.822.668H67.99V129.7c0-41.578.143-75.757.334-75.9.143-.191 17.9-.334 39.43-.334 32.556-.002 39.955.141 43.965.714z"
      fill="#563d7c"></path>
    <path d="M95.438 76.76c-.334.907-.286 38.523.048 39.43.239.668 2.482.764 20.431.764 19.381-.048 28.88-.43 30.694-1.337.477-.239 1.909-.955 3.2-1.575 2.912-1.432 6.444-4.821 7.638-7.351a52.551 52.551 0 0 1 1.432-2.864 31.4 31.4 0 0 0 .668-6.779c.143-4.583 0-6.444-.668-8.592-1.528-5.06-4.153-8.354-8.02-9.929a21.363 21.363 0 0 1-2.912-1.384c-.668-.334-5.585-.573-15.275-.668-7.876-.048-19.429-.143-25.634-.239-9.119-.097-11.411.046-11.602.524zm.048 60.099c-.143.191-.286 10.693-.286 23.391v23.1l25.921-.191c16.135-.1 26.78-.382 28.355-.716 6.253-1.289 12.125-5.585 14.655-10.6 2.53-5.155 3.341-14.607 1.671-19.572a27.343 27.343 0 0 0-4.105-7.972c-1.671-1.909-5.872-4.917-6.826-4.917a1.908 1.908 0 0 1-1.241-.477c-.621-.621-4.249-1.384-8.783-1.909-4.059-.472-48.883-.567-49.361-.137z"
      fill="#563d7c"></path>
  </symbol>
  <symbol xmlns="http://www.w3.org/2000/svg" viewBox="0 0 180.417 252.845" id="bulma">
    <path d="M0 173.831l16.4-110.62L82.008 0l82.007 79.014-49.2 47.408 65.606 63.211-98.413 63.212z" fill="#00d1b2"></path>
  </symbol>
  <symbol xmlns="http://www.w3.org/2000/svg" viewBox="0 0 173 173" id="cashmere">
    <path d="M87 0c47.9 0 86 39.1 86 87a85.487 85.487 0 0 1-86 86c-47.9 0-87-38.1-87-86A87.19 87.19 0 0 1 87 0z" fill="#00aeff"></path>
    <path d="M127.999 122c-1.6-1.172-4.21-1.858-6-1a5.946 5.946 0 0 0-3 5c-13.1 5.084-25.709 4.437-35 3h-1l-7 9a42.757 42.757 0 0 1-12-5l2-4a53.6 53.6 0 0 1-10-7l3-3a40.721 40.721 0 0 0 9 7c-1.045 2.478.7 5.611 3 7a5.4 5.4 0 0 0 7-1c1.7-2.079.814-5.015-1-7a5.4 5.4 0 0 0-7-1 27.99 27.99 0 0 1-3-2l2-4c6.9 4.922 15.6 6.625 26 5 1.55 2.011 3.707 3.089 6 2a5.3 5.3 0 0 0 3-6c-.579-2.472-2.461-5.042-5-5s-4.5 2.51-5 5c-1.623.348-3.34 0-5 0-18.175 0-31-13.828-31-32s12.823-32 31-32a26.779 26.779 0 0 1 24 16l24-12c-7.335-14.673-21.154-29-48-29-34.181 0-60 22.652-60 57 0 33.6 24.679 57.223 58 58 1.141 2.171 3.609 2.548 6 2a5.125 5.125 0 0 0 0-10 5.02 5.02 0 0 0-6 2c-1.938-.054-4.078.254-6 0l4-5a76.254 76.254 0 0 0 16 1l2 8h2a77.75 77.75 0 0 0 10-2c1.767 1.78 3.863 2.314 6 1s3.791-3.62 3-6a6.147 6.147 0 0 0-6-4 5.935 5.935 0 0 0-5 5 58.178 58.178 0 0 1-6 1l-1-4a65.16 65.16 0 0 0 15-4 5.9 5.9 0 0 0 6 1 5.455 5.455 0 0 0 3-5 6.026 6.026 0 0 0-2-4zm-55 4a2 2 0 1 1-2 2 2.015 2.015 0 0 1 2-2zm26-8a2 2 0 1 1-2 2 2.015 2.015 0 0 1 2-2zm-7 22a2 2 0 1 1-2 2 2.015 2.015 0 0 1 2-2zm27-4a2 2 0 1 1-2 2 2.015 2.015 0 0 1 2-2zm6-8a2 2 0 1 1 2-2 2.015 2.015 0 0 1-2 2z"
      fill="#fff"></path>
  </symbol>
  <symbol xmlns="http://www.w3.org/2000/svg" viewBox="0 0 230.276 254.515" id="csharp">
    <g fill-rule="evenodd">
      <path d="M108.49 1.735a13.615 13.615 0 0 1 13.289 0c20.331 11.411 81.512 45.758 101.849 57.168a12.843 12.843 0 0 1 6.648 11.187v114.332a12.86 12.86 0 0 1-6.648 11.193c-20.331 11.411-81.511 45.758-101.848 57.169a13.614 13.614 0 0 1-13.289 0c-20.332-11.411-81.512-45.758-101.849-57.169A12.857 12.857 0 0 1 0 184.428V70.096a12.86 12.86 0 0 1 6.648-11.193C26.973 47.493 88.165 13.146 108.49 1.735z"
        fill="#37474f"></path>
      <path d="M1.842 190.306C.23 188.149 0 186.1 0 183.343V69.666A12.77 12.77 0 0 1 6.63 58.54C26.888 47.2 87.862 13.048 108.12 1.7a14.605 14.605 0 0 1 13.762.048c20.258 11.344 81.027 45.2 101.285 56.545a12.681 12.681 0 0 1 4 3.49z" fill="#546e7a"></path>
      <path d="M115.137 42.421a84.838 84.838 0 1 1-84.838 84.838 84.877 84.877 0 0 1 84.838-84.838zm0 42.419a42.419 42.419 0 1 1-42.419 42.419 42.439 42.439 0 0 1 42.419-42.419z" fill="#fff"></path>
      <path d="M227.154 61.838c3.127 2.927 3.066 7.339 3.066 10.811 0 23-.194 88.408.055 111.4a13.163 13.163 0 0 1-1.957 6.829l-115.647-63.619z" fill="#455a64"></path>
      <path d="M175.737 103.019h6.06v48.479h-6.06zm18.18 0h6.06v48.479h-6.06z" fill="#fff"></path>
      <path d="M163.617 133.319h48.479v6.06h-48.479zm0-18.18h48.479v6.06h-48.479z" fill="#fff"></path>
    </g>
  </symbol>
  <symbol xmlns="http://www.w3.org/2000/svg" viewBox="0 0 218 275" id="css">
    <path d="M168 6H6v262h205V50z" fill="#e4e4e4"></path>
    <path d="M175 28H6V6h162zM65 112a11.728 11.728 0 0 0 7-2 5.958 5.958 0 0 0 3-5V95c0-3.771.672-7.128 2-9a10.054 10.054 0 0 1 6-4c3-.854 6.709-1 12-1v11a9.281 9.281 0 0 0-4 1 3.956 3.956 0 0 0-2 1 5.433 5.433 0 0 0-1 3v11a10.134 10.134 0 0 1-3 7c-1.533 1.641-3.556 2.512-7 3a11.71 11.71 0 0 1 7 4c1.518 1.6 3 3.07 3 6v12a2.455 2.455 0 0 0 1 2 3.781 3.781 0 0 0 2 1 11.426 11.426 0 0 0 4 1v11c-5.344 0-9.017-.133-12-1a10.052 10.052 0 0 1-6-4c-1.316-1.886-2-5.174-2-9v-10a5.92 5.92 0 0 0-3-5 11.9 11.9 0 0 0-7-2v-12zm88 12a11.965 11.965 0 0 0-7 2 5.92 5.92 0 0 0-3 5v10c0 3.8-.67 7.1-2 9a10.038 10.038 0 0 1-6 4c-2.984.867-7.683 1-13 1v-11c2.931-.109 5.888-.307 7-1s1-1.589 1-3v-12c0-2.93.481-4.4 2-6a14.839 14.839 0 0 1 8-4c-3.445-.488-5.469-1.359-7-3a10.138 10.138 0 0 1-3-7V97a5.228 5.228 0 0 0-1-3 4.227 4.227 0 0 0-2-1 16.026 16.026 0 0 0-5-1V81c5.317 0 10.016.146 13 1a10.094 10.094 0 0 1 6 4c1.33 1.872 2 5.229 2 9v10a5.985 5.985 0 0 0 3 5 11.7 11.7 0 0 0 7 2z"
      fill="#004a94"></path>
    <path d="M168 50h43L168 6z" fill="#d1d3d3"></path>
    <path d="M216 45L172 2a5.33 5.33 0 0 0-4-2H6a5.7 5.7 0 0 0-6 6v262c0 3.574 2.426 7 6 7h205a7.409 7.409 0 0 0 7-7V50a7.6 7.6 0 0 0-2-5zm-42-23l22 22h-22V22zM13 13h148v9H13zm192 249H13V35h148v15a7.409 7.409 0 0 0 7 7h37v205zM79 210a16.569 16.569 0 0 1 5 1 32.993 32.993 0 0 1 4 2l4-9a30.284 30.284 0 0 0-13-3c-4.1 0-7.969.253-11 2a18.72 18.72 0 0 0-7 8c-1.615 3.247-2 6.714-2 11 0 6.854 1.668 12.375 5 16s7.75 5 14 5c4.362 0 8.545-.471 12-2v-9c-1.737.718-3.282.49-5 1a16.724 16.724 0 0 1-5 1c-6.061 0-10-4.032-10-12a15.734 15.734 0 0 1 3-9 6.526 6.526 0 0 1 6-3zm30 1a4.589 4.589 0 0 1 3-1 22.677 22.677 0 0 1 10 2l3-8a31.661 31.661 0 0 0-13-3c-4.853 0-8.224.867-11 3s-5 5.186-5 9a11.71 11.71 0 0 0 1 5 11.066 11.066 0 0 0 3 4 35.482 35.482 0 0 0 7 4c2.983 1.341 4.309 1.566 5 2a10.278 10.278 0 0 1 2 2c.312.425 0 .434 0 1a2.137 2.137 0 0 1-1 2 7.352 7.352 0 0 1-4 1 22.7 22.7 0 0 1-6-1c-2.3-.613-4.867-.9-7-2v10a26.767 26.767 0 0 0 6 2c1.869.387 4.244 0 7 0 3.305 0 6.546.1 9-1s3.7-3.007 5-5a12.78 12.78 0 0 0 2-7 11.329 11.329 0 0 0-2-7c-1.387-1.841-3.432-3.395-7-5-3.72-1.7-6.16-2.358-7-3s-1-2.188-1-3c0-.754.34-.49 1-1zm33 0a4.589 4.589 0 0 1 3-1 22.68 22.68 0 0 1 10 2l4-8a31.661 31.661 0 0 0-13-3c-4.853 0-9.224.867-12 3s-4 5.186-4 9a11.711 11.711 0 0 0 1 5 11.057 11.057 0 0 0 3 4 25.021 25.021 0 0 0 6 4c2.983 1.341 5.31 1.566 6 2s.688 1.575 1 2 0 .434 0 1a2.139 2.139 0 0 1-1 2 4.1 4.1 0 0 1-3 1 30.074 30.074 0 0 1-7-1 26.167 26.167 0 0 1-6-2v10a26.767 26.767 0 0 0 6 2c1.869.387 3.244 0 6 0 3.3 0 6.545.1 9-1a14.575 14.575 0 0 0 6-5 12.78 12.78 0 0 0 2-7 11.335 11.335 0 0 0-2-7c-1.387-1.841-4.432-3.395-8-5-3.72-1.7-6.159-2.358-7-3s-1-2.188-1-3c-.001-.754.339-.49 1-1z"
      fill="#333e48"></path>
  </symbol>
  <symbol xmlns="http://www.w3.org/2000/svg" viewBox="0 0 251.535 283.719" id="css3">
    <g fill-rule="evenodd">
      <path d="M228.926 253.266L251.243 3.279 251.535 0H0l.292 3.279 22.29 250.027.186 2.085 2.008.556 100.038 27.772h1.605l100.31-27.812 2.008-.556z" fill="#1572b6"></path>
      <path d="M232.15 17.734H125.768v247.765l86.4-23.955z" fill="#35a8db"></path>
      <g fill="#e9e9e8">
        <path d="M125.65 84.296l-75.033 31.249 2.489 30.938 72.544-31.017 77.167-32.995 3.2-31.649z"></path>
        <path d="M125.649 50.826h80.367l-.634 6.264-.634 6.264-.634 6.264-.634 6.266-.634 6.264-.031.326H47.771l-.11-.9-.634-5.126-.633-5.125-.634-5.127-.633-5.125-.633-5.125-.633-5.125h81.789zM50.732 115.55H200.09l-2.721 31.29-144.149-.357z"></path>
        <path d="M55.4 163.913l32.672.013 2.132 25.585 35.446 8.791 36.39-10.213 2.462-41.839 32.964-.517-5.911 67.96-65.787 19.2-66.261-19.559z"></path>
      </g>
      <g fill="#fffffe">
        <path d="M125.768 115.415l77.049-32.941 3.2-31.649-80.249 33.421z"></path>
        <path d="M125.768 50.826h80.249l-.634 6.264-.634 6.264-.634 6.264-.634 6.266-.634 6.264-.031.326h-77.048zm0 64.724h74.323l-2.721 31.29-71.6-.177z"></path>
        <path d="M125.768 198.272l36.272-10.18 2.462-41.839 32.964-.517-5.911 67.96-65.787 19.2v-34.624z"></path>
      </g>
    </g>
  </symbol>
  <symbol xmlns="http://www.w3.org/2000/svg" viewBox="0 0 262.32 248.474" id="d3">
    <path d="M261.923 180.021l.267-3.454c.08-1.374-82.581-79.8-82.581-79.8h-1.967s83.784 88.375 84.291 83.255zM85.564 152.812l-.331.722-.359.752c-2.635 5.491 36.889 44.132 40.067 39.439l.435-.633.479-.718c2.542-3.859-39.163-42.06-40.292-39.551zm55.85 54.335a10.677 10.677 0 0 1-1.634 2.3c-.123.248 38.583 38.632 38.583 38.632h3.486s-36.335-39.309-40.435-40.932z"
      fill="#f9a03c"></path>
    <path d="M262.246 175.867a75.744 75.744 0 0 1-75.567 72.213h-5.484l-40.5-39.9a145.174 145.174 0 0 0 9.187-14.643h36.8a21.111 21.111 0 0 0 0-42.222H164.9a145.385 145.385 0 0 0 2.567-27.07 144.793 144.793 0 0 0-2.643-27.48h13.528L262 179.192q.149-1.66.239-3.324zM22 0H0v54.546h22a69.78 69.78 0 0 1 69.7 69.7 69.294 69.294 0 0 1-6.476 29.292l40.153 39.562a123.5 123.5 0 0 0 20.887-68.849A124.4 124.4 0 0 0 22 0z"
      fill="#f26d58"></path>
    <path d="M186.679 0H97.57a146.447 146.447 0 0 1 52.068 54.546h37.042a21.11 21.11 0 1 1 0 42.219h-8.325L262 179.193c.2-2.235.32-4.486.32-6.771a75.272 75.272 0 0 0-17.55-48.385A75.6 75.6 0 0 0 186.679 0z" fill="#b84e51"></path>
    <path d="M181.195 248.081H98.209a146.723 146.723 0 0 0 42.482-39.9zm-55.818-54.989l-40.141-39.568A69.8 69.8 0 0 1 22 193.934H0v54.54h22a124.231 124.231 0 0 0 103.377-55.394z" fill="#f9a03c"></path>
  </symbol>
  <symbol xmlns="http://www.w3.org/2000/svg" viewBox="0 0 130.276 167.855" id="django">
    <path d="M59.166 0h27.476v127.045c-14.079 2.675-24.391 3.743-35.669 3.743C17.465 130.788 0 115.639 0 86.588c0-27.985 18.537-46.16 47.23-46.16a43.7 43.7 0 0 1 11.941 1.424zm0 63.95a27.275 27.275 0 0 0-9.266-1.424c-13.9 0-21.926 8.555-21.926 23.526 0 14.616 7.664 22.634 21.769 22.634a64.448 64.448 0 0 0 9.442-.708zm71.11-21.567v63.627c0 21.926-1.605 32.438-6.415 41.526-4.459 8.734-10.339 14.257-22.456 20.318l-25.487-12.116c12.117-5.7 18-10.69 21.769-18.359 3.921-7.868 5.167-16.932 5.167-40.81V42.383zM102.829.147h27.447v28.16h-27.447z"
      fill="#092e20"></path>
  </symbol>
  <symbol xmlns="http://www.w3.org/2000/svg" viewBox="0 0 286.96 201.932" id="docker">
    <path d="M247.876 71.654c2.547-11.3-.6-24.623-16.285-39.084-25.5 23.079-18.206 47.076-9.771 58.625 0 0-1.081 6.514-26.056 6.514H.347s-11.94 104.223 104.223 104.223c101.572 0 130.1-78.187 135.672-98.2a54.21 54.21 0 0 0 7.634.5c13.985-.111 32.114-7.628 39.084-35.722-18.486-6.412-30.361-3.514-39.084 3.144z"
      fill="#03a9f4"></path>
    <path d="M1.422 123.765c4.788 30.87 24.87 78.167 103.148 78.167 79.372 0 114.144-47.747 128.207-78.167z" fill="#0288d1"></path>
    <path d="M116.373 201.528c-5.993-2.094-33.039-7.101-37.859-45.194a101.1 101.1 0 0 1-62.4 6.566c14.082 21.034 40.194 39.034 88.456 39.034 4.058 0 7.973-.159 11.803-.406z" fill="#81d4fa"></path>
    <path d="M104.57 136.793a13.028 13.028 0 1 0 13.028 13.028 13.028 13.028 0 0 0-13.028-13.028z" fill="#fff"></path>
    <path d="M84.468 160.223c1.459 3.29.13 7.569-3.322 8.585-21.499 6.339-40.035 7.179-54.046 7.179A79.3 79.3 0 0 1 16.313 163.2c16.839 0 43.709-.782 59.563-6.292 3.4-1.186 7.133.013 8.592 3.315zM.347 117.251s12.214.814 19.542-6.514c12.214 11 38.693 7.087 45.6 0 6.924 11 45.194 8.957 52.112 0 8.142 9.367 43.155 11.4 52.112 0 3.12 9.517 44.419 12.207 52.111 0 6.911 7.087 32.98 12.624 47.623 0 3.674 7.739 17.516 6.514 17.516 6.514v6.514H.347m97.709 26.056a6.514 6.514 0 1 0 6.514-6.514 6.516 6.516 0 0 0-6.514 6.514z"
      fill="#37474f"></path>
    <path d="M58.973 97.709h-32.57V65.14h32.57zm65.139-32.57h-32.57v32.57h32.57zm65.139 0h-32.57v32.57h32.57zM91.542 32.57H58.973v32.57h32.57zm65.139 0h-32.57v32.57h32.57z" fill="#01579b"></path>
    <path d="M91.542 97.709h-32.57v-32.57h32.57zm65.139-32.57h-32.57v32.57h32.57zm0-65.139h-32.57v32.57h32.57zm-32.57 32.57H91.542v32.57h32.57z" fill="#0288d1"></path>
  </symbol>
  <symbol xmlns="http://www.w3.org/2000/svg" viewBox="0 0 208.902 209.177" id="dot">
    <g fill="#283593">
      <path d="M68.901 201c-18.276-10.306-28.107-36.139-18-53 9.224-16 35.889-24.756 60-10 12.98 7.981 29.254 15 48 15 17.315 0 32.854-10.534 42-26a87.915 87.915 0 0 0 8-17c-.486 16.4-5.87 32.993-15 48-23.081 39.833-86.535 65.021-125 43z"></path>
      <path d="M39.902 26c18.161-9.48 46.4-6.475 55 12 7.652 16.584 7.126 40.432-24 57-13.382 7.109-28.392 15.876-37 32-8.122 15.163-9.089 32.881 0 49 3.343 5.683 7.662 11.683 11 15a98.784 98.784 0 0 1-34-37c-21.604-38.94-10.671-107.133 29-128z"></path>
      <path d="M203.902 83c0 20.057-17.593 42-38 42-18.981 0-38-10.539-38-46 0-14.923-1.509-32.061-11-47-9.01-14.448-26.478-23.47-45-23-5.1.005-10.5-.227-15 1 3.134-1.442 6.038-2.261 11-4a114.754 114.754 0 0 1 35-6c46.513 0 100.519 39.631 101 83z"></path>
    </g>
  </symbol>
  <symbol xmlns="http://www.w3.org/2000/svg" viewBox="0 0 208.544 226.063" id="electron">
    <g fill="#47848f" fill-rule="evenodd">
      <path d="M73.543 48.589c-29.54-5.38-52.9.247-62.21 16.375C4.39 76.995 6.371 92.95 16.148 110a3.03 3.03 0 0 0 5.256-3.017c-8.806-15.365-10.519-29.13-4.825-39 7.771-13.389 28.568-18.412 55.88-13.439a3.028 3.028 0 0 0 1.084-5.959zM31.51 130.692c11.946 13.126 27.463 25.439 45.163 35.658 42.888 24.743 88.507 31.384 110.961 16.054a3.03 3.03 0 0 0-3.416-5.005c-20.123 13.719-63.46 7.439-104.554-16.266-17.167-9.911-32.2-21.836-43.711-34.489a3.031 3.031 0 1 0-4.482 4.08zm148.98-3.649c19.342-22.853 26.1-45.834 16.806-61.92-6.835-11.84-21.285-18.092-40.493-18.339a3.03 3.03 0 0 0-.081 6.058c17.308.226 29.724 5.609 35.322 15.312 7.718 13.366 1.7 33.86-16.185 54.983a3.03 3.03 0 1 0 4.624 3.917zm-49.711-77.451c-17.489 3.744-36.106 11.074-53.983 21.395C32.559 96.525 3.7 134.224 7.702 161.493a3.03 3.03 0 0 0 5.994-.88c-3.556-24.245 23.794-59.941 66.124-84.42 17.308-10.014 35.368-17.107 52.224-20.72a3.03 3.03 0 0 0-1.268-5.924z"></path>
      <path d="M59.115 180.433c10.112 28.241 26.658 45.63 45.265 45.63 13.571 0 26.124-9.254 35.912-25.538a3.03 3.03 0 1 0-5.192-3.122c-8.827 14.633-19.604 22.599-30.72 22.599-15.453 0-30.211-15.542-39.561-41.61a3.03 3.03 0 0 0-5.7 2.045zm92.378-5.524c5.235-16.732 8.046-36.029 8.046-56.145 0-50.186-17.566-93.449-42.584-104.554a3.03 3.03 0 1 0-2.458 5.539c22.317 9.9 38.982 50.966 38.982 99.019 0 19.512-2.72 38.2-7.771 54.336a3.03 3.03 0 1 0 5.782 1.812zm57.052-2.967a14.517 14.517 0 1 1-.035 0zm-6.058 0a8.438 8.438 0 1 1-8.438-8.438 8.442 8.442 0 0 1 8.438 8.438z"></path>
      <path d="M14.499 186.441a14.5 14.5 0 1 0-14.5-14.5 14.5 14.5 0 0 0 14.5 14.5zm0-6.058a8.438 8.438 0 1 1 8.438-8.438 8.442 8.442 0 0 1-8.438 8.438zM104.38 28.964A14.482 14.482 0 1 0 89.88 14.5a14.5 14.5 0 0 0 14.5 14.464zm0-6.058a8.438 8.438 0 1 1 8.438-8.438 8.442 8.442 0 0 1-8.438 8.438zm2.211 106.108a10.491 10.491 0 1 1 8.04-12.469 10.49 10.49 0 0 1-8.04 12.469z"></path>
    </g>
  </symbol>
  <symbol xmlns="http://www.w3.org/2000/svg" viewBox="0 0 200 116.043" id="express">
    <path d="M200 113.753c-7.275 1.85-11.963.062-16-6l-29-40-4-6-33 46c-3.831 5.456-7.85 7.931-15 6l43-58-40-52c6.875-1.337 11.782-1.156 16 5l29 41 30-40c3.843-5.456 8.1-8.012 15-6l-15 21-21 27c-2.5 3.125-2.3 4.981 0 8zm-200-59l4-17c9.562-34.185 47.977-49.124 75-28 15.793 12.424 19.781 30.314 19 50H9c-1.337 35.435 24.483 56.912 57 46 11.405-3.831 17.638-12.826 21-24 1.706-5.6 4.738-6.6 10-5-2.687 13.974-8.188 25.694-21 33-19.142 10.937-46.626 7.2-61-8-8.562-8.818-12.413-20.051-14-32-.25-1.975-.625-3.106-1-5 .034-3.234 0-6.771 0-10zm9-2h81c-.525-25.623-16.2-43.844-38-44-23.936-.188-41.962 17.601-43 44z"></path>
  </symbol>
  <symbol xmlns="http://www.w3.org/2000/svg" viewBox="0 0 156 217.254" id="firebase">
    <path d="M103 78.25l-22 20-20-40 10-24c2.641-4.689 7.359-4.7 10 0z" fill="#ffa000"></path>
    <path d="M81 98.253l-81 76 61-116z" fill="#f57f17"></path>
    <path d="M126 47.254c3.882-3.732 7.977-2.287 9 3l21 123-70 42c-2.452 1.354-9 2-9 2s-5.741-.746-8-2l-69-41z" fill="#ffca28"></path>
    <path d="M61 58.253l-61 116 27-170c1-5.291 3.313-5.671 6-1z" fill="#ffa000"></path>
  </symbol>
  <symbol xmlns="http://www.w3.org/2000/svg" viewBox="0 0 219.744 219.744" id="gatsby">
    <path d="M196.201 109.871h-54.936v15.691h37.665c-5.494 23.543-22.764 43.159-45.518 51.011L43.16 86.328c9.418-27.468 36.1-47.087 66.713-47.087 23.543 0 44.738 11.777 58.074 29.823l11.777-10.2a86.539 86.539 0 0 0-69.852-35.321c-40.811 0-75.341 29.037-83.973 67.492l103.588 103.589c37.665-9.418 66.713-43.949 66.713-84.759zm-172.657.79c0 21.974 8.632 43.159 25.113 59.64a85.185 85.185 0 0 0 59.64 25.113z"
      fill="#fff"></path>
    <path d="M109.872 0C49.442 0 0 49.442 0 109.872s49.442 109.872 109.872 109.872S219.744 170.3 219.744 109.872 170.3 0 109.872 0zM48.653 171.091a85.185 85.185 0 0 1-25.113-59.64l85.542 84.749c-21.974-.79-43.949-8.632-60.43-25.113zm80.047 22.764L25.9 91.036c8.632-38.455 43.163-67.492 83.973-67.492A86.55 86.55 0 0 1 179.72 58.86l-11.777 10.2c-13.332-18.046-34.527-29.813-58.071-29.813-30.606 0-56.505 19.619-66.713 47.087l90.256 90.253c22.764-7.849 40.024-27.468 45.518-51.011h-37.665v-15.7H196.2c0 40.811-29.037 75.341-67.492 83.973z"
      fill="#639"></path>
  </symbol>
  <symbol xmlns="http://www.w3.org/2000/svg" viewBox="0 0 278.629 278.631" id="git">
    <path d="M136.31 278.415a18.447 18.447 0 0 1-6.731-2.778c-.894-.586-12.948-12.56-63-62.585-34.043-34.023-62.287-62.342-62.765-62.931a17.622 17.622 0 0 1-3.537-7.554 14.156 14.156 0 0 1-.252-4.054 13.849 13.849 0 0 1 .463-3.981 21.074 21.074 0 0 1 2.61-5.638c.611-.9 9.634-10.011 43.023-43.421 23.238-23.252 42.317-42.277 42.4-42.277s7.172 7.023 15.756 15.608l15.607 15.608-.4 1.145a21.961 21.961 0 0 0-.06 14 25.18 25.18 0 0 0 3.142 5.987 23.316 23.316 0 0 0 7.712 6.461l1.216.607v76.35l-1.6.831a20.409 20.409 0 0 0-5.566 4.234 21.391 21.391 0 0 0-3.949 24.145 20.5 20.5 0 0 0 4.666 6.432 21.839 21.839 0 0 0 10.724 5.612 30.711 30.711 0 0 0 8.4-.01 21.773 21.773 0 0 0 17.024-17.047 26.8 26.8 0 0 0 .162-7.411 21.682 21.682 0 0 0-10.588-15.545l-1.143-.66v-37.504c0-20.63.05-37.509.111-37.509s6.443 6.332 14.182 14.072l14.071 14.072-.4 1.153a22.636 22.636 0 0 0-.852 10.492 21.651 21.651 0 0 0 42.649.421 24.507 24.507 0 0 0 .066-7.626 21.788 21.788 0 0 0-17.56-17.642 26.773 26.773 0 0 0-7.519 0c-.73.142-1.744.381-2.253.532l-.926.274-15.357-15.3-15.357-15.3.392-1.607a20.192 20.192 0 0 0 .648-6.4 21 21 0 0 0-2.956-10.078 21.808 21.808 0 0 0-15.645-10.41 24.974 24.974 0 0 0-8.99.659l-.734.227-15.926-15.927-15.926-15.927 13.122-13.1c9.229-9.214 13.45-13.33 14.228-13.871a18.935 18.935 0 0 1 7.646-3.108 22.37 22.37 0 0 1 7.129.357 17.531 17.531 0 0 1 6.53 3.272c.654.512 28.717 28.478 63.039 62.821 48.935 48.965 62.005 62.12 62.556 62.962a18.438 18.438 0 0 1 2.827 6.952 23.465 23.465 0 0 1 0 6.229 18.794 18.794 0 0 1-3.031 7.207c-1.101 1.592-123.873 124.367-125.458 125.467a18.793 18.793 0 0 1-7.207 3.031 24.919 24.919 0 0 1-6.408-.019z"
      fill="#f05033"></path>
  </symbol>
  <symbol xmlns="http://www.w3.org/2000/svg" viewBox="0 0 219.247 246.347" id="graphql">
    <g fill="#e10098">
      <path d="M19.954 187.749l-9.033-5.223L111.662 8.044l9.033 5.22z"></path>
      <path d="M8.843 168.583h201.5v10.445H8.843z"></path>
      <path d="M113.621 232.65L12.834 174.462l5.223-9.033 100.782 58.188zm87.548-151.67L100.379 22.8l5.223-9.033 100.782 58.188z"></path>
      <path d="M18.082 80.947l-5.223-9.032L113.732 13.71l5.223 9.033z"></path>
      <path d="M199.313 187.749L98.556 13.249l9.033-5.222 100.758 174.5zM16.833 64.983h10.445V181.36H16.833zm175.139 0h10.445V181.36h-10.445z"></path>
      <path d="M111.842 228.224l-4.557-7.9 87.66-50.609 4.557 7.9z"></path>
      <path d="M216.25 184.76a16.083 16.083 0 1 0-.008 0M40.992 83.542a59.925 59.925 0 1 1 0-.008m-38 101.226a16.083 16.083 0 1 1 0 .008M178.259 83.55a21.968 21.968 0 1 1 30.006 8.056 22.007 22.007 0 0 1-30.006-8.056m-68.633 162.8a21.958 21.958 0 1 1 21.958-21.95 21.958 21.958 0 0 1-21.958 21.95m0-202.435a9.094 9.094 0 1 0 0-.008"></path>
    </g>
  </symbol>
  <symbol xmlns="http://www.w3.org/2000/svg" viewBox="0 0 114.552 257.445" id="gulp">
    <g fill="#da4648">
      <path d="M92.544 15.966c-8.266 8.759-15.267 16.394-15.524 16.91-.253.6-1.772 6.181-3.286 12.362l-2.789 11.419h-8.607c-13.587 0-38.887 1.634-47.664 3.176-4.391.686-9.537 2.062-11.387 3.005L.001 64.559l1.938 1.634c4.635 3.862 19.736 5.841 48.258 6.531 35.182.778 64.026-2.748 64.026-7.815 0-2.407-11.308-5.5-22.948-6.269-3.963-.258-7.765-.778-8.354-1.114-.842-.6-.764-1.8.087-6.181 2.7-12.791 3.208-13.647 13.163-24.467 18.64-20.265 18.986-20.771 18.134-22.5-.93-1.634-4.557-4.382-5.91-4.382-.405-.005-7.497 7.212-15.851 15.97z"></path>
      <path d="M2.366 77.429c.589 8.331 4.3 43.867 5.233 50.4l.589 3.783 2.113-5.067c5.307-12.878 14.931-22.663 22.267-22.663 4.98 0 10.963 6.78 9.118 10.3-1.261 2.407-1.694 2.228-5.146-1.8-2.7-3.176-3.286-3.526-5.486-3.005-7.168 1.89-17.968 21.29-18.056 32.368 0 12.027 14.337.515 19.736-15.8.589-1.97 3.627-1.892 4.3.17.511 1.8-8.441 31.684-10.121 33.484-1.349 1.464-2.955.515-2.955-1.8a34 34 0 0 1 1.349-6.439c.764-2.577 1.1-4.9.842-5.238-.253-.258-1.606.515-2.867 1.721-4.05 3.783-6.416 4.975-9.79 4.975h-3.286l.511 7.9c.331 4.382 1.183 13.476 1.938 20.178l1.436 12.192 3.374 1.372c9.537 3.862 16.542 4.9 36.024 5.325 14.848.35 20.666.17 26.575-.944 10.544-1.8 18.811-4.547 19.828-6.531 1.017-1.892 1.938-8.331 4.216-28.936 2.278-20.265 2.444-18.972-2.531-14.94-4.722 3.783-8.938 5.067-11.727 3.6-3.042-1.721-2.278-4.211 3.885-12.275 3.885-4.975 4.216-6.867 1.017-6.094-4.722 1.284-10.034 9.707-15.943 25.153-3.123 8.259-4.891 10.659-7.092 9.797-2.025-.778-1.436-3.691 2.867-12.961 1.859-4.119 3.286-7.553 3.121-7.645-.166-.17-1.514.6-3.042 1.8-3.963 2.918-7.424 3.526-9.362 1.721-1.514-1.372-1.859-1.372-5.565.087-3.8 1.464-3.963 1.464-5.067-.087a6.15 6.15 0 0 1-1.183-3.263c0-1.464-.331-1.284-2.867.944-4.893 4.29-10.544 4.382-11.893.17-.589-1.97 2.191-11.764 4.893-17.172 1.261-2.49 2.61-3.954 3.8-4.119 2.531-.428 2.444 1.8-.331 7.981a29.909 29.909 0 0 0-2.366 7.553c-.087 2.407.166 2.748 2.025 2.577 2.789-.341 6.163-4.469 9.7-12.1 2.789-5.841 4.98-7.723 5.91-5.067.253.6-.677 4.211-2.113 8.151a62.927 62.927 0 0 0-2.531 8.331c0 1.372 3.042 1.721 4.893.6.589-.428 4.05-8.409 7.765-17.688 3.719-9.357 7.171-17.766 7.677-18.636.842-1.721 3.719-2.228 4.557-.778.253.428-1.349 5.4-3.627 10.9-5.818 14.084-9.449 24.039-9.449 25.581 0 2.062 1.694 1.542 6.494-2.228a19.1 19.1 0 0 0 7.093-9.1c1.859-4.119 2.789-5.5 3.885-5.238a2.613 2.613 0 0 1 1.772 2.228l.253 1.97 2.61-2.228c4.216-3.6 8.441-3.954 10.466-.856 1.017 1.542.842 2.32-.93 6.011a39.526 39.526 0 0 1-4.722 7.465c-3.374 4.032-2.61 5.067 1.514 2.149 8.519-6.011 8.519-6.011 9.868-17.338 1.183-9.279 3.963-35.375 5.146-47.65.253-2.577.677-6.181.93-7.9l.511-3.176-4.216 1.206c-9.615 2.918-21.6 4.032-47.83 4.469-23.036.341-27.758.258-39.651-1.372-7.424-.944-15.188-2.32-17.214-3.1l-3.722-1.29z"></path>
      <path d="M17.214 197.97a40.273 40.273 0 0 0 3.286 6.269l3.286 5.666 1.349 19.322c.764 10.65 1.349 19.92 1.349 20.693 0 2.228 6.075 4.975 14.429 6.439 6.075 1.036 11.051 1.284 21.011.944 13.242-.428 19.483-1.634 24.3-4.469 2.867-1.721 2.444 1.206 4.3-30.22.764-12.878.842-13.219 3.885-18.8 1.694-3.1 2.955-5.753 2.789-5.924-.166-.258-2.191.17-4.469.944-19.57 6.011-57.532 5.4-74.24-1.036-.695-.256-1.275-.256-1.275.172z"></path>
    </g>
  </symbol>
  <symbol xmlns="http://www.w3.org/2000/svg" viewBox="0 0 232.933 264.438" id="html5">
    <path d="M21.176 237.581L0 0h232.933l-21.176 237.581-95.549 26.857" fill="#e34f26"></path>
    <path d="M116.725 243.779l76.956-21.176L211.758 19.11h-95.033" fill="#ef652a"></path>
    <path d="M116.724 107.428h-38.74l-2.582-29.956h41.322V48.549h-73.34l.516 7.747 7.231 80.571h65.593zm0 75.923h-.516l-32.538-8.78-2.066-23.242h-28.92l3.615 45.967 59.912 16.527h.516z" fill="#ebebeb"></path>
    <path d="M116.208 107.428v29.439h36.154l-3.615 37.7-32.539 8.782v30.472l59.912-16.527.516-5.165 6.714-76.956 1.033-7.747h-68.175zm0-58.879v28.923h70.758l.516-6.2 1.549-14.978.517-7.745z" fill="#fff"></path>
  </symbol>
  <symbol xmlns="http://www.w3.org/2000/svg" viewBox="0 0 260 260" id="javascript">
    <path d="M0 260V0h260v260z" fill="#ffd600"></path>
    <path d="M170 195c5 8.123 10.487 16 22 16 9.67 0 15-5.351 15-12 0-7.957-5.362-10.367-16-15l-6-3c-16.832-7.141-28-16.1-28-35 0-17.418 13.164-30 34-30 14.838 0 25.31 4.543 33 18l-18 12c-4-7.141-8.3-10-15-10-6.837 0-11 4.363-11 10 0 6.967 3.99 9.685 14 14l6 2c19.839 8.449 31 17.6 31 37 0 20.9-15.841 32-38 32-21.674 0-34.149-10.536-41-24zm-84 0c3.657 6.548 10.007 12 18 12 7.646 0 12-3.256 12-15v-76h24v80c0 24.334-14.388 35-35 35-18.625 0-32.522-12.277-38-24z"
      fill="#000001"></path>
  </symbol>
  <symbol xmlns="http://www.w3.org/2000/svg" viewBox="0 0 160.072 144" id="lodash">
    <path d="M0 0h14.922v99.027h59.011v12.206H0zm120.459 26.862c-15.262-.2-30.521 9.5-35.271 24.211-6.783 16.958-3.662 38.255 9.629 51.208 12.888 10.717 32.285 11.505 46.8 3.934 9.97-5.29 16.277-15.807 17.633-26.862 1.763-11.505.883-24.146-4.747-34.591a37.352 37.352 0 0 0-32.557-17.838l-1.493-.2zm1.356 11.805a23.8 23.8 0 0 1 23.06 19.509c3.392 12.413 1.356 27.6-8.816 36.356-9.5 7.733-24.756 6.648-32.557-2.916C94 81.442 94 65.842 98.89 53.634a23.549 23.549 0 0 1 21.91-14.922h1.221z"></path>
    <path d="M0 127.042h160.072V144H0z" fill="#3492ff"></path>
  </symbol>
  <symbol xmlns="http://www.w3.org/2000/svg" viewBox="0 0 215.103 215.103" id="moment">
    <path d="M107.552 215.1A107.552 107.552 0 1 0 0 107.552 107.552 107.552 0 0 0 107.552 215.1zm0-16.133a91.419 91.419 0 1 1 91.419-91.419 91.418 91.418 0 0 1-91.419 91.423z" fill="#376660" fill-rule="evenodd"></path>
    <path d="M107.551 193.593a86.041 86.041 0 1 0-86.041-86.042 86.041 86.041 0 0 0 86.041 86.042zm0-166.705a5.393 5.393 0 0 0-5.378 5.415v69.872H64.51a5.378 5.378 0 0 0-.009 10.755h48.423V32.27a5.367 5.367 0 0 0-5.378-5.383z" fill="#529990" fill-rule="evenodd"></path>
  </symbol>
  <symbol xmlns="http://www.w3.org/2000/svg" viewBox="0 0 261.327 286.029" id="mssql">
    <defs>
      <linearGradient id="a" x1="-4.183" y1=".143" x2="-3.174" y2=".794" gradientUnits="objectBoundingBox">
        <stop offset="0" stop-color="#909ca9"></stop>
        <stop offset="1" stop-color="#ededee"></stop>
      </linearGradient>
      <linearGradient id="b" x1="-8.133" y1="37.388" x2="-6.64" y2="37.388" gradientUnits="objectBoundingBox">
        <stop offset="0" stop-color="#939fab"></stop>
        <stop offset="1" stop-color="#dcdee1"></stop>
      </linearGradient>
      <radialGradient id="c" cx=".443" cy=".439" r=".128" gradientTransform="matrix(-.691 -.149 -.208 1.978 -19.227 -9.973)">
        <stop offset="0" stop-color="#ee352c"></stop>
        <stop offset="1" stop-color="#a91d22"></stop>
      </radialGradient>
    </defs>
    <path d="M497.505 463.277l-57.281 18.7-49.834 21.994-13.942 3.681c-3.551 3.377-7.274 6.8-11.3 10.262-4.416 3.81-8.529 7.274-11.69 9.785a87.2 87.2 0 0 0-11.343 11.257c-3.94 4.936-7.057 10.174-8.4 14.2-2.382 7.274-1.212 14.634 3.377 21.432 5.888 8.659 17.622 17.491 31.3 23.509a198.911 198.911 0 0 0 27.536 9.222c14.677 3.724 43.08 7.75 58.709 8.357a67.3 67.3 0 0 0 7.576 0c.347-.217 2.771-4.849 5.586-10.607 9.612-19.614 16.539-38.015 20.306-53.731 2.251-9.525 4.026-22.211 5.195-37.234.3-4.2.433-18.271.173-23.034a161.773 161.773 0 0 0-2.164-20.306 4.682 4.682 0 0 1-.13-1.775c.173-.13.692-.3 7.75-2.338l-1.428-3.377zm-13.075 7.664c.52 0 1.9 13.292 2.251 21.692a11.6 11.6 0 0 1-.043 2.944c-.346 0-7.317-4.113-12.3-7.23-4.33-2.728-12.556-8.183-13.855-9.223-.434-.3-.391-.346 3.16-1.559 6.022-2.035 20.311-6.624 20.787-6.624zm-29.182 9.612c.39 0 1.385.562 3.766 2.035 8.919 5.585 21.042 12.34 26.238 14.591 1.6.693 1.774.432-1.905 2.944A188.715 188.715 0 0 1 453.6 516.1c-2.121.953-3.9 1.688-3.939 1.688a11.229 11.229 0 0 1 .519-2.381 127.658 127.658 0 0 0 4.634-30.438c.043-4.33.043-4.33.433-4.459-.087.043-.044.043 0 .043zm-6.018 2.294c.259.259.086 9.958-.26 12.6a110.191 110.191 0 0 1-3.983 18.835 28.912 28.912 0 0 1-1 3.03c-.174.216-6.106-5.585-8.054-7.837a58.585 58.585 0 0 1-7.966-11.6 36.483 36.483 0 0 1-2.425-5.888c.693-.476 23.51-9.308 23.683-9.135zm-28.316 11.127a.161.161 0 0 1 .13.043 8.093 8.093 0 0 1 .65 1.559 58.515 58.515 0 0 0 7.187 12.859 73.271 73.271 0 0 0 10 10.781c1.04.866 1.992 1.688 2.121 1.818.26.26.347.216-6.711 2.9-8.182 3.117-17.1 6.234-27.32 9.525q-3.661 1.18-7.316 2.381c-.391.13-.26-.087.865-1.861 5.065-7.924 12.772-23.467 17.1-34.464.736-1.905 1.472-3.81 1.6-4.243a1.562 1.562 0 0 1 .952-1.126 4.2 4.2 0 0 1 .736-.173zm-8.658 3.594a96.84 96.84 0 0 1-4.243 8.962c-4.2 8.183-8.789 16.236-14.937 26.021-1.039 1.688-2.034 3.247-2.165 3.421-.216.3-.3.216-1-1.126a39.7 39.7 0 0 1-3.331-10.046 40.425 40.425 0 0 1 .217-12.9c.562-2.684.52-2.641 1.818-3.29 5.542-2.815 23.467-11.215 23.64-11.042zm74.686 3.031v1.818a235.534 235.534 0 0 1-2.555 32.559c-.26 1.688-.477 3.073-.52 3.117 0 0-1.255-.346-2.727-.78a111.73 111.73 0 0 1-19.916-8.529c-4.2-2.295-10.3-6.062-10.131-6.235.043-.043 1.861-1 3.983-2.121a255.1 255.1 0 0 0 23.684-13.9c2.641-1.775 6.624-4.632 7.491-5.412l.693-.519zm-107.376 12.815c.173 0 .13.346-.13 1.905-.173 1.126-.389 3.2-.476 4.632-.347 6.321.693 11 3.81 17.405a35.977 35.977 0 0 1 1.515 3.29c-.3.26-28.965 8.66-37.971 11.128-2.684.736-5.022 1.385-5.2 1.428-.3.087-.346.044-.216-.693 1-6.364 5.845-14.677 12.6-21.691a56 56 0 0 1 14.245-10.911c4.416-2.511 11.214-6.277 11.733-6.451 0-.043.044-.043.087-.043zm67.542 12.08a17.5 17.5 0 0 1 2.338 1.256 130.437 130.437 0 0 0 33.164 12.9l1 .217-1.386.779c-5.758 3.2-24.679 11.084-44.032 18.315-2.815 1.039-5.585 2.078-6.106 2.294a3.124 3.124 0 0 1-1 .3c0-.044.78-1.559 1.775-3.421A213.637 213.637 0 0 0 446.5 527.1c.347-.823.563-1.558.607-1.6zm-6.884 2.252a12.462 12.462 0 0 1-.736 1.992A274.179 274.179 0 0 1 424.464 560c-1.6 2.858-2.944 5.153-2.988 5.153s-1.342-.78-2.9-1.732c-9.179-5.629-17.319-12.556-22.644-19.267l-.78-.953 3.94-1.083A282.688 282.688 0 0 0 437.107 529c1.693-.691 3.074-1.255 3.117-1.255zM483 542.683c.043 1-2.165 9.915-3.984 16.365-1.515 5.412-2.815 9.656-5.2 17.145-1.039 3.291-1.948 6.018-1.992 6.018a2.866 2.866 0 0 1-.563-.129 180.955 180.955 0 0 1-35.2-9.915c-3.031-1.213-7.361-3.161-7.62-3.377a50.517 50.517 0 0 1 5.8-2.728c19.7-8.616 40.135-18.4 47.149-22.6a5.644 5.644 0 0 1 1.61-.779zm-98.759 3.377c.087.086-5.412 8.01-13.119 18.79-2.684 3.767-5.8 8.183-6.97 9.828s-2.944 4.243-3.94 5.8l-1.819 2.814-1.948-1.645a72.122 72.122 0 0 1-8.053-8.227 35.533 35.533 0 0 1-7.23-13.984c-.476-2.079-.476-3.118-.044-3.247.649-.173 12.21-2.9 23.034-5.413 6.018-1.385 12.988-3.03 15.5-3.636s4.547-1.083 4.59-1.083zm5.542 2.122l1.385 1.558a81.3 81.3 0 0 0 20.307 16.626 11.371 11.371 0 0 1 2.338 1.516c-.3.216-26.757 9.611-39.01 13.854-6.884 2.424-12.556 4.373-12.6 4.373a7.458 7.458 0 0 1-.867-.563l-.779-.563 1.255-1.818c4.07-5.888 9.179-12.339 20.306-25.761l7.663-9.222zm34.552 24.718c.043-.043 1.948.649 4.285 1.516a138.556 138.556 0 0 0 16.063 4.979 177.8 177.8 0 0 0 24.289 4.2c.953.086 1.472.173 1.3.3-.3.173-6.667 2.295-11.344 3.767-7.448 2.338-30.178 9.048-48.708 14.374-3.421 1-6.365 1.818-6.538 1.861a3.431 3.431 0 0 1-1.862-.476 31.337 31.337 0 0 1 2.295-2.9 257 257 0 0 0 17.578-23.64c1.429-2.159 2.642-3.934 2.642-3.981zm-7.621.217c.043.043-3.031 4.979-8.4 13.464-2.3 3.594-4.85 7.663-5.759 9.092-.866 1.385-2.165 3.551-2.9 4.763l-1.256 2.208-.649-.173c-1.559-.433-12.513-4.287-15.414-5.456a107.213 107.213 0 0 1-10.088-4.632c-3.463-1.862-7.793-4.633-7.447-4.719.086-.043 6.018-1.646 13.162-3.594 18.964-5.153 29.485-8.14 36.369-10.3a17.337 17.337 0 0 1 2.382-.65zm53.9 12.642h.043c.173.433-6.84 19.917-9.4 26.064-.562 1.385-.778 1.732-1.082 1.688-.736-.043-10.91-1.471-17.1-2.381-10.78-1.645-28.878-4.806-33.424-5.845l-1.039-.216 6.45-1.473c13.855-3.117 20.523-4.806 27.277-6.884a192.794 192.794 0 0 0 25.5-9.828 20.9 20.9 0 0 1 2.771-1.126z"
      transform="translate(-332.512 -329.749)" fill="url(#a)"></path>
    <path d="M518.767 82.736c-.953-.129-16.323 5.413-26.238 9.439-13.379 5.456-23.769 10.652-30.177 15.154-2.381 1.689-5.369 4.676-5.844 5.845a4.047 4.047 0 0 0-.26 1.472l5.8 5.5 13.811 4.416 32.862 5.888 37.579 6.45.39-3.247c-.13 0-.217-.043-.345-.043l-4.937-.78-.995-1.775c-5.109-9.006-10.738-20.176-14.028-27.71a143.205 143.205 0 0 1-6.319-17.445c-.736-2.944-.822-3.117-1.3-3.16zm-.694 2.209h.045c.043.043.216 1.256.389 2.684a90.452 90.452 0 0 0 4.2 18.228c1.6 4.763 1.6 4.5-.26 3.94-4.416-1.212-24.2-4.632-38.533-6.624-2.295-.3-4.243-.606-4.243-.649-.173-.173 10.348-5.672 14.98-7.836 5.932-2.729 22.211-9.527 23.423-9.743zm-41.737 19.4l1.689.562c9.178 3.118 32.254 7.534 44.984 8.573 1.428.13 2.641.26 2.684.26a20.016 20.016 0 0 1-2.727 1.428c-6.147 3.074-12.9 6.841-17.578 9.742a17.951 17.951 0 0 1-2.814 1.559c-.173 0-1.082-.173-2.035-.3l-1.732-.26-4.329-4.243c-7.62-7.4-13.6-13.118-15.89-15.283zm-1.731 1.342l6.1 7.62c3.333 4.2 6.711 8.313 7.447 9.221a14.194 14.194 0 0 1 1.3 1.689c-.173.13-8.832-1.559-13.422-2.6-4.719-1.083-6.667-1.6-9.568-2.511l-2.382-.78v-.607c.043-2.9 3.724-7.23 9.958-11.646l.563-.39zm51.869 10.391c.174 0 .389.39.909 1.559 1.472 3.247 6.062 11.993 7.187 13.682.347.563.953.607-5.151-.389-14.677-2.382-19.4-3.16-19.4-3.247a4.493 4.493 0 0 1 1-.65 84.524 84.524 0 0 0 13.206-9.135c1-.823 1.905-1.6 2.078-1.732.043-.086.13-.13.173-.086z"
      transform="translate(-412.83 -82.734)" fill="url(#b)"></path>
    <path d="M415.642 167.757a4.314 4.314 0 0 0-.043 3.768c.563 1.385 2.208 3.073 4.07 4.805 0 0 19.267 18.79 21.6 21.475 10.65 12.3 15.283 24.419 15.716 41.131.26 10.737-1.776 20.176-6.841 31.13-9.006 19.657-28.013 41.348-57.324 65.421l4.287-1.429c2.771-2.079 6.538-4.286 15.37-9.135 20.392-11.171 43.339-21.432 71.482-32 40.524-15.241 107.158-33.079 145.085-38.88l3.941-.607-.607-.953a133.494 133.494 0 0 0-8.7-12.253 104.032 104.032 0 0 0-30.74-25.588c-16.972-9.481-38.924-16.885-66.719-22.384-5.239-1.04-16.756-3.031-26.107-4.46-19.83-3.073-32.646-5.2-46.76-7.62-5.065-.866-12.643-2.165-17.665-3.247a112.191 112.191 0 0 1-11.473-3.074c-3.117-1.213-7.62-2.425-8.573-6.105zm11.171 10.825a12.072 12.072 0 0 1 1.645.52c1.645.562 3.766 1.212 6.278 1.905q2.85.784 5.715 1.515c2.6.649 4.762 1.255 4.805 1.255.3.3 4.677 14.287 6.149 19.656.562 2.035 1 3.767.953 3.767a8.757 8.757 0 0 1-1.083-1.688c-5.066-8.919-13.076-17.968-22.341-25.242a18.456 18.456 0 0 1-2.121-1.688zm21.3 5.888a17.008 17.008 0 0 1 2.338.39c7.36 1.645 20.566 4.156 29.008 5.585a10.6 10.6 0 0 1 2.555.563 4.372 4.372 0 0 1-1.17.736c-1.428.736-7.187 4.156-9.092 5.455a82.947 82.947 0 0 0-12.253 9.785c-1.255 1.256-2.338 2.295-2.338 2.295s-.259-.736-.476-1.646a140.3 140.3 0 0 0-7.75-21.215 18.582 18.582 0 0 1-.866-1.991c.001.086.001.043.045.043zm37.494 7.144c.26.086.693 1.559 1.559 4.805a70.885 70.885 0 0 1 2.079 19.83 37.323 37.323 0 0 1-.26 3.724l-.13.432-2.251-.736c-4.633-1.472-12.166-3.681-18.617-5.5-3.681-1-6.667-1.905-6.667-1.992a102.35 102.35 0 0 1 7.663-7.663c4.372-3.854 16.235-13.032 16.625-12.9zm2.987.432c.13-.129 17.925 2.944 26.021 4.5 6.019 1.169 14.764 2.987 15.283 3.2.26.086-.65.606-3.551 1.9a187.932 187.932 0 0 0-28.358 15.414c-2.208 1.472-4.07 2.684-4.113 2.684a23.614 23.614 0 0 1-.086-2.771 60.469 60.469 0 0 0-4.677-23.553 6.551 6.551 0 0 1-.513-1.374zm46.024 9.093a32.569 32.569 0 0 1-.953 5.715c-1.559 6.451-5.758 16.02-10.91 25.025a28.527 28.527 0 0 1-1.82 2.944 18.471 18.471 0 0 1-2.6-1.386 140.985 140.985 0 0 0-16.972-8.313c-1.731-.736-3.247-1.342-3.29-1.428-.3-.26 13.638-9.482 21-13.9 5.849-3.548 15.373-8.831 15.547-8.657zm3.29.519c.39 0 8.27 2.165 12.382 3.377a255.439 255.439 0 0 1 29.485 10.781l3.16 1.429-2.207.519a322.752 322.752 0 0 0-49.921 15.457c-1.256.519-2.381.953-2.467.953a11.147 11.147 0 0 1 .909-2.208c4.633-9.828 7.62-20.089 8.356-28.836.046-.823.175-1.472.305-1.472zm-78.45 18.012c.13-.13 6.148 1.3 9.4 2.207 4.936 1.386 15.413 4.893 15.413 5.153 0 .043-1.169 1.039-2.554 2.252-5.672 4.719-11.128 9.7-17.666 16.019-1.948 1.862-3.593 3.378-3.679 3.378s-.13-.26-.087-.607a97.616 97.616 0 0 0-.606-26.108c-.135-1.213-.264-2.251-.221-2.294zm126.468.13a83.116 83.116 0 0 1-4.59 7.143c-2.6 3.723-6.409 8.66-15.024 19.484-4.545 5.715-9.655 12.166-11.343 14.331-1.733 2.165-3.161 3.983-3.2 3.983a14.925 14.925 0 0 1-1.212-1.731 89.468 89.468 0 0 0-17.535-19.354c-1.3-1.083-2.727-2.252-3.2-2.6a4.826 4.826 0 0 1-.866-.736c0-.13 7.36-3.291 12.946-5.542 9.785-3.984 23.119-8.746 33.121-11.82 5.239-1.645 10.824-3.247 10.911-3.16zm3.333.865a9.977 9.977 0 0 1 2.468 1.212 146.853 146.853 0 0 1 28.965 21.735c2.294 2.252 7.966 8.14 7.879 8.183 0 0-1.992.173-4.329.346-18.228 1.386-41.564 5.239-63.992 10.651-1.515.346-2.857.649-2.944.649s1.6-1.688 3.724-3.723c13.162-12.686 19.18-20.7 26.28-34.984 1-2.121 1.862-3.939 1.948-4.07zm-96.421 9.872c.607.129 6.235 2.771 10.478 4.892 3.9 1.948 9.742 5.066 10.045 5.325.043.043-2.035 1.126-4.589 2.382-8.14 4.07-15.111 7.923-22.385 12.339-2.078 1.256-3.81 2.3-3.853 2.3-.173 0-.13-.174 1.039-2.3a90.4 90.4 0 0 0 8.789-23.856c.172-.649.346-1.082.476-1.082zm-5.629 1.039a82.619 82.619 0 0 1-2.251 8.356 106.6 106.6 0 0 1-7.658 17.578c-.694 1.212-1.732 2.987-2.3 3.983l-1.082 1.732-2.425-2.337a31.806 31.806 0 0 0-8.053-5.932 11.627 11.627 0 0 1-2.079-1.212c0-.346 7.4-7.057 13.075-11.906 4.07-3.507 12.642-10.391 12.772-10.261zm34.421 14.158l2.122 1.385a164.623 164.623 0 0 1 14.938 11.041c2.467 2.034 7.23 6.321 8.183 7.361l.519.563-3.506 1c-19.83 5.5-35.157 10.391-53.038 16.972-1.992.736-3.68 1.342-3.81 1.342-.259 0-.476.216 3.984-3.9a190.089 190.089 0 0 0 29.095-33.424l1.516-2.337zm-9.049 2.251c.086.086-5.845 8.442-9.4 13.162-4.243 5.629-11.777 15.067-16.972 21.215-2.164 2.555-4.026 4.676-4.113 4.72-.13.043-.173-.606-.173-1.6a36.288 36.288 0 0 0-3.68-15.587c-1-1.992-1.169-2.468-.952-2.684.822-.736 13.421-7.923 21.388-12.21 5.369-2.857 13.767-7.1 13.9-7.014zm-54.727 13.422a19.128 19.128 0 0 1 2.252 1.126 47.549 47.549 0 0 1 7.447 5.023 12.91 12.91 0 0 1-2.511 2.078c-4.113 2.944-10.348 7.664-13.984 10.565-3.811 3.031-3.94 3.117-3.508 2.468a74.3 74.3 0 0 0 9.438-19.05 7.341 7.341 0 0 1 .868-2.21zm14.591 11.43c.216-.043.476.346 1.645 2.079a31.236 31.236 0 0 1 4.85 12.6l.086.866-5.931 2.295c-10.608 4.113-20.393 8.183-27.018 11.213a490.12 490.12 0 0 0-7.23 3.464c-2.122 1.082-3.854 1.9-3.854 1.861s1.342-1.039 2.987-2.252c12.946-9.395 24.16-19.7 32.559-30 .909-1.083 1.732-2.079 1.818-2.122h.087zm-6.711 1.646c.173.173-4.762 5.758-8.14 9.178a143.6 143.6 0 0 1-26.887 21.692c-1.3.822-2.468 1.558-2.6 1.645-.3.173.086-.26 4.589-5.153 2.858-3.074 5.022-5.672 7.49-8.875a14.635 14.635 0 0 1 4.33-4.114c6.37-4.589 21.047-14.547 21.22-14.373z"
      transform="translate(-371.662 -137.924)" fill="url(#c)"></path>
  </symbol>
  <symbol xmlns="http://www.w3.org/2000/svg" viewBox="0 0 207.642 228.66" id="node">
    <path d="M94.404 2.443a19.024 19.024 0 0 1 18.652 0l85.685 48.3a17.619 17.619 0 0 1 8.901 15.171v96.848a17.817 17.817 0 0 1-9.556 15.5l-85.226 48.08a18.652 18.652 0 0 1-18.932-.524l-25.575-14.786c-1.743-1.04-3.7-1.865-4.936-3.551 1.09-1.463 3.027-1.65 4.606-2.3a54.589 54.589 0 0 0 10.087-4.706 2.319 2.319 0 0 1 2.626.158l21.809 12.612c1.557.9 3.135-.287 4.469-1.04l83.684-47.226a2.769 2.769 0 0 0 1.521-2.726V66.341a2.991 2.991 0 0 0-1.793-2.992l-85.012-47.871a2.941 2.941 0 0 0-3.336-.007L17.189 63.443a2.962 2.962 0 0 0-1.793 2.977v95.915a2.691 2.691 0 0 0 1.542 2.69l22.684 12.805c4.261 2.3 9.491 3.587 14.183 1.9a10.761 10.761 0 0 0 6.966-10.108l.022-95.341a2.383 2.383 0 0 1 2.6-2.439h10.911a2.554 2.554 0 0 1 2.367 2.905l-.022 95.944c.007 8.523-3.494 17.791-11.378 21.974-9.713 5.022-21.723 3.967-31.321-.861l-24.394-13.49A17.558 17.558 0 0 1 0 162.814V65.975a17.648 17.648 0 0 1 9.2-15.359zm24.707 67.133c12.389-.717 25.654-.473 36.8 5.632 8.63 4.677 13.415 14.491 13.573 24.09a2.6 2.6 0 0 1-2.827 1.915c-3.587-.007-7.188.05-10.79-.022-1.528.057-2.41-1.349-2.6-2.7-1.033-4.591-3.537-9.132-7.855-11.349-6.629-3.322-14.319-3.157-21.55-3.085-5.28.287-10.955.739-15.424 3.838-3.443 2.353-4.477 7.174-3.25 10.919 1.148 2.748 4.326 3.63 6.916 4.448 14.936 3.9 30.755 3.587 45.411 8.659 6.062 2.095 11.995 6.17 14.075 12.518 2.712 8.508 1.528 18.681-4.52 25.51-4.907 5.624-12.052 8.609-19.19 10.345-9.491 2.116-19.334 2.167-28.968 1.22-9.061-1.033-18.487-3.415-25.482-9.584-5.983-5.194-8.9-13.286-8.609-21.091a2.422 2.422 0 0 1 2.654-2.131H98.24a2.529 2.529 0 0 1 2.583 2.511c.667 4.3 2.31 8.967 6.127 11.478 7.36 4.749 16.593 4.419 25.015 4.555 6.98-.308 14.814-.4 20.517-5.022 3.013-2.633 3.9-7.03 3.085-10.818-.882-3.2-4.3-4.685-7.174-5.739-14.742-4.663-30.74-2.97-45.339-8.25-5.926-2.095-11.658-6.055-13.932-12.145-3.178-8.605-1.718-19.273 4.971-25.873 6.457-6.564 15.926-9.1 24.893-10z"
      fill="#8cc84b"></path>
  </symbol>
  <symbol xmlns="http://www.w3.org/2000/svg" viewBox="0 0 331.235 138.015" id="npm">
    <path d="M0 0h331.235v117.312H165.617v20.7H89.709v-20.7H0z" fill="#d50000"></path>
    <path d="M20.702 96.61h34.5V41.402h20.7V96.61h13.8V20.702h-69zm89.709-75.908v96.61h34.5v-20.7h34.5v-75.91zm55.206 55.206h-20.7V41.402h20.7zm34.504-55.206V96.61h34.5V41.402h20.7V96.61h20.7V41.402h20.7V96.61h13.8V20.702z" fill="#fff"></path>
  </symbol>
</svg>